<svg width="16" height="16" viewBox="0 0 16 16" xmlns="http://www.w3.org/2000/svg">
<g clip-path="url(#clip0)">
<path d="M2.84518 9.17867C2.53262 9.49124 2.10869 9.66683 1.66667 9.66683C1.22464 9.66683 0.800716 9.49124 0.488156 9.17867C0.175595 8.86611 0 8.44219 0 8.00016C0 7.55814 0.175595 7.13421 0.488156 6.82165C0.800716 6.50909 1.22464 6.3335 1.66667 6.3335C2.10869 6.3335 2.53262 6.50909 2.84518 6.82165C3.15774 7.13421 3.33333 7.55814 3.33333 8.00016C3.33333 8.44219 3.15774 8.86611 2.84518 9.17867Z" />
<path d="M15.5118 9.17867C15.1993 9.49124 14.7754 9.66683 14.3333 9.66683C13.8913 9.66683 13.4674 9.49124 13.1548 9.17867C12.8423 8.86611 12.6667 8.44219 12.6667 8.00016C12.6667 7.55814 12.8423 7.13421 13.1548 6.82165C13.4674 6.50909 13.8913 6.3335 14.3333 6.3335C14.7754 6.3335 15.1993 6.50909 15.5118 6.82165C15.8244 7.13421 16 7.55814 16 8.00016C16 8.44219 15.8244 8.86611 15.5118 9.17867Z" />
<path d="M8.84518 9.17867C8.53262 9.49124 8.10869 9.66683 7.66667 9.66683C7.22464 9.66683 6.80072 9.49124 6.48815 9.17867C6.17559 8.86611 6 8.44219 6 8.00016C6 7.55814 6.17559 7.13421 6.48815 6.82165C6.80072 6.50909 7.22464 6.3335 7.66667 6.3335C8.10869 6.3335 8.53262 6.50909 8.84518 6.82165C9.15774 7.13421 9.33333 7.55814 9.33333 8.00016C9.33333 8.44219 9.15774 8.86611 8.84518 9.17867Z" />
</g>
<defs>
<clipPath id="clip0">
<path d="M0 0H16V16H0V0Z" />
</clipPath>
</defs>
</svg>
