<svg width="22" height="22" viewBox="0 0 22 22" fill="none" xmlns="http://www.w3.org/2000/svg">
    <path d="M11.9221 0C12.322 0.034111 12.7197 0.0910922 13.1131 0.170664C14.6523 0.522223 15.9729 1.28216 17.1294 2.33809C18.1938 3.30992 18.8866 4.51285 19.2699 5.89596C19.3514 6.18993 19.4677 6.40931 19.807 6.46795C19.9951 6.50045 20.0254 6.69213 20.0262 6.86214C20.0288 7.45495 20.028 8.04778 20.0279 8.64061C20.0279 9.01045 20.0273 9.38028 20.0262 9.75011C20.0246 10.0759 19.92 10.1887 19.5995 10.184C19.4057 10.1812 19.3304 10.2936 19.2831 10.4513C19.1501 10.8998 18.981 11.3368 18.7777 11.758C18.0281 13.3001 16.8674 14.4506 15.3969 15.3058C15.3264 15.3467 15.2551 15.3863 15.1835 15.4254C14.9525 15.5517 14.9471 15.5597 15.0415 15.8057C15.0931 15.941 15.1746 16.0629 15.28 16.1622C15.3854 16.2616 15.5119 16.3358 15.65 16.3793C15.8967 16.4677 16.1567 16.5022 16.4079 16.5719C16.4849 16.5866 16.5586 16.6155 16.6249 16.6573C16.5643 16.733 16.4816 16.7193 16.4124 16.7332C16.0829 16.7994 15.7593 16.9014 15.4167 16.8884C15.2807 16.8924 15.145 16.8727 15.0158 16.8302C14.9115 16.7884 14.8759 16.8243 14.8546 16.9304C14.8043 17.2086 14.7785 17.4906 14.7773 17.7732C14.7635 18.3384 14.7128 18.9009 14.6741 19.4641C14.6364 20.0113 14.6579 20.0607 15.186 20.2359C15.4439 20.3214 15.7018 20.4071 15.958 20.4977C16.0211 20.52 16.0954 20.5331 16.134 20.6048C16.0975 20.6567 16.0442 20.6373 15.9997 20.6375C15.5483 20.6392 15.0968 20.6415 14.6454 20.6377C14.1645 20.6336 13.906 20.3793 13.871 19.9017C13.8197 19.203 13.7607 18.505 13.7043 17.8067C13.6982 17.7694 13.6901 17.7325 13.6802 17.6961C13.6078 18.1132 13.6206 18.5016 13.6034 18.8867C13.5818 19.3699 13.5961 19.8546 13.5967 20.3387C13.597 20.5857 13.6753 20.6936 13.9035 20.7802C14.2333 20.9053 14.5556 21.0511 14.9251 21.0207C15.0543 21.0101 15.1778 21.0779 15.2939 21.1395C15.3222 21.1545 15.3607 21.1691 15.3571 21.2058C15.3532 21.2458 15.3116 21.249 15.2801 21.248C14.6774 21.2294 14.0728 21.3066 13.472 21.2219C13.1765 21.1803 12.983 21.0059 12.893 20.7161C12.8066 20.4378 12.7893 20.1497 12.7682 19.8634C12.726 19.2893 12.6961 18.7142 12.6615 18.1395C12.6638 18.1111 12.66 18.0825 12.6505 18.0556C12.641 18.0287 12.626 18.0041 12.6063 17.9834C12.576 18.037 12.5657 18.0996 12.5771 18.1602C12.576 19.0358 12.5758 19.9115 12.5765 20.7871C12.5768 21.1434 12.6891 21.3148 13.0296 21.4366C13.47 21.5941 13.9233 21.7098 14.3766 21.8242C14.4777 21.8498 14.5832 21.8673 14.5987 22H12.9013C12.8538 21.9909 12.8066 21.9798 12.7587 21.973C12.1156 21.881 11.8413 21.6312 11.7111 21.0173C11.6897 20.9165 11.6704 20.8154 11.6498 20.7145C11.581 20.3773 11.512 20.0402 11.443 19.703C11.379 19.8127 11.3342 19.9323 11.3102 20.057C11.2341 20.423 11.1717 20.7921 11.0879 21.1562C10.9839 21.6083 10.6801 21.8564 10.2333 21.9424C10.1326 21.9618 10.0318 21.9808 9.93101 22H8.23368C8.28641 21.8428 8.4317 21.8306 8.55969 21.7967C8.99544 21.6811 9.4392 21.5931 9.85899 21.423C9.95916 21.3867 10.0467 21.3222 10.1112 21.2373C10.1757 21.1525 10.2143 21.0509 10.2225 20.9446C10.276 20.5467 10.2242 20.1522 10.2104 19.7566C10.1968 19.6581 10.1729 19.5613 10.1389 19.4679C10.1004 19.5242 10.0779 19.59 10.0737 19.6581C10.0494 19.9286 10.0285 20.1994 10.0048 20.47C9.97016 20.8661 9.75483 21.1266 9.3827 21.2122C9.27163 21.2385 9.15803 21.2525 9.04391 21.254C8.53267 21.2567 8.02139 21.2529 7.51014 21.2495C7.46558 21.2492 7.41006 21.2673 7.37457 21.1904C7.53784 21.0949 7.71995 21.0362 7.90822 21.0183C8.19953 20.9837 8.48741 20.9246 8.76879 20.8417C9.15345 20.7371 9.24713 20.6133 9.23736 20.2117C9.21662 19.3588 9.15445 18.5069 9.17488 17.6529C9.1789 17.4848 9.17546 17.3166 9.17546 17.1484C9.15071 17.2646 9.13531 17.3825 9.12942 17.5012C9.10155 18.3049 9.03931 19.1062 8.95876 19.9061C8.91146 20.3759 8.68758 20.5912 8.22225 20.644C7.8136 20.6903 7.40781 20.6449 7.00152 20.6247C6.90205 20.6197 6.7866 20.6358 6.69087 20.5659C6.72985 20.5059 6.78762 20.5028 6.8373 20.487C7.16875 20.3814 7.50198 20.2813 7.83208 20.1718C8.05744 20.097 8.15375 19.9559 8.15828 19.7197C8.15963 19.6491 8.16027 19.5781 8.15479 19.5077C8.10373 18.8521 8.07945 18.1952 8.05922 17.538C8.05471 17.3916 8.0442 17.2448 8.02638 17.0994C8.00526 16.927 7.90707 16.8359 7.75656 16.8631C7.29347 16.9468 6.8487 16.8577 6.40647 16.7358C6.35192 16.7207 6.28388 16.7285 6.24356 16.6557C6.32544 16.6145 6.41326 16.5864 6.50383 16.5723C6.7383 16.525 6.96919 16.4614 7.19482 16.382C7.33619 16.3314 7.46567 16.2523 7.57524 16.1496C7.6848 16.047 7.77212 15.9229 7.83178 15.7851C7.91332 15.5989 7.88258 15.4944 7.72855 15.4202C6.42924 14.7941 5.42608 13.8351 4.62103 12.6545C4.15574 11.9691 3.80769 11.211 3.59113 10.4114C3.52905 10.1861 3.448 10.1363 3.24021 10.1729C2.95915 10.2225 2.87272 10.1784 2.75 9.92285V6.72403C2.88148 6.4459 2.93785 6.41116 3.23895 6.42265C3.4542 6.43087 3.46535 6.41785 3.52263 6.19976C3.88554 4.81812 4.51392 3.57785 5.51259 2.54489C6.71436 1.30188 8.20258 0.578254 9.86775 0.185749C10.2861 0.0871383 10.713 0.0479379 11.1387 0H11.9221ZM19.2318 8.20235C19.2354 7.91508 19.2207 7.62788 19.1878 7.34248C19.1638 7.14315 19.1358 6.94365 19.0961 6.74693C18.5483 4.0303 16.9481 2.14515 14.4664 1.00146C13.0428 0.345408 11.5239 0.235314 9.99532 0.532975C7.01728 1.11288 5.04849 2.90034 4.00126 5.71417C3.60121 6.78908 3.54769 7.91893 3.6619 9.05919C3.74206 9.91605 3.97302 10.752 4.34411 11.5285C4.88073 12.6413 5.66838 13.552 6.6159 14.3324C6.92923 14.5944 7.27423 14.8159 7.64281 14.9918C7.85815 15.0929 7.86878 15.0872 7.86791 14.8575C7.87345 14.7107 7.87037 14.5637 7.8587 14.4173C7.74429 13.4827 7.72842 12.5428 7.70428 11.6036C7.70749 11.5396 7.69354 11.4759 7.66387 11.4191C7.6342 11.3623 7.58989 11.3144 7.53552 11.2805C7.18303 11.0352 6.88178 10.7374 6.69092 10.3465C6.25695 9.45779 6.34988 8.18181 7.43653 7.39969C7.56121 7.30994 7.63614 7.22479 7.61764 7.05741C7.61022 6.92165 7.62003 6.78548 7.64685 6.65218C7.80829 5.56418 8.33162 4.69253 9.22443 4.04885C9.84915 3.59844 10.5467 3.34145 11.3202 3.33163C11.7631 3.32601 12.1941 3.43273 12.6171 3.55572C14.091 3.98431 15.2259 5.45365 15.2246 6.94493C15.2178 7.04502 15.2368 7.14517 15.2797 7.23585C15.3227 7.32652 15.3881 7.4047 15.4698 7.46293C15.8949 7.8024 16.2228 8.22356 16.3346 8.77031C16.5362 9.75718 16.2588 10.5868 15.4372 11.1847C15.1933 11.3622 15.1194 11.556 15.1316 11.8239C15.1336 11.8673 15.132 11.911 15.1302 11.9544C15.1114 12.394 15.0925 12.8337 15.0733 13.2733C15.05 13.8102 14.9476 14.3417 14.9662 14.8817C14.9733 15.0853 14.9717 15.0886 15.1501 14.9987C15.9937 14.5745 16.7406 13.9806 17.3439 13.2542C18.554 11.8078 19.2455 10.1634 19.2318 8.20235ZM8.74648 11.0942C8.98084 11.0974 9.21351 11.0542 9.43106 10.967C9.64861 10.8798 9.84672 10.7503 10.0139 10.5861C10.1812 10.4218 10.3142 10.2261 10.4053 10.0102C10.4965 9.79424 10.5439 9.56239 10.5449 9.32801C10.5459 9.09364 10.5005 8.86139 10.4112 8.64468C10.3219 8.42797 10.1906 8.2311 10.0247 8.06545C9.85894 7.8998 9.66195 7.76865 9.44516 7.67957C9.22836 7.5905 8.99607 7.54527 8.76169 7.54649C7.75865 7.54258 6.9709 8.29941 6.96707 9.27069C6.96292 10.3223 7.71197 11.0899 8.74648 11.0942ZM14.0572 11.094C15.0669 11.0956 15.8313 10.3384 15.8312 9.33681C15.8312 8.33595 15.0563 7.54977 14.072 7.55182C13.0963 7.55385 12.2932 8.34533 12.2907 9.30734C12.288 10.3197 13.052 11.0925 14.0572 11.094ZM12.7085 12.8693C12.5173 12.9864 12.3358 13.1231 12.131 13.2212C11.6398 13.4566 11.1564 13.4571 10.6829 13.1767C10.5382 13.091 10.401 12.9927 10.2579 12.9042C10.215 12.8776 10.1738 12.8094 10.1199 12.8471C10.0798 12.8752 10.1117 12.9382 10.1192 12.9856C10.1535 13.1503 10.1788 13.3167 10.1949 13.4842C10.2195 14.0022 10.4633 14.3934 10.8758 14.6849C10.9773 14.7633 11.0945 14.8191 11.2194 14.8484C11.3443 14.8778 11.474 14.8802 11.5999 14.8553C12.1183 14.7471 12.5398 14.2923 12.6304 13.7387C12.6703 13.4946 12.6346 13.2404 12.7306 13.0031C12.7405 12.9811 12.7437 12.9567 12.7397 12.9329C12.7358 12.909 12.7249 12.8869 12.7085 12.8693L12.7085 12.8693Z" fill="#FF7A45"/>
    <path d="M4.65994 8.35908C4.64845 7.34901 4.79083 6.47499 5.15492 5.64462C5.73481 4.32205 6.66061 3.30418 7.88625 2.55197C7.95323 2.51401 8.03094 2.49939 8.10714 2.51041C8.18335 2.52144 8.25372 2.55748 8.3072 2.61288C8.36277 2.66843 8.34024 2.72112 8.31699 2.77681C8.22574 2.97665 8.07097 3.14071 7.87679 3.24345C6.88755 3.82967 6.20018 4.68369 5.71669 5.70824C5.30648 6.5603 5.11167 7.50001 5.14934 8.44492C5.20042 9.64437 5.55241 10.7519 6.26138 11.7336C6.34221 11.8296 6.39688 11.9449 6.4201 12.0683C6.42939 12.142 6.4737 12.2227 6.39189 12.2773C6.35424 12.3047 6.31047 12.3225 6.26439 12.3292C6.2183 12.3359 6.17129 12.3312 6.12742 12.3156C6.04045 12.2819 5.96574 12.2227 5.91319 12.1456C5.25274 11.2487 4.81915 10.2612 4.69333 9.14488C4.65969 8.84643 4.68885 8.5469 4.65994 8.35908Z" fill="#FF7A45"/>
    <path d="M8.58382 2.14518C8.58284 2.09918 8.59112 2.05344 8.60816 2.0107C8.62519 1.96796 8.65065 1.92907 8.68301 1.89636C8.71537 1.86364 8.75397 1.83776 8.79653 1.82026C8.83908 1.80275 8.88472 1.79398 8.93073 1.79445C9.12477 1.79543 9.30581 2.00189 9.31171 2.22892C9.31498 2.35468 9.02894 2.58623 8.87552 2.58201C8.70291 2.57727 8.58383 2.39895 8.58382 2.14518Z" fill="#FF7A45"/>
    <path d="M8.15744 9.00203C8.15233 8.85392 8.20611 8.70982 8.307 8.60128C8.40789 8.49273 8.54768 8.42858 8.69577 8.42286C9.04395 8.42101 9.31031 8.6712 9.3139 9.00347C9.31743 9.32923 9.06609 9.57331 8.72811 9.57236C8.37913 9.57137 8.1591 9.35147 8.15744 9.00203Z" fill="#FF7A45"/>
    <path d="M14.1132 9.57244C13.7628 9.5704 13.5399 9.33887 13.5438 8.98101C13.548 8.83601 13.6063 8.69785 13.7073 8.59374C13.8083 8.48964 13.9447 8.42714 14.0895 8.41858C14.2491 8.41538 14.4034 8.47568 14.5186 8.58624C14.6337 8.69679 14.7002 8.84854 14.7035 9.00813C14.704 9.33189 14.4503 9.57439 14.1132 9.57244Z" fill="#FF7A45"/>
</svg>
