<svg width="54" height="54" viewBox="0 0 54 54" fill="none" xmlns="http://www.w3.org/2000/svg">
<path d="M7.1738 6.5H7.1638C6.89766 6.50132 6.64292 6.60814 6.45544 6.79703C6.26795 6.98592 6.16304 7.24145 6.1637 7.50759C6.16436 7.77372 6.27055 8.02873 6.45897 8.21668C6.64739 8.40464 6.90266 8.51019 7.1688 8.51019C7.43493 8.51019 7.6902 8.40464 7.87863 8.21668C8.06705 8.02873 8.17323 7.77372 8.17389 7.50759C8.17456 7.24145 8.06964 6.98592 7.88216 6.79703C7.69467 6.60814 7.43993 6.50132 7.1738 6.5Z" fill="#8A9BB5"/>
<path d="M13.3276 6.5H13.3176C13.0515 6.50132 12.7967 6.60814 12.6092 6.79703C12.4218 6.98592 12.3168 7.24145 12.3175 7.50759C12.3182 7.77372 12.4244 8.02873 12.6128 8.21668C12.8012 8.40464 13.0565 8.51019 13.3226 8.51019C13.5887 8.51019 13.844 8.40464 14.0324 8.21668C14.2209 8.02873 14.327 7.77372 14.3277 7.50759C14.3284 7.24145 14.2234 6.98592 14.036 6.79703C13.8485 6.60814 13.5937 6.50132 13.3276 6.5Z" fill="#8A9BB5"/>
<path d="M34.8457 6.5H24.0771C23.8119 6.5 23.5575 6.60536 23.37 6.79289C23.1824 6.98043 23.0771 7.23478 23.0771 7.5C23.0771 7.76522 23.1824 8.01957 23.37 8.20711C23.5575 8.39464 23.8119 8.5 24.0771 8.5H34.8457C35.1109 8.5 35.3653 8.39464 35.5528 8.20711C35.7403 8.01957 35.8457 7.76522 35.8457 7.5C35.8457 7.23478 35.7403 6.98043 35.5528 6.79289C35.3653 6.60536 35.1109 6.5 34.8457 6.5Z" fill="#8A9BB5"/>
<path d="M7.17381 21.5C7.43902 21.5 7.69338 21.3946 7.88091 21.2071C8.06845 21.0196 8.17381 20.7652 8.17381 20.5C8.17381 20.2348 8.06845 19.9804 7.88091 19.7929C7.69338 19.6054 7.43902 19.5 7.17381 19.5H7.16381C6.89859 19.5013 6.64476 19.608 6.45816 19.7964C6.27156 19.9849 6.16748 20.2398 6.16881 20.505C6.17013 20.7702 6.27676 21.024 6.46523 21.2106C6.65371 21.3972 6.90859 21.5013 7.17381 21.5Z" fill="#8A9BB5"/>
<path d="M7.1738 32.5H7.1638C6.89766 32.5013 6.64292 32.6081 6.45544 32.797C6.26795 32.9859 6.16304 33.2415 6.1637 33.5076C6.16436 33.7737 6.27055 34.0287 6.45897 34.2167C6.64739 34.4046 6.90266 34.5102 7.1688 34.5102C7.43493 34.5102 7.6902 34.4046 7.87863 34.2167C8.06705 34.0287 8.17323 33.7737 8.17389 33.5076C8.17456 33.2415 8.06964 32.9859 7.88216 32.797C7.69467 32.6081 7.43993 32.5013 7.1738 32.5Z" fill="#8A9BB5"/>
<path d="M7.1738 45.5H7.1638C6.89766 45.5013 6.64292 45.6081 6.45544 45.797C6.26795 45.9859 6.16304 46.2415 6.1637 46.5076C6.16436 46.7737 6.27055 47.0287 6.45897 47.2167C6.64739 47.4046 6.90266 47.5102 7.1688 47.5102C7.43493 47.5102 7.6902 47.4046 7.87863 47.2167C8.06705 47.0287 8.17323 46.7737 8.17389 46.5076C8.17456 46.2415 8.06964 45.9859 7.88216 45.797C7.69467 45.6081 7.43993 45.5013 7.1738 45.5Z" fill="#8A9BB5"/>
<path d="M13.3276 21.5C13.5928 21.5 13.8472 21.3946 14.0347 21.2071C14.2222 21.0196 14.3276 20.7652 14.3276 20.5C14.3276 20.2348 14.2222 19.9804 14.0347 19.7929C13.8472 19.6054 13.5928 19.5 13.3276 19.5H13.3176C13.0524 19.5013 12.7985 19.608 12.6119 19.7964C12.4253 19.9849 12.3213 20.2398 12.3226 20.505C12.3239 20.7702 12.4305 21.024 12.619 21.2106C12.8075 21.3972 13.0624 21.5013 13.3276 21.5Z" fill="#8A9BB5"/>
<path d="M24.0771 21.5H34.8457C35.1109 21.5 35.3653 21.3946 35.5528 21.2071C35.7403 21.0196 35.8457 20.7652 35.8457 20.5C35.8457 20.2348 35.7403 19.9804 35.5528 19.7929C35.3653 19.6054 35.1109 19.5 34.8457 19.5H24.0771C23.8119 19.5 23.5575 19.6054 23.37 19.7929C23.1824 19.9804 23.0771 20.2348 23.0771 20.5C23.0771 20.7652 23.1824 21.0196 23.37 21.2071C23.5575 21.3946 23.8119 21.5 24.0771 21.5Z" fill="#8A9BB5"/>
<path d="M13.3276 32.5H13.3176C13.0515 32.5013 12.7967 32.6081 12.6092 32.797C12.4218 32.9859 12.3168 33.2415 12.3175 33.5076C12.3182 33.7737 12.4244 34.0287 12.6128 34.2167C12.8012 34.4046 13.0565 34.5102 13.3226 34.5102C13.5887 34.5102 13.844 34.4046 14.0324 34.2167C14.2209 34.0287 14.327 33.7737 14.3277 33.5076C14.3284 33.2415 14.2234 32.9859 14.036 32.797C13.8485 32.6081 13.5937 32.5013 13.3276 32.5Z" fill="#8A9BB5"/>
<path d="M13.3276 45.5H13.3176C13.0515 45.5013 12.7967 45.6081 12.6092 45.797C12.4218 45.9859 12.3168 46.2415 12.3175 46.5076C12.3182 46.7737 12.4244 47.0287 12.6128 47.2167C12.8012 47.4046 13.0565 47.5102 13.3226 47.5102C13.5887 47.5102 13.844 47.4046 14.0324 47.2167C14.2209 47.0287 14.327 46.7737 14.3277 46.5076C14.3284 46.2415 14.2234 45.9859 14.036 45.797C13.8485 45.6081 13.5937 45.5013 13.3276 45.5Z" fill="#8A9BB5"/>
<path d="M41.4005 28.02C41.1664 27.6312 40.8701 27.2834 40.5233 26.9907C40.9838 26.6041 41.3545 26.1218 41.6096 25.5772C41.8646 25.0327 41.9978 24.4392 42 23.8379V17.1621C41.9979 16.5584 41.8636 15.9625 41.6066 15.4162C41.3496 14.87 40.9762 14.3866 40.5125 14C40.9762 13.6134 41.3496 13.13 41.6066 12.5838C41.8636 12.0375 41.9979 11.4416 42 10.8379V4.1621C41.9987 3.05863 41.5598 2.00072 40.7795 1.22045C39.9993 0.440184 38.9414 0.00127039 37.8379 0H4.1621C3.05863 0.00127039 2.00072 0.440184 1.22045 1.22045C0.440184 2.00072 0.00127039 3.05863 0 4.1621V10.8379C0.00213938 11.4416 0.136411 12.0375 0.393385 12.5838C0.650359 13.13 1.02381 13.6134 1.4875 14C1.02381 14.3866 0.650359 14.87 0.393385 15.4162C0.136411 15.9625 0.00213938 16.5584 0 17.1621V23.8379C0.00209316 24.4415 0.136284 25.0374 0.393151 25.5837C0.650018 26.1299 1.02334 26.6134 1.4869 27C1.02348 27.3863 0.650237 27.8694 0.393369 28.4153C0.136501 28.9612 0.00223617 29.5567 0 30.16V36.84C0.00215188 37.4432 0.136299 38.0387 0.393025 38.5846C0.649752 39.1305 1.02284 39.6136 1.4861 40C1.02284 40.3864 0.649752 40.8695 0.393025 41.4154C0.136299 41.9613 0.00215188 42.5568 0 43.16V49.84C0.00127039 50.9429 0.439963 52.0003 1.21984 52.7802C1.99972 53.56 3.05709 53.9987 4.16 54H37.84C38.2224 53.9957 38.6022 53.9367 38.9679 53.8248C40.7211 54.1041 42.513 54.021 44.2329 53.5806C45.9527 53.1402 47.564 52.3518 48.9671 51.2641C50.3703 50.1765 51.5356 48.8127 52.3909 47.257C53.2462 45.7012 53.7735 43.9867 53.9401 42.2192C54.1067 40.4517 53.9092 38.6688 53.3596 36.9806C52.8101 35.2924 51.9202 33.7349 50.7451 32.4042C49.5699 31.0735 48.1343 29.9979 46.5271 29.2438C44.9198 28.4897 43.175 28.0732 41.4005 28.02ZM2 10.8379V4.1621C2.00058 3.58885 2.22856 3.03925 2.63391 2.63391C3.03925 2.22856 3.58885 2.00058 4.1621 2H37.8379C38.4111 2.00058 38.9607 2.22856 39.3661 2.63391C39.7714 3.03925 39.9994 3.58885 40 4.1621V10.8379C39.9994 11.4111 39.7714 11.9607 39.3661 12.3661C38.9607 12.7714 38.4111 12.9994 37.8379 13H4.1621C3.58885 12.9994 3.03925 12.7714 2.63391 12.3661C2.22856 11.9607 2.00058 11.4111 2 10.8379ZM37.8379 15C38.4111 15.0006 38.9607 15.2286 39.3661 15.6339C39.7714 16.0393 39.9994 16.5889 40 17.1621V23.8379C39.9994 24.4111 39.7714 24.9607 39.3661 25.3661C38.9607 25.7714 38.4111 25.9994 37.8379 26H4.1621C3.58885 25.9994 3.03925 25.7714 2.63391 25.3661C2.22856 24.9607 2.00058 24.4111 2 23.8379V17.1621C2.00058 16.5889 2.22856 16.0393 2.63391 15.6339C3.03925 15.2286 3.58885 15.0006 4.1621 15H37.8379ZM2 36.84V30.16C2.00069 29.5873 2.22848 29.0383 2.63341 28.6334C3.03834 28.2285 3.58734 28.0007 4.16 28H37.84C38.1435 28.0074 38.4418 28.0804 38.7145 28.2139C35.7885 28.7387 33.1313 30.2517 31.1866 32.5H24.08C23.8148 32.5 23.5604 32.6054 23.3729 32.7929C23.1854 32.9804 23.08 33.2348 23.08 33.5C23.08 33.7652 23.1854 34.0196 23.3729 34.2071C23.5604 34.3946 23.8148 34.5 24.08 34.5H29.759C28.9539 35.888 28.415 37.4142 28.17 39H4.16C3.58734 38.9993 3.03832 38.7716 2.63338 38.3666C2.22844 37.9617 2.00066 37.4127 2 36.84ZM4.16 52C3.58734 51.9993 3.03832 51.7716 2.63338 51.3666C2.22844 50.9617 2.00066 50.4127 2 49.84V43.16C2.00069 42.5873 2.22848 42.0383 2.63341 41.6334C3.03834 41.2285 3.58734 41.0007 4.16 41H28C28.0033 42.5369 28.281 44.0608 28.82 45.5H24.08C23.8148 45.5 23.5604 45.6054 23.3729 45.7929C23.1854 45.9804 23.08 46.2348 23.08 46.5C23.08 46.7652 23.1854 47.0196 23.3729 47.2071C23.5604 47.3946 23.8148 47.5 24.08 47.5H29.759C30.822 49.3293 32.313 50.8735 34.1039 52H4.16ZM41 52C40.3857 51.9962 39.7728 51.9409 39.1678 51.8346C39.1141 51.819 39.0585 51.8105 39.0026 51.8093C36.2315 51.2854 33.7689 49.7136 32.1269 47.4208C30.4848 45.1279 29.7898 42.2903 30.1861 39.4981C30.5825 36.7059 32.0398 34.1739 34.2551 32.4285C36.4703 30.6832 39.2731 29.8589 42.0805 30.1269C44.888 30.3949 47.4841 31.7347 49.3291 33.8677C51.174 36.0007 52.1259 38.7627 51.9868 41.5795C51.8476 44.3963 50.6282 47.051 48.5819 48.9918C46.5357 50.9326 43.8202 52.01 41 52Z" fill="#8A9BB5"/>
<path d="M41.0003 34C40.2587 34 39.655 34.6344 39.655 35.4104V44.1991L36.7387 41.9419C36.4983 41.7571 36.2023 41.6832 35.9092 41.7356C35.6132 41.7879 35.3611 41.9573 35.1911 42.216C34.8892 42.681 34.9508 43.2999 35.3347 43.6879L40.2587 48.6859C40.4668 48.8953 40.7336 49 41.0003 49C41.2641 49 41.5308 48.8953 41.7389 48.6859L46.6658 43.6879C47.0498 43.2999 47.1113 42.681 46.8065 42.216C46.6394 41.9573 46.3844 41.7849 46.0913 41.7356C46.0269 41.7233 45.9624 41.7171 45.9008 41.7171C45.6693 41.7171 45.4495 41.7941 45.2619 41.9419L42.3427 44.1991V35.4104C42.3427 34.6344 41.7389 34 41.0003 34Z" fill="#8A9BB5"/>
</svg>
