<svg width="16" height="16" viewBox="0 0 16 16" fill="none" xmlns="http://www.w3.org/2000/svg">
<g id="Group 2">
<circle id="Ellipse 4" cx="8" cy="8" r="7" stroke="#FAAD14" stroke-width="2"/>
<path id="Vector 1 (Stroke)" fill-rule="evenodd" clip-rule="evenodd" d="M9.94794 8.20211C9.60925 7.89782 9.07165 7.93876 8.78412 8.30845L8.34595 8.87181C7.43499 10.043 5.69404 10.1129 4.69139 9.02994L3.79611 8.22862C3.46689 7.93395 3.43889 7.42819 3.73355 7.09898C4.02822 6.76976 4.53398 6.74175 4.86319 7.03642L5.82323 7.8957L5.85358 7.92984C6.18588 8.30368 6.7759 8.28432 7.08299 7.8895L7.52116 7.32614C8.38604 6.21415 9.99707 6.09536 11.0172 7.0119C11.0375 7.0301 11.0555 7.04633 11.0716 7.06091C11.1458 7.12788 11.1816 7.16016 11.2232 7.18966L12.3435 7.98369C12.704 8.23918 12.789 8.73851 12.5336 9.09898C12.2781 9.45944 11.7787 9.54454 11.4183 9.28904L10.298 8.49502C10.1711 8.40505 10.0534 8.29794 9.98002 8.23119C9.96811 8.22035 9.95736 8.21057 9.94794 8.20211Z" fill="#FAAD14"/>
</g>
</svg>
