<svg width="16" height="16" viewBox="0 0 16 16" fill="none" xmlns="http://www.w3.org/2000/svg">
<g id="Clipboard">
<g id="Vector">
<path d="M12.6667 12.4444C12.2878 12.4444 11.9528 12.6356 11.7522 12.9267L9.27058 11.6861C9.30836 11.5744 9.33336 11.4572 9.33336 11.3333C9.33336 11.2094 9.30836 11.0928 9.27058 10.9811L11.7522 9.74C11.9534 10.0311 12.2878 10.2222 12.6667 10.2222C13.2795 10.2222 13.7778 9.72388 13.7778 9.11111C13.7778 8.49833 13.2795 8 12.6667 8C12.0539 8 11.5556 8.49833 11.5556 9.11111C11.5556 9.14555 11.5628 9.17833 11.5656 9.21222L8.96447 10.5128C8.7678 10.3339 8.50891 10.2222 8.22225 10.2222C7.60947 10.2222 7.11114 10.7206 7.11114 11.3333C7.11114 11.9461 7.60947 12.4444 8.22225 12.4444C8.50891 12.4444 8.7678 12.3328 8.96503 12.1539L11.5661 13.4544C11.5628 13.4883 11.5556 13.5211 11.5556 13.5556C11.5556 14.1683 12.0539 14.6667 12.6667 14.6667C13.2795 14.6667 13.7778 14.1683 13.7778 13.5556C13.7778 12.9428 13.2795 12.4444 12.6667 12.4444ZM12.6667 8.55555C12.9734 8.55555 13.2222 8.805 13.2222 9.11111C13.2222 9.41722 12.9734 9.66666 12.6667 9.66666C12.36 9.66666 12.1111 9.41722 12.1111 9.11111C12.1111 8.805 12.36 8.55555 12.6667 8.55555ZM8.22225 11.8889C7.91558 11.8889 7.66669 11.6394 7.66669 11.3333C7.66669 11.0272 7.91558 10.7778 8.22225 10.7778C8.52891 10.7778 8.7778 11.0272 8.7778 11.3333C8.7778 11.6394 8.52891 11.8889 8.22225 11.8889ZM12.6667 14.1111C12.36 14.1111 12.1111 13.8617 12.1111 13.5556C12.1111 13.2494 12.36 13 12.6667 13C12.9734 13 13.2222 13.2494 13.2222 13.5556C13.2222 13.8617 12.9734 14.1111 12.6667 14.1111Z" fill="currentColor"/>
<path d="M10.7222 14.1111H3.50002C3.34724 14.1111 3.22224 13.9867 3.22224 13.8333V3.27777C3.22224 3.12444 3.34724 2.99999 3.50002 2.99999H4.88891V3.27777C4.88891 3.43111 5.01335 3.55555 5.16669 3.55555H10.1667C10.32 3.55555 10.4445 3.43111 10.4445 3.27777V2.99999H11.8334C11.9861 2.99999 12.1111 3.12444 12.1111 3.27777V7.16666C12.1111 7.31999 12.2356 7.44444 12.3889 7.44444C12.5422 7.44444 12.6667 7.31999 12.6667 7.16666V3.27777C12.6667 2.81833 12.2928 2.44444 11.8334 2.44444H10.3934C10.2784 2.12166 9.9728 1.88888 9.61113 1.88888H8.62558C8.42891 1.54999 8.06502 1.33333 7.66669 1.33333C7.26835 1.33333 6.90446 1.54999 6.7078 1.88888H5.72224C5.36058 1.88888 5.05502 2.12166 4.94002 2.44444H3.50002C3.04058 2.44444 2.66669 2.81833 2.66669 3.27777V13.8333C2.66669 14.2928 3.04058 14.6667 3.50002 14.6667H10.7222C10.8756 14.6667 11 14.5422 11 14.3889C11 14.2355 10.8756 14.1111 10.7222 14.1111ZM5.72224 2.44444H6.88446C7.00224 2.44444 7.10669 2.37055 7.14558 2.25999C7.22502 2.03833 7.43446 1.88888 7.66669 1.88888C7.89891 1.88888 8.10835 2.03833 8.18724 2.25999C8.22669 2.37055 8.33113 2.44444 8.44891 2.44444H9.61113C9.76391 2.44444 9.88891 2.56888 9.88891 2.72222V2.99999H5.44446V2.72222C5.44446 2.56888 5.56946 2.44444 5.72224 2.44444Z" fill="currentColor"/>
</g>
<path id="Vector (Stroke)" fill-rule="evenodd" clip-rule="evenodd" d="M9.75555 2.86666H5.57777H9.75555ZM11.7131 12.758C11.9412 12.4853 12.2837 12.3111 12.6667 12.3111C13.3531 12.3111 13.9111 12.8691 13.9111 13.5556C13.9111 14.242 13.3531 14.8 12.6667 14.8C11.9802 14.8 11.4222 14.242 11.4222 13.5556C11.4222 13.5474 11.4225 13.5395 11.4229 13.5319L8.98381 12.3124C8.77409 12.4768 8.51104 12.5778 8.22222 12.5778C7.5358 12.5778 6.97778 12.0197 6.97778 11.3333C6.97778 10.6469 7.5358 10.0889 8.22222 10.0889C8.51093 10.0889 8.77398 10.1898 8.98335 10.3543L11.4229 9.13447C11.4225 9.12697 11.4222 9.11915 11.4222 9.11111C11.4222 8.42469 11.9802 7.86666 12.6667 7.86666C13.3531 7.86666 13.9111 8.42469 13.9111 9.11111C13.9111 9.79752 13.3531 10.3556 12.6667 10.3556C12.2836 10.3556 11.9415 10.1812 11.7132 9.90859L9.43006 11.0504C9.45259 11.1396 9.46666 11.2339 9.46666 11.3333C9.46666 11.4328 9.45259 11.5273 9.43004 11.6168L11.7131 12.758ZM9.27055 11.6861L11.7522 12.9267C11.9528 12.6356 12.2878 12.4444 12.6667 12.4444C13.2794 12.4444 13.7778 12.9428 13.7778 13.5556C13.7778 14.1683 13.2794 14.6667 12.6667 14.6667C12.0539 14.6667 11.5556 14.1683 11.5556 13.5556C11.5556 13.5332 11.5586 13.5116 11.5616 13.4899C11.5633 13.4781 11.5649 13.4664 11.5661 13.4544L8.965 12.1539C8.76778 12.3328 8.50889 12.4444 8.22222 12.4444C7.60944 12.4444 7.11111 11.9461 7.11111 11.3333C7.11111 10.7206 7.60944 10.2222 8.22222 10.2222C8.50889 10.2222 8.76778 10.3339 8.96444 10.5128L11.5656 9.21222C11.5645 9.19929 11.5628 9.18652 11.5611 9.17376C11.5583 9.15308 11.5556 9.13241 11.5556 9.11111C11.5556 8.49833 12.0539 8 12.6667 8C13.2794 8 13.7778 8.49833 13.7778 9.11111C13.7778 9.72389 13.2794 10.2222 12.6667 10.2222C12.2878 10.2222 11.9533 10.0311 11.7522 9.74L9.27055 10.9811C9.30833 11.0928 9.33333 11.2094 9.33333 11.3333C9.33333 11.4572 9.30833 11.5744 9.27055 11.6861ZM13.0889 9.11111C13.0889 8.87855 12.8996 8.68889 12.6667 8.68889C12.4337 8.68889 12.2444 8.87855 12.2444 9.11111C12.2444 9.34367 12.4337 9.53333 12.6667 9.53333C12.8996 9.53333 13.0889 9.34367 13.0889 9.11111ZM7.8 11.3333C7.8 11.5659 7.98928 11.7556 8.22222 11.7556C8.45516 11.7556 8.64444 11.5659 8.64444 11.3333C8.64444 11.1008 8.45516 10.9111 8.22222 10.9111C7.98928 10.9111 7.8 11.1008 7.8 11.3333ZM12.2444 13.5556C12.2444 13.7881 12.4337 13.9778 12.6667 13.9778C12.8996 13.9778 13.0889 13.7881 13.0889 13.5556C13.0889 13.323 12.8996 13.1333 12.6667 13.1333C12.4337 13.1333 12.2444 13.323 12.2444 13.5556ZM3.49999 13.9778H10.7222C10.9492 13.9778 11.1333 14.1619 11.1333 14.3889C11.1333 14.6159 10.9492 14.8 10.7222 14.8H3.49999C2.96691 14.8 2.53333 14.3664 2.53333 13.8333V3.27777C2.53333 2.74469 2.96691 2.31111 3.49999 2.31111H4.85097C5.00515 1.98435 5.33547 1.75555 5.72221 1.75555H6.63382C6.86114 1.41486 7.24628 1.2 7.66666 1.2C8.08703 1.2 8.47218 1.41486 8.6995 1.75555H9.6111C9.99784 1.75555 10.3282 1.98435 10.4823 2.31111H11.8333C12.3664 2.31111 12.8 2.74469 12.8 3.27777V7.16666C12.8 7.39363 12.6159 7.57777 12.3889 7.57777C12.1619 7.57777 11.9778 7.39364 11.9778 7.16666V3.27777C11.9778 3.19825 11.9126 3.13333 11.8333 3.13333H10.5778V3.27777C10.5778 3.50475 10.3936 3.68889 10.1667 3.68889H5.16666C4.93969 3.68889 4.75555 3.50475 4.75555 3.27777V3.13333H3.49999C3.42068 3.13333 3.35555 3.19825 3.35555 3.27777V13.8333C3.35555 13.9129 3.42068 13.9778 3.49999 13.9778ZM10.3933 2.44444H11.8333C12.2928 2.44444 12.6667 2.81833 12.6667 3.27777V7.16666C12.6667 7.32 12.5422 7.44444 12.3889 7.44444C12.2355 7.44444 12.1111 7.32 12.1111 7.16666V3.27777C12.1111 3.12444 11.9861 3 11.8333 3H10.4444V3.27777C10.4444 3.43111 10.32 3.55555 10.1667 3.55555H5.16666C5.01332 3.55555 4.88888 3.43111 4.88888 3.27777V3H3.49999C3.34721 3 3.22221 3.12444 3.22221 3.27777V13.8333C3.22221 13.9867 3.34721 14.1111 3.49999 14.1111H10.7222C10.8755 14.1111 11 14.2356 11 14.3889C11 14.5422 10.8755 14.6667 10.7222 14.6667H3.49999C3.04055 14.6667 2.66666 14.2928 2.66666 13.8333V3.27777C2.66666 2.81833 3.04055 2.44444 3.49999 2.44444H4.93999C5.05499 2.12166 5.36055 1.88889 5.72221 1.88889H6.70777C6.90444 1.55 7.26832 1.33333 7.66666 1.33333C8.06499 1.33333 8.42888 1.55 8.62555 1.88889H9.6111C9.97277 1.88889 10.2783 2.12166 10.3933 2.44444ZM13.2222 9.11111C13.2222 8.805 12.9733 8.55555 12.6667 8.55555C12.36 8.55555 12.1111 8.805 12.1111 9.11111C12.1111 9.41722 12.36 9.66666 12.6667 9.66666C12.9733 9.66666 13.2222 9.41722 13.2222 9.11111ZM7.66666 11.3333C7.66666 11.6394 7.91555 11.8889 8.22222 11.8889C8.52889 11.8889 8.77778 11.6394 8.77778 11.3333C8.77778 11.0272 8.52889 10.7778 8.22222 10.7778C7.91555 10.7778 7.66666 11.0272 7.66666 11.3333ZM12.1111 13.5556C12.1111 13.8617 12.36 14.1111 12.6667 14.1111C12.9733 14.1111 13.2222 13.8617 13.2222 13.5556C13.2222 13.2494 12.9733 13 12.6667 13C12.36 13 12.1111 13.2494 12.1111 13.5556Z" fill="#001529"/>
</g>
</svg>
