<svg width="24" height="25" viewBox="0 0 24 25" fill="none" xmlns="http://www.w3.org/2000/svg">
    <path d="M20.8192 16.8515C19.8231 16.2749 18.609 16.4296 17.7911 17.1515L16.5489 16.432V12.8765C16.5489 12.5085 16.352 12.1663 16.0333 11.9835L12.8458 10.1484V8.57571C13.8817 8.22415 14.627 7.24446 14.627 6.08899C14.627 4.63821 13.4528 3.46399 12.002 3.46399C10.5512 3.46399 9.377 4.63821 9.377 6.08899C9.377 7.24446 10.1223 8.22415 11.1583 8.57571V10.1484L7.97075 11.9835C7.652 12.1663 7.45513 12.5085 7.45513 12.8765V16.4296L6.21294 17.1491C5.39497 16.4273 4.17856 16.2726 3.18481 16.8491C1.93091 17.5757 1.50435 19.1788 2.22388 20.4327C2.94575 21.6866 4.54185 22.1179 5.79106 21.3937C6.78716 20.8171 7.2606 19.6827 7.04731 18.6093L8.18872 17.946L11.484 19.8445C11.6434 19.9359 11.8215 19.9827 11.9997 19.9827C12.1778 19.9827 12.3559 19.9359 12.5153 19.8445L15.8083 17.9484L16.9497 18.6116C16.7364 19.6827 17.2122 20.8195 18.2059 21.396C19.4551 22.1202 21.0536 21.6913 21.7731 20.4351C22.495 19.1788 22.0684 17.5757 20.8192 16.8515ZM5.04575 20.0952C4.91845 20.169 4.77782 20.2168 4.63196 20.236C4.48611 20.2551 4.3379 20.2453 4.19587 20.2069C4.05384 20.1686 3.92079 20.1025 3.80439 20.0126C3.68799 19.9226 3.59053 19.8105 3.51763 19.6827C3.20825 19.146 3.39106 18.457 3.92778 18.1476C4.05509 18.0739 4.19571 18.026 4.34157 18.0069C4.48743 17.9877 4.63564 17.9976 4.77767 18.0359C4.9197 18.0742 5.05274 18.1403 5.16914 18.2303C5.28554 18.3202 5.383 18.4323 5.45591 18.5601C5.76528 19.0968 5.58247 19.7859 5.04575 20.0952ZM10.8747 6.08899C10.8807 5.7946 11.0018 5.51429 11.2122 5.30822C11.4225 5.10214 11.7052 4.98672 11.9997 4.98672C12.2941 4.98672 12.5768 5.10214 12.7872 5.30822C12.9975 5.51429 13.1186 5.7946 13.1247 6.08899C13.1186 6.38338 12.9975 6.66369 12.7872 6.86976C12.5768 7.07584 12.2941 7.19126 11.9997 7.19126C11.7052 7.19126 11.4225 7.07584 11.2122 6.86976C11.0018 6.66369 10.8807 6.38338 10.8747 6.08899ZM14.859 16.5468L11.9997 18.1945L9.14028 16.5468V13.2562L11.9997 11.6085L14.859 13.2562V16.5468ZM20.4817 19.6851C20.1723 20.2218 19.4879 20.407 18.9536 20.0976C18.4192 19.7882 18.234 19.0991 18.5434 18.5624C18.8528 18.0257 19.5372 17.8406 20.0715 18.1499C20.6083 18.4593 20.7911 19.146 20.4817 19.6851Z"/>
</svg>
