<svg width="16" height="17" viewBox="0 0 16 17" xmlns="http://www.w3.org/2000/svg">
<path d="M8.11911 12.4376C8.11911 12.567 8.21911 12.6729 8.3397 12.6729H13.7809C13.9015 12.6729 14.0015 12.567 14.0015 12.4376V11.0259C14.0015 10.8965 13.9015 10.7906 13.7809 10.7906H8.3397C8.21911 10.7906 8.11911 10.8965 8.11911 11.0259V12.4376ZM2.38676 12.617L8.03382 7.88174C8.14558 7.78763 8.14558 7.6141 8.03382 7.51998L2.38676 2.78763C2.35267 2.75864 2.31098 2.74004 2.26663 2.73404C2.22229 2.72805 2.17715 2.7349 2.13658 2.75379C2.09602 2.77268 2.06172 2.80281 2.03777 2.84061C2.01382 2.87841 2.00122 2.92229 2.00147 2.96704V4.81116C2.00147 4.88175 2.03088 4.94645 2.08676 4.99057L5.31617 7.70233L2.08676 10.4141C2.06047 10.4361 2.03924 10.4635 2.02452 10.4945C2.0098 10.5255 2.00194 10.5592 2.00147 10.5935V12.4376C2.00147 12.6376 2.23382 12.7464 2.38676 12.617Z" />
</svg>
