<svg xmlns="http://www.w3.org/2000/svg" width="25" height="25" viewBox="0 0 25 25" fill="none">
<path d="M10.2068 6.33827H0.0556641V0.322266H10.2068V6.33827Z" fill="#0050B3"/>
<path d="M10.2068 15.2323H0.0556641V9.21631H10.2068V15.2323Z" fill="#0050B3"/>
<path d="M10.2068 24.1268H0.0556641V18.1108H10.2068V24.1268Z" fill="#0050B3"/>
<path d="M24.9368 17.3H14.7856V7.14893H24.9368V17.3Z" fill="#0050B3"/>
<path d="M20.4741 12.2244H19.2465V6.57102C19.2465 5.12302 18.0679 3.94346 16.6199 3.94346H7.27588V2.7168H16.6199C18.7452 2.7168 20.4741 4.44569 20.4741 6.57102V12.2244Z" fill="#0050B3"/>
<path d="M16.6199 22.0051H7.27588V20.7776H16.6199C18.0679 20.7776 19.2465 19.5989 19.2465 18.1509V12.4976H20.4741V18.1509C20.4741 20.2762 18.7452 22.0051 16.6199 22.0051Z" fill="#0050B3"/>
</svg>