<svg xmlns="http://www.w3.org/2000/svg" id="Layer_1" viewBox="0 0 988 213"><defs><style>.cls-1{fill:#fff}.cls-2{fill:#ba50ff}</style></defs><path d="M629 89.6c-3.3-3.5-7.2-6.2-11.8-8.1s-9.6-2.9-15.1-2.9-10.4 1-14.9 2.9c-4.6 1.9-8.5 4.6-11.8 8.1s-5.9 7.6-7.8 12.5c-1.9 4.9-2.8 10.3-2.8 16.3s.9 11.4 2.7 16.4 4.4 9.2 7.6 12.7c3.3 3.5 7.2 6.2 11.8 8.2 4.6 1.9 9.6 2.9 15.2 2.9s10.8-1 15.4-2.9 8.5-4.6 11.8-8.2c3.3-3.5 5.8-7.7 7.5-12.7 1.7-5 2.6-10.4 2.6-16.4s-.9-11.4-2.7-16.3c-1.9-4.8-4.5-9-7.7-12.5Zm-15.5 44.7c-2.6 3.9-6.4 5.8-11.3 5.8s-8.7-1.9-11.4-5.8-4-9.2-4-15.8 1.3-11.9 4-15.7c2.7-3.8 6.5-5.7 11.4-5.7s8.7 1.9 11.3 5.7c2.6 3.8 4 9 4 15.7-.1 6.6-1.4 11.9-4 15.8ZM550.2 67.9c-8.1-5.3-19.7-8-34.9-8-4.2 0-9.1.2-14.6.6-5.6.4-10.8 1.1-15.8 2.1v95.8h22.9v-29.7h7.2c15.2 0 27-2.7 35.2-8.1s12.3-14.2 12.3-26.4c-.1-12.2-4.2-21-12.3-26.3Zm-17.4 38c-4 2.1-10 3.2-17.9 3.2h-7.2V79.8c1.2-.1 2.6-.2 4.2-.3 1.6-.1 3.2-.1 4.9-.1 3.3 0 6.3.2 9.1.7 2.7.4 5.1 1.2 7 2.3 1.9 1.1 3.4 2.6 4.4 4.5s1.5 4.2 1.5 7c0 5.9-2 9.9-6 12ZM307.7 72c-5-4.1-10.9-7.1-17.8-9-6.9-1.9-14.6-2.9-23.1-2.9-4 0-8.8.2-14.4.5s-10.9 1-16.1 1.9v93.7c5.1 1.1 10.4 1.7 15.7 2.1 5.3.3 10 .5 14 .5 8.8 0 16.7-1.1 23.7-3.1 7.1-2.1 13-5.2 17.9-9.4 4.9-4.2 8.7-9.5 11.4-15.9 2.7-6.4 4-11 4-19.6s-1.3-16.6-4-23c-2.5-6.5-6.3-11.7-11.3-15.8Zm-15.6 59.2c-5.4 5.6-13.7 8.4-24.8 8.4-1.9 0-3.6 0-4.9-.1-1.4 0-2.6-.1-3.6-.2V79.6c1.4-.2 3-.3 4.6-.4 1.6 0 3.2-.1 4.7-.1 11.2 0 19.3 2.7 24.5 8 5.1 5.3 7.7 13.2 7.7 23.6-.1 10-2.8 14.9-8.2 20.5ZM450.2 94.4c-1.3 4.3-2.6 8.7-4 13.2-1.4 4.4-2.8 8.7-4.2 12.9-1.4 4.2-2.8 8-4 11.4-1.3-3.4-2.7-7.2-4.1-11.4-1.4-4.2-2.8-8.5-4.2-12.9-1.4-4.4-2.7-8.8-4-13.2-1.3-4.3-2.4-8.4-3.4-12.1h-22.6c4.5 15.1 9.3 29 14.3 41.8s10 23.9 14.9 33.5h17.7c4.9-9.5 9.8-20.7 14.8-33.5s9.8-26.7 14.3-41.8h-22c-1.1 3.7-2.2 7.7-3.5 12.1ZM392.5 137.5c-.1 0-.2.1-.3.1-1.7.7-3.4 1.2-5.1 1.7-1.2.3-2.4.6-3.8.8-1.8.3-3.7.6-5.5.8-2 .2-4 .3-6 .3-6.1 0-11-1.3-14.6-3.9-3.6-2.6-5.7-6.1-6.1-10.4h48.3c.1-1.1.2-2.5.3-3.9.1-1.5.1-2.8.1-4.1 0-12.7-3.1-22.3-9.3-28.8-6.2-6.5-14.6-9.8-25.3-9.8-4.6 0-9 .9-13.4 2.6-4.3 1.7-8.2 4.2-11.5 7.6-3.3 3.3-6 7.5-8.1 12.5-2.1 5-3.1 10.8-3.1 17.5 0 5.5.8 10.7 2.4 15.4 1.6 4.8 4 8.9 7.3 12.4s7.4 6.2 12.4 8.2 10.9 3 17.7 3c2.7 0 5.3-.1 8-.4.6-.1 1.1-.1 1.7-.2 14.7-1.6 22.9-6 22.9-6l-5.7-17.1c-1.1.7-2.2 1.2-3.3 1.7ZM352.3 107c.6-1.8 1.5-3.3 2.6-4.6 1.1-1.3 2.6-2.4 4.3-3.2 1.7-.8 3.8-1.2 6.1-1.2 2.5 0 4.6.4 6.2 1.3 1.7.9 3 2 4.1 3.3 1.1 1.3 1.9 2.9 2.4 4.6s.8 3.5.9 5.3H351c.3-2 .7-3.8 1.3-5.5ZM696.4 63.9v17.7c-2.4-1.1-4.9-1.9-7.3-2.5-2.4-.6-5.1-.9-8.1-.9-5.5 0-10.3.9-14.6 2.8-4.2 1.9-7.8 4.5-10.8 8.1-2.9 3.5-5.2 7.8-6.7 12.8-1.6 5-2.3 10.7-2.3 16.9s.9 11.7 2.7 16.6 4.4 9.1 7.8 12.6c3.4 3.5 7.6 6.1 12.6 8s10.6 2.8 17 2.8c2.6 0 5.4-.1 8.3-.4 2.9-.2 5.7-.6 8.5-1s5.4-.9 8-1.4c2.5-.5 4.8-1.1 6.7-1.7V53.2l-21.8 10.7Zm0 75.6c-1.1.2-2.4.4-4.1.5-1.7.1-3.5.2-5.4.2-6 0-10.5-2.1-13.5-6.2s-4.5-9.5-4.5-16.3c0-14.1 5.2-21.1 15.5-21.1 2.2 0 4.5.3 6.7.9s4 1.3 5.3 2.2v39.8Z"/><path d="m73.4 158.6 77-144.5H123L58.9 134.4l-13.4-24.2 26.7-48.1H45.5l-26.7 48.1 26.7 48.1h.7l-.2.3h27.4zM163.3 62.7h-.6l.1-.3h-27.4l-77 144.5h27.4l64.1-120.3 13.4 24.2-26.7 48.1h26.7l26.7-48.1-26.7-48.1z" class="cls-2"/><rect width="180" height="81.82" x="768.95" y="77.18" rx="13.66" ry="13.66"/><path d="M805.48 134.53c0 1.35-.45 2.45-1.36 3.3s-2 1.27-3.27 1.27-2.41-.43-3.3-1.27c-.89-.85-1.33-1.95-1.33-3.3s.44-2.46 1.33-3.33c.89-.87 1.99-1.3 3.3-1.3s2.36.43 3.27 1.3 1.36 1.98 1.36 3.33ZM824.7 97.82c5.83 0 10.29 1.06 13.4 3.18 3.11 2.12 4.66 5.44 4.66 9.96 0 2.35-.41 4.37-1.24 6.05-.83 1.68-2.04 3.05-3.62 4.11s-3.51 1.84-5.79 2.34c-2.28.5-4.88.75-7.81.75h-3.65v14.12h-7.29V98.79c1.7-.39 3.58-.65 5.64-.78 2.06-.13 3.97-.2 5.7-.2Zm.52 6.31c-1.85 0-3.38.06-4.57.17v13.66h3.53c3.51 0 6.21-.49 8.1-1.48 1.89-.98 2.84-2.85 2.84-5.59 0-1.31-.25-2.41-.75-3.3a5.4 5.4 0 0 0-2.08-2.08c-.89-.5-1.94-.86-3.15-1.07a23.01 23.01 0 0 0-3.91-.32ZM860.47 97.82c5.79 0 10.22 1.06 13.29 3.18 3.07 2.12 4.6 5.36 4.6 9.73 0 5.44-2.68 9.13-8.05 11.06.73.89 1.56 1.97 2.49 3.24s1.87 2.65 2.84 4.14c.96 1.49 1.89 3.01 2.78 4.57.89 1.56 1.68 3.1 2.37 4.6h-8.16c-.73-1.39-1.53-2.79-2.37-4.2-.85-1.41-1.71-2.78-2.58-4.11s-1.73-2.58-2.58-3.76a85.49 85.49 0 0 0-2.37-3.15c-.54.04-1 .06-1.39.06h-4.63v15.17h-7.29V98.81c1.78-.39 3.67-.65 5.67-.78 2.01-.13 3.8-.2 5.38-.2Zm.52 6.31c-1.54 0-2.97.06-4.28.17v12.97h3.18c1.77 0 3.34-.09 4.69-.29 1.35-.19 2.48-.54 3.39-1.04.91-.5 1.59-1.18 2.06-2.03.46-.85.69-1.93.69-3.24 0-1.23-.23-2.28-.69-3.13-.46-.85-1.13-1.52-2-2.03s-1.9-.86-3.1-1.07c-1.2-.21-2.51-.32-3.94-.32ZM923.22 118.26c0 3.44-.51 6.46-1.53 9.09-1.02 2.62-2.41 4.82-4.17 6.57s-3.81 3.08-6.17 3.97c-2.35.89-4.86 1.33-7.53 1.33s-5.18-.44-7.55-1.33c-2.37-.89-4.44-2.21-6.19-3.97-1.76-1.76-3.15-3.95-4.2-6.57-1.04-2.62-1.56-5.65-1.56-9.09s.52-6.46 1.56-9.06 2.46-4.8 4.25-6.57c1.8-1.77 3.87-3.11 6.22-3.99 2.35-.89 4.84-1.33 7.47-1.33s5.11.44 7.47 1.33c2.35.89 4.41 2.22 6.17 3.99 1.76 1.78 3.15 3.97 4.2 6.57s1.56 5.63 1.56 9.06Zm-31.32 0c0 2.2.27 4.2.81 5.99.54 1.8 1.32 3.32 2.34 4.57 1.02 1.25 2.27 2.23 3.73 2.92 1.47.69 3.13 1.04 4.98 1.04s3.45-.35 4.92-1.04c1.47-.7 2.71-1.67 3.73-2.92s1.8-2.78 2.34-4.57c.54-1.79.81-3.79.81-5.99s-.27-4.2-.81-5.99c-.54-1.8-1.32-3.32-2.34-4.57a10.636 10.636 0 0 0-3.73-2.92c-1.47-.69-3.11-1.04-4.92-1.04s-3.51.35-4.98 1.04c-1.47.7-2.71 1.68-3.73 2.95s-1.8 2.8-2.34 4.57c-.54 1.78-.81 3.76-.81 5.96Z" class="cls-1"/></svg>
