<svg width="16" height="16" viewBox="0 0 16 16" fill="none" xmlns="http://www.w3.org/2000/svg">
  <path fill-rule="evenodd" clip-rule="evenodd" d="M5.02667 2.66666H6.64C6.65467 2.66666 6.66667 2.7212 6.66667 2.78787V3.75757C6.66667 3.82423 6.65467 3.87878 6.64 3.87878H5.02667C5.012 3.87878 5 3.82423 5 3.75757V2.78787C5 2.7212 5.012 2.66666 5.02667 2.66666ZM5.02667 12.1212H6.64C6.65467 12.1212 6.66667 12.1757 6.66667 12.2424V13.2121C6.66667 13.2788 6.65467 13.3333 6.64 13.3333H5.02667C5.012 13.3333 5 13.2788 5 13.2121V12.2424C5 12.1757 5.012 12.1212 5.02667 12.1212ZM5.02667 7.39393H6.64C6.65467 7.39393 6.66667 7.44847 6.66667 7.51514V8.48484C6.66667 8.55151 6.65467 8.60605 6.64 8.60605H5.02667C5.012 8.60605 5 8.55151 5 8.48484V7.51514C5 7.44847 5.012 7.39393 5.02667 7.39393ZM9.36 2.66666H10.9733C10.988 2.66666 11 2.7212 11 2.78787V3.75757C11 3.82423 10.988 3.87878 10.9733 3.87878H9.36C9.34533 3.87878 9.33333 3.82423 9.33333 3.75757V2.78787C9.33333 2.7212 9.34533 2.66666 9.36 2.66666ZM9.36 12.1212H10.9733C10.988 12.1212 11 12.1757 11 12.2424V13.2121C11 13.2788 10.988 13.3333 10.9733 13.3333H9.36C9.34533 13.3333 9.33333 13.2788 9.33333 13.2121V12.2424C9.33333 12.1757 9.34533 12.1212 9.36 12.1212ZM9.36 7.39393H10.9733C10.988 7.39393 11 7.44847 11 7.51514V8.48484C11 8.55151 10.988 8.60605 10.9733 8.60605H9.36C9.34533 8.60605 9.33333 8.55151 9.33333 8.48484V7.51514C9.33333 7.44847 9.34533 7.39393 9.36 7.39393Z" fill="currentColor"/>
</svg>
