<svg width="88" height="83" viewBox="0 0 88 83" fill="none" xmlns="http://www.w3.org/2000/svg">
<path d="M37.1793 82.5225C57.529 82.5225 74.0257 79.4401 74.0257 75.6377C74.0257 71.8354 57.529 68.7529 37.1793 68.7529C16.8296 68.7529 0.332886 71.8354 0.332886 75.6377C0.332886 79.4401 16.8296 82.5225 37.1793 82.5225Z" fill="#B9C7DB"/>
<path fill-rule="evenodd" clip-rule="evenodd" d="M66.6559 55.4117L53.6531 39.4089C53.0292 38.6557 52.1172 38.1997 51.1569 38.1997H23.2002C22.2404 38.1997 21.3284 38.6557 20.7045 39.4089L7.70227 55.4117V63.772H66.6564V55.4117H66.6559Z" fill="#465E75"/>
<path fill-rule="evenodd" clip-rule="evenodd" d="M62.886 64.4008L51.5235 50.753C50.9794 50.097 50.1609 49.7383 49.3234 49.7383H24.9439C24.107 49.7383 23.2879 50.097 22.7439 50.753L11.3813 64.4008V71.8964H62.886V64.4008Z" fill="#B9C7DB"/>
<path fill-rule="evenodd" clip-rule="evenodd" d="M18.7191 17.5454H55.6394C56.216 17.5454 56.7689 17.7744 57.1766 18.1821C57.5843 18.5898 57.8134 19.1428 57.8134 19.7193V70.4498C57.8134 71.0263 57.5843 71.5793 57.1766 71.987C56.7689 72.3947 56.216 72.6237 55.6394 72.6237H18.7191C18.1425 72.6237 17.5896 72.3947 17.1819 71.987C16.7742 71.5793 16.5452 71.0263 16.5452 70.4498V19.7193C16.5452 19.1428 16.7742 18.5898 17.1819 18.1821C17.5896 17.7744 18.1425 17.5454 18.7191 17.5454V17.5454Z" fill="#B9C7DB"/>
<path fill-rule="evenodd" clip-rule="evenodd" d="M23.5278 22.9546H50.8307C51.1189 22.9546 51.3954 23.0691 51.5993 23.273C51.8031 23.4768 51.9176 23.7533 51.9176 24.0415V37.6051C51.9176 37.8934 51.8031 38.1699 51.5993 38.3737C51.3954 38.5776 51.1189 38.6921 50.8307 38.6921H23.5278C23.2395 38.6921 22.963 38.5776 22.7592 38.3737C22.5553 38.1699 22.4408 37.8934 22.4408 37.6051V24.0415C22.4408 23.7533 22.5553 23.4768 22.7592 23.273C22.963 23.0691 23.2395 22.9546 23.5278 22.9546ZM23.6702 44.5926H50.6883C51.0143 44.5926 51.327 44.7221 51.5576 44.9527C51.7881 45.1832 51.9176 45.4959 51.9176 45.822C51.9176 46.148 51.7881 46.4607 51.5576 46.6913C51.327 46.9218 51.0143 47.0513 50.6883 47.0513H23.6702C23.3441 47.0513 23.0314 46.9218 22.8009 46.6913C22.5703 46.4607 22.4408 46.148 22.4408 45.822C22.4408 45.4959 22.5703 45.1832 22.8009 44.9527C23.0314 44.7221 23.3441 44.5926 23.6702 44.5926ZM23.6702 50.9856H50.6883C51.0144 50.9856 51.3272 51.1151 51.5578 51.3457C51.7884 51.5763 51.9179 51.8891 51.9179 52.2152C51.9179 52.5413 51.7884 52.8541 51.5578 53.0847C51.3272 53.3153 51.0144 53.4448 50.6883 53.4448H23.6702C23.3441 53.4448 23.0313 53.3153 22.8007 53.0847C22.5701 52.8541 22.4406 52.5413 22.4406 52.2152C22.4406 51.8891 22.5701 51.5763 22.8007 51.3457C23.0313 51.1151 23.3441 50.9856 23.6702 50.9856ZM66.5362 74.6279C66.115 76.297 64.6356 77.541 62.8759 77.541H11.4826C9.72281 77.541 8.24346 76.2964 7.8228 74.6279C7.74257 74.3099 7.70205 73.9831 7.70215 73.6551V55.4122H22.0055C23.5854 55.4122 24.8588 56.7426 24.8588 58.3578V58.3796C24.8588 59.9943 26.1468 61.2981 27.7267 61.2981H46.6317C48.2116 61.2981 49.4997 59.9823 49.4997 58.3671V58.3606C49.4997 56.7453 50.7731 55.4117 52.353 55.4117H66.6563V73.6557C66.6563 73.991 66.6145 74.3165 66.5362 74.6279Z" fill="#8A9BB5"/>
<path fill-rule="evenodd" clip-rule="evenodd" d="M68.3339 18.427L64.6219 19.8672C64.5266 19.9043 64.4227 19.9137 64.3222 19.8943C64.2217 19.875 64.1288 19.8277 64.054 19.7579C63.9792 19.688 63.9257 19.5985 63.8995 19.4996C63.8734 19.4007 63.8757 19.2964 63.9061 19.1987L64.9589 15.8253C63.5518 14.2253 62.7257 12.2743 62.7257 10.1688C62.7257 4.73676 68.2247 0.333496 75.0084 0.333496C81.7905 0.333496 87.29 4.73676 87.29 10.1688C87.29 15.6009 81.791 20.0041 75.0079 20.0041C72.547 20.0041 70.2556 19.4248 68.3339 18.427Z" fill="#B9C7DB"/>
<path d="M79.8461 11.945C80.7013 11.945 81.3945 11.2601 81.3945 10.4151C81.3945 9.57021 80.7013 8.88525 79.8461 8.88525C78.991 8.88525 78.2977 9.57021 78.2977 10.4151C78.2977 11.2601 78.991 11.945 79.8461 11.945Z" fill="white"/>
<path fill-rule="evenodd" clip-rule="evenodd" d="M71.718 11.7538H68.6212L70.1962 9.07666L71.718 11.7538ZM73.6533 9.07666H76.3626V11.7538H73.6533V9.07666Z" fill="white"/>
</svg>
