<svg width="16" height="16" viewBox="0 0 16 16" fill="none" xmlns="http://www.w3.org/2000/svg">
<g id="Icon / Outlined / NoEditing">
<path id="Vector" fill-rule="evenodd" clip-rule="evenodd" d="M2.52717 14.0858C2.55842 14.0858 2.58967 14.0827 2.62092 14.078L5.24905 13.6171C5.2803 13.6108 5.30999 13.5968 5.33186 13.5733L7.95791 10.9473L7.12151 10.1107L4.72561 12.5062L3.33655 12.7515L3.5803 11.3608L5.97629 8.96531L5.13941 8.12828L2.51311 10.7546C2.48967 10.778 2.47561 10.8062 2.46936 10.8374L2.00842 13.4655C1.99322 13.5492 1.99865 13.6354 2.02425 13.7165C2.04984 13.7976 2.09482 13.8713 2.1553 13.9312C2.25842 14.0312 2.38811 14.0858 2.52717 14.0858ZM9.64475 9.26042L13.1903 12.8049C13.2388 12.8549 13.2372 12.9346 13.1872 12.9831L12.5075 13.6377C12.4591 13.6846 12.3809 13.6846 12.3325 13.6362L2.03633 3.34153C1.98789 3.2931 1.98789 3.21341 2.03633 3.16497L2.70352 2.49778C2.75195 2.44935 2.88008 2.49778 2.88008 2.49778L6.82558 6.4421L11.2224 2.04525C11.2521 2.01556 11.2911 1.99994 11.3333 1.99994C11.3755 1.99994 11.4146 2.01556 11.4443 2.04525L14.0411 4.64369C14.0556 4.65814 14.0671 4.67531 14.075 4.69422C14.0828 4.71312 14.0868 4.73338 14.0868 4.75385C14.0868 4.77431 14.0828 4.79457 14.075 4.81347C14.0671 4.83238 14.0556 4.84955 14.0411 4.864L9.64475 9.26042ZM7.66283 7.2791L11.3333 3.60931L12.4786 4.75463L8.80832 8.42424L7.66283 7.2791Z" fill="#465E75"/>
</g>
</svg>
