<svg xmlns="http://www.w3.org/2000/svg" fill="none" viewBox="0 0 234 127"><g clip-path="url(#a)"><path fill="currentColor" d="M234 0H0v127h234V0Z"/><g opacity=".5"><path fill="url(#b)" d="M138.11-75.81H-22.4V84.7h160.51V-75.81Z" opacity=".3"/><path fill="url(#c)" d="M229.5 5.02h-33.43v33.43h33.43V5.02Z"/><path fill="url(#d)" d="M248.83-13.96H215.4v33.43h33.43v-33.43Z"/><path fill="url(#e)" d="M296.86 64.15H171.15v125.71h125.71V64.15Z" opacity=".4"/><path fill="url(#f)" d="M21.39-29.87h-68.62v68.62h68.62v-68.62Z"/><path fill="url(#g)" d="M104.38-58.85H-31.57V9.77h135.95v-68.62Z"/><path fill="url(#h)" d="M222.99 11.62H117v105.99h105.99V11.62Z" opacity=".3"/><path fill="url(#i)" d="M191.59 43.28H-3.68v135.17h195.27V43.28Z"/></g><path fill="url(#j)" d="M237.77-6.27H-5.5v138.64h243.27V-6.27Z"/></g><defs><radialGradient id="b" cx="0" cy="0" r="1" gradientTransform="translate(155.09 138.46) scale(200.1)" gradientUnits="userSpaceOnUse"><stop/><stop offset=".03" stop-opacity=".95"/><stop offset="1" stop-opacity="0"/></radialGradient><radialGradient id="c" cx="0" cy="0" r="1" gradientTransform="matrix(95.7 0 0 95.7 257.83 2.52)" gradientUnits="userSpaceOnUse"><stop/><stop offset=".03" stop-opacity=".95"/><stop offset="1" stop-opacity="0"/></radialGradient><radialGradient id="d" cx="0" cy="0" r="1" gradientTransform="translate(227.57 -39.16) scale(83.44)" gradientUnits="userSpaceOnUse"><stop/><stop offset=".03" stop-opacity=".95"/><stop offset="1" stop-opacity="0"/></radialGradient><radialGradient id="e" cx="0" cy="0" r="1" gradientTransform="translate(186.41 -2.52) scale(164.3)" gradientUnits="userSpaceOnUse"><stop/><stop offset=".03" stop-opacity=".95"/><stop offset="1" stop-opacity="0"/></radialGradient><radialGradient id="f" cx="0" cy="0" r="1" gradientTransform="translate(106.22 -3.59) scale(137.15)" gradientUnits="userSpaceOnUse"><stop/><stop offset=".03" stop-opacity=".95"/><stop offset="1" stop-opacity="0"/></radialGradient><radialGradient id="g" cx="0" cy="0" r="1" gradientTransform="matrix(271.557 0 0 137.15 272.226 -32.58)" gradientUnits="userSpaceOnUse"><stop/><stop offset=".03" stop-opacity=".95"/><stop offset="1" stop-opacity="0"/></radialGradient><radialGradient id="h" cx="0" cy="0" r="1" gradientTransform="translate(222.26 135.27) scale(185.4)" gradientUnits="userSpaceOnUse"><stop/><stop offset=".03" stop-opacity=".95"/><stop offset="1" stop-opacity="0"/></radialGradient><radialGradient id="i" cx="0" cy="0" r="1" gradientTransform="translate(264.67 43.84) scale(260.81)" gradientUnits="userSpaceOnUse"><stop/><stop offset=".03" stop-opacity=".95"/><stop offset="1" stop-opacity="0"/></radialGradient><radialGradient id="j" cx="0" cy="0" r="1" gradientTransform="translate(-24.71 -51.22) scale(204.82)" gradientUnits="userSpaceOnUse"><stop/><stop offset=".03" stop-opacity=".95"/><stop offset="1" stop-opacity="0"/></radialGradient><clipPath id="a"><path fill="#fff" d="M0 0h234v127H0z"/></clipPath></defs></svg>
