<svg width="100" height="100" viewBox="0 0 100 100" fill="none" xmlns="http://www.w3.org/2000/svg">
<g clip-path="url(#clip0_441_247)">
<path d="M15.9508 49.1272C15.9508 51.8615 15.7321 52.7521 15.1696 53.4083C14.5436 53.972 13.7309 54.2837 12.8884 54.2833L13.1072 55.8457C14.4132 55.8634 15.6805 55.402 16.6696 54.5489C17.2017 53.8999 17.5977 53.1504 17.834 52.3451C18.0702 51.5398 18.1418 50.6951 18.0445 49.8615V39.5181H15.9508V49.0647V49.1272Z" fill="#4E4E4E"/>
<path d="M31.565 47.8945C31.565 49.0664 31.565 50.1132 31.6588 51.0194H29.7995L29.6745 49.1601C29.2856 49.818 28.7294 50.3611 28.0625 50.7344C27.3956 51.1076 26.6418 51.2976 25.8777 51.2851C24.0652 51.2851 21.9091 50.3007 21.9091 46.2852V39.6135H24.0028V45.8633C24.0028 48.0352 24.6746 49.4882 26.5652 49.4882C26.9541 49.4924 27.34 49.4189 27.7002 49.272C28.0604 49.125 28.3876 48.9077 28.6626 48.6326C28.9377 48.3576 29.155 48.0304 29.302 47.6702C29.4489 47.31 29.5224 46.9242 29.5182 46.5352V39.5354H31.6119V47.832L31.565 47.8945Z" fill="#4E4E4E"/>
<path d="M35.5336 43.331C35.5336 41.8779 35.5336 40.6904 35.4398 39.6123H37.3148L37.4085 41.5654C37.8262 40.8598 38.4276 40.2807 39.1485 39.89C39.8695 39.4993 40.6829 39.3115 41.5021 39.3467C44.2833 39.3467 46.377 41.6748 46.377 45.1434C46.377 49.237 43.8614 51.2682 41.1428 51.2682C40.4469 51.2993 39.7549 51.1502 39.1335 50.8354C38.5122 50.5207 37.9826 50.0508 37.596 49.4714V55.7212H35.5336V43.3778V43.331ZM37.596 46.3778C37.6017 46.6613 37.6331 46.9437 37.6898 47.2215C37.867 47.9152 38.2706 48.5301 38.8366 48.9687C39.4025 49.4073 40.0986 49.6447 40.8147 49.6433C43.0177 49.6433 44.3146 47.8465 44.3146 45.2372C44.3146 42.956 43.0959 41.0029 40.8928 41.0029C40.021 41.0743 39.2051 41.4612 38.5982 42.0912C37.9912 42.7211 37.6349 43.5508 37.596 44.4247V46.3778Z" fill="#4E4E4E"/>
<path d="M50.1076 39.6013L52.6232 46.3355C52.8888 47.0855 53.17 47.9917 53.3575 48.6636C53.5762 47.9761 53.8106 47.1011 54.0919 46.2886L56.373 39.6013H58.5761L55.4512 47.7261C53.8887 51.6322 52.9356 53.6478 51.4982 54.8665C50.7742 55.5278 49.8915 55.9907 48.9358 56.2102L48.4201 54.4603C49.0884 54.2407 49.7088 53.8961 50.2482 53.4447C51.0105 52.8235 51.6154 52.0312 52.0138 51.1322C52.0991 50.9766 52.1572 50.8075 52.1857 50.6322C52.1679 50.4437 52.1204 50.2591 52.045 50.0854L47.7952 39.5701H50.0763L50.1076 39.6013Z" fill="#4E4E4E"/>
<path d="M64.1342 36.324V39.6051H67.1341V41.1676H64.1342V47.3237C64.1342 48.7299 64.5404 49.5423 65.6966 49.5423C66.1073 49.5491 66.517 49.5018 66.9153 49.4017L67.0091 50.9642C66.4118 51.1711 65.7815 51.2664 65.1498 51.2454C64.7314 51.2716 64.3123 51.207 63.9212 51.0559C63.5301 50.9049 63.1764 50.6711 62.8842 50.3704C62.2478 49.5192 61.9575 48.4585 62.0717 47.4018V41.152H60.2905V39.5895H62.103V36.8083L64.1342 36.324Z" fill="#4E4E4E"/>
<path d="M70.9908 45.6761C70.9484 46.206 71.0216 46.7388 71.2052 47.2376C71.3889 47.7365 71.6787 48.1895 72.0546 48.5654C72.4304 48.9413 72.8835 49.231 73.3823 49.4147C73.8812 49.5984 74.4139 49.6715 74.9438 49.6291C76.0156 49.6531 77.0804 49.4508 78.0687 49.0354L78.4281 50.5978C77.2153 51.0974 75.9112 51.3369 74.6001 51.3009C73.8357 51.3533 73.0691 51.2396 72.3528 50.9678C71.6365 50.6961 70.9874 50.2726 70.4501 49.7264C69.9129 49.1802 69.5001 48.5243 69.2401 47.8036C68.9801 47.0829 68.8791 46.3145 68.944 45.5511C68.944 42.1137 70.9908 39.395 74.3345 39.395C78.0844 39.395 79.0218 42.6762 79.0218 44.7699C79.0419 45.0925 79.0419 45.416 79.0218 45.7386H70.944L70.9908 45.6761ZM77.1157 44.1136C77.176 43.6959 77.146 43.2701 77.0278 42.8649C76.9097 42.4598 76.706 42.0846 76.4306 41.7648C76.1552 41.445 75.8145 41.1879 75.4313 41.0109C75.0482 40.8339 74.6315 40.7411 74.2095 40.7387C73.351 40.8009 72.5467 41.1814 71.9542 41.8057C71.3617 42.43 71.0237 43.2531 71.0065 44.1136H77.1157Z" fill="#4E4E4E"/>
<path d="M82.1986 43.1545C82.1986 41.8108 82.1986 40.6546 82.1049 39.5921H83.9798V41.8265H84.0735C84.2703 41.1369 84.677 40.5256 85.2369 40.0777C85.7969 39.6297 86.4825 39.3671 87.1985 39.3265C87.3955 39.3007 87.5951 39.3007 87.7922 39.3265V41.2796C87.5534 41.2519 87.3122 41.2519 87.0735 41.2796C86.3642 41.3071 85.6892 41.5918 85.1745 42.0806C84.6598 42.5694 84.3407 43.2288 84.2767 43.9358C84.2182 44.2555 84.1869 44.5795 84.1829 44.9045V50.9824H82.1205V43.1702L82.1986 43.1545Z" fill="#4E4E4E"/>
<path d="M81.281 8.2187C81.3451 9.26837 81.0954 10.3134 80.5635 11.2206C80.0317 12.1278 79.2418 12.8562 78.2946 13.313C77.3473 13.7697 76.2855 13.9341 75.2445 13.7853C74.2035 13.6365 73.2303 13.1811 72.4489 12.4772C71.6676 11.7734 71.1135 10.8529 70.8571 9.83295C70.6008 8.81304 70.6539 7.73991 71.0096 6.75027C71.3653 5.76064 72.0076 4.89928 72.8545 4.27594C73.7015 3.6526 74.7149 3.29548 75.7655 3.25009C76.4543 3.21219 77.1439 3.31083 77.7945 3.54035C78.4451 3.76987 79.0439 4.12574 79.5564 4.58749C80.069 5.04924 80.4852 5.60776 80.7812 6.23094C81.0772 6.85411 81.247 7.52966 81.281 8.2187Z" fill="#767677"/>
<path d="M50.3856 69.4093C36.3236 69.4093 23.9645 64.3626 17.5741 56.9097C20.0536 63.6144 24.5276 69.3986 30.3939 73.4838C36.2601 77.569 43.2372 79.7588 50.3856 79.7588C57.5341 79.7588 64.5111 77.569 70.3774 73.4838C76.2436 69.3986 80.7176 63.6144 83.1972 56.9097C76.8224 64.3626 64.5102 69.4093 50.3856 69.4093Z" fill="#F37726"/>
<path d="M50.3856 20.945C64.4477 20.945 76.8068 25.9918 83.1972 33.4446C80.7176 26.7399 76.2436 20.9557 70.3774 16.8706C64.5111 12.7854 57.5341 10.5955 50.3856 10.5955C43.2372 10.5955 36.2601 12.7854 30.3939 16.8706C24.5276 20.9557 20.0536 26.7399 17.5741 33.4446C23.9645 25.9761 36.2611 20.945 50.3856 20.945Z" fill="#F37726"/>
<path d="M31.0276 83.9128C31.11 85.2349 30.7971 86.5517 30.1285 87.6953C29.4599 88.8389 28.466 89.7576 27.2735 90.3344C26.0809 90.9111 24.7437 91.1198 23.4321 90.9338C22.1205 90.7478 20.894 90.1755 19.9088 89.29C18.9236 88.4044 18.2243 87.2456 17.9001 85.9612C17.5758 84.6768 17.6413 83.3249 18.0881 82.0779C18.5349 80.8308 19.3429 79.745 20.409 78.9587C21.4752 78.1725 22.7512 77.7214 24.0746 77.663C24.9416 77.6166 25.8092 77.7415 26.6279 78.0305C27.4465 78.3196 28.2002 78.767 28.8459 79.3474C29.4916 79.9278 30.0166 80.6297 30.3909 81.4131C30.7653 82.1964 30.9816 83.0459 31.0276 83.9128Z" fill="#9E9E9E"/>
<path d="M19.1723 19.2466C18.4146 19.2675 17.6676 19.064 17.0253 18.6615C16.383 18.259 15.874 17.6756 15.5624 16.9846C15.2507 16.2936 15.1504 15.5259 15.2739 14.778C15.3975 14.0302 15.7394 13.3355 16.2566 12.7815C16.7739 12.2274 17.4435 11.8386 18.1811 11.6641C18.9187 11.4895 19.6915 11.537 20.4022 11.8005C21.113 12.064 21.7299 12.5317 22.1755 13.1449C22.6211 13.7581 22.8755 14.4894 22.9066 15.2467C22.9362 16.2708 22.5607 17.2653 21.8615 18.0141C21.1624 18.763 20.196 19.2059 19.1723 19.2466Z" fill="#616262"/>
<circle cx="74.5" cy="75.5" r="22.5" fill="#F37726"/>
<path d="M74.5 94C78.6008 93.9998 82.5854 92.6376 85.8282 90.1274C89.071 87.6172 91.3883 84.1011 92.4162 80.1312M74.5 94C70.3992 93.9998 66.4146 92.6376 63.1718 90.1274C59.929 87.6172 57.6117 84.1011 56.5838 80.1312M74.5 94C79.608 94 83.75 85.7161 83.75 75.5C83.75 65.2839 79.608 57 74.5 57M74.5 94C69.3919 94 65.25 85.7161 65.25 75.5C65.25 65.2839 69.3919 57 74.5 57M92.4162 80.1312C92.7965 78.6512 93 77.0992 93 75.5C93.0051 72.3182 92.1857 69.1894 90.6217 66.4186M92.4162 80.1312C86.9344 83.1701 80.7678 84.7598 74.5 84.75C68.0003 84.75 61.8933 83.0747 56.5838 80.1312M56.5838 80.1312C56.1948 78.6182 55.9986 77.0622 56 75.5C56 72.2008 56.8633 69.1011 58.3783 66.4186M74.5 57C77.7812 56.9986 81.0036 57.8702 83.8367 59.5254C86.6698 61.1805 89.0116 63.5596 90.6217 66.4186M74.5 57C71.2188 56.9986 67.9964 57.8702 65.1633 59.5254C62.3302 61.1805 59.9884 63.5596 58.3783 66.4186M90.6217 66.4186C86.1461 70.2952 80.4211 72.4252 74.5 72.4167C68.3374 72.4167 62.7011 70.1556 58.3783 66.4186" stroke="white" stroke-width="2.5" stroke-linecap="round" stroke-linejoin="round"/>
</g>
<defs>
<clipPath id="clip0_441_247">
<rect width="100" height="100" fill="white"/>
</clipPath>
</defs>
</svg>
