<svg width="20" height="20" viewBox="0 0 20 20" fill="none" xmlns="http://www.w3.org/2000/svg">
<path fill-rule="evenodd" clip-rule="evenodd" d="M9.42113 0.427526C9.58063 0.351329 9.75386 0.307492 9.93067 0.298586C10.1531 0.28734 10.3747 0.331677 10.5754 0.427526L17.5292 3.74796C17.7092 3.8339 17.8673 3.95895 17.9919 4.11382C18.1164 4.26869 18.2042 4.4494 18.2486 4.64253L19.9667 12.1051C20.0111 12.2983 20.0111 12.4989 19.9666 12.6922C19.9221 12.8854 19.8343 13.0661 19.7097 13.2211L14.8989 19.2057C14.7742 19.3603 14.616 19.4852 14.4361 19.5709C14.2561 19.6567 14.059 19.7011 13.8593 19.701L6.14161 19.7027C5.94189 19.7028 5.74472 19.6582 5.56476 19.5723C5.38479 19.4864 5.22666 19.3614 5.10208 19.2065L0.289506 13.2228C0.262601 13.1891 0.237375 13.1541 0.213921 13.1179C0.11719 12.9699 0.0513745 12.8042 0.0203681 12.6305C-0.0106384 12.4568 -0.00620551 12.2788 0.0334044 12.1068L1.74875 4.64431C1.79322 4.45118 1.88098 4.27047 2.00552 4.1156C2.13007 3.96073 2.28819 3.83568 2.46815 3.74973L9.42113 0.427526ZM9.54539 2.51654C9.54536 2.23128 9.74872 2.00003 9.99953 2C10.2503 1.99997 10.4536 2.23128 10.4537 2.51654C10.4537 2.53089 10.454 2.54699 10.4543 2.56346C10.4549 2.59338 10.4555 2.62453 10.4546 2.64865C10.4507 2.75719 10.4341 2.84893 10.4172 2.94232C10.4085 2.99049 10.3997 3.0391 10.3925 3.09069L10.3896 3.11536C10.3527 3.42881 10.3218 3.69043 10.3411 3.93403C10.3566 4.04199 10.4119 4.0936 10.4647 4.14293C10.4731 4.15076 10.4815 4.15854 10.4896 4.16648C10.4909 4.20017 10.4962 4.31214 10.5002 4.37408C11.9442 4.50539 13.2852 5.18134 14.2702 6.23859L14.4429 6.11243C14.4499 6.11285 14.4578 6.11348 14.4665 6.11416C14.5315 6.11928 14.6409 6.12789 14.7185 6.08164C14.9168 5.94496 15.0979 5.75664 15.3147 5.53121L15.3308 5.51444C15.365 5.47729 15.3962 5.44074 15.4271 5.40453C15.4888 5.33216 15.5494 5.26118 15.6307 5.18962C15.6507 5.17192 15.6783 5.14991 15.7037 5.12958C15.7135 5.12175 15.7229 5.11416 15.7316 5.10717C15.9494 4.92928 16.2525 4.94819 16.4089 5.14889C16.5653 5.3496 16.5152 5.65641 16.2973 5.8343C16.2871 5.84272 16.2758 5.85222 16.2643 5.86196C16.2412 5.88149 16.2169 5.90199 16.1974 5.91674C16.1127 5.98073 16.0324 6.02428 15.9509 6.06848C15.9079 6.09185 15.8644 6.11539 15.8199 6.14223L15.8195 6.14245C15.5481 6.31407 15.323 6.45638 15.1445 6.62798C15.0714 6.70798 15.0664 6.78431 15.0616 6.85751C15.0608 6.86882 15.0601 6.88005 15.0591 6.89121C15.047 6.90262 15.0201 6.92719 14.9902 6.9545C14.9581 6.98392 14.9224 7.01651 14.898 7.03922C15.2895 7.63563 15.583 8.31257 15.749 9.05272C15.9136 9.78604 15.9392 10.519 15.8441 11.2232L16.0275 11.2778C16.0314 11.2834 16.0357 11.2899 16.0406 11.2972C16.0768 11.3517 16.1395 11.4461 16.2236 11.4795C16.4549 11.554 16.715 11.5819 17.0282 11.6155L17.0377 11.6165C17.089 11.6209 17.1379 11.6229 17.1863 11.6248C17.2788 11.6285 17.3698 11.6322 17.4734 11.6523C17.497 11.6569 17.5274 11.6646 17.5564 11.6719C17.5738 11.6764 17.5907 11.6807 17.6054 11.6841C17.8731 11.7502 18.045 12.0021 17.9897 12.2503C17.9343 12.4985 17.6728 12.6494 17.4035 12.59C17.4026 12.5898 17.4014 12.5896 17.4002 12.5895C17.399 12.5894 17.3978 12.5892 17.3968 12.589C17.3952 12.5886 17.3937 12.5881 17.3922 12.5875C17.3909 12.5869 17.3895 12.5864 17.388 12.586C17.3745 12.583 17.3597 12.58 17.3448 12.5769C17.3184 12.5715 17.2916 12.566 17.2706 12.5602C17.1685 12.5322 17.0848 12.4952 16.9999 12.4575C16.9556 12.4379 16.9109 12.4181 16.863 12.3993L16.8493 12.3942C16.5549 12.2862 16.31 12.1962 16.0712 12.1609C15.965 12.1523 15.9036 12.1959 15.8449 12.2377C15.8356 12.2443 15.8263 12.2509 15.817 12.2572C15.7838 12.2504 15.6817 12.2319 15.6229 12.2225C15.1877 13.6224 14.2611 14.8345 13.0048 15.5939C13.0118 15.6111 13.0203 15.6345 13.0292 15.659C13.0481 15.7109 13.0688 15.7679 13.0805 15.7816C13.0765 15.7924 13.0723 15.8032 13.068 15.8141C13.0414 15.8816 13.0138 15.9518 13.0456 16.0558C13.1337 16.2898 13.2763 16.5185 13.4483 16.7938C13.4767 16.8373 13.5054 16.8774 13.5339 16.9171C13.5886 16.9935 13.6424 17.0686 13.6918 17.1643C13.7043 17.1886 13.7197 17.2218 13.7337 17.2522C13.7398 17.2655 13.7457 17.2783 13.751 17.2895C13.8678 17.5451 13.7821 17.8395 13.5579 17.9501C13.332 18.0615 13.051 17.9438 12.9301 17.6868C12.9249 17.6759 12.9191 17.6639 12.9131 17.6515C12.8991 17.6226 12.8841 17.5917 12.8738 17.5676C12.8312 17.4677 12.807 17.3772 12.7823 17.285C12.7698 17.2381 12.7571 17.1907 12.7418 17.1415L12.7376 17.1288C12.6364 16.8252 12.5524 16.5732 12.4303 16.3597C12.3703 16.2689 12.2985 16.2468 12.2297 16.2256C12.2192 16.2224 12.2087 16.2191 12.1984 16.2157C12.191 16.2025 12.173 16.1692 12.1533 16.1327C12.135 16.0988 12.1153 16.0622 12.1014 16.0369C11.8505 16.1339 11.591 16.2148 11.3222 16.2773C10.1438 16.5512 8.96415 16.4401 7.91029 16.026L7.80743 16.2167C7.73087 16.2377 7.65702 16.259 7.61172 16.3143C7.49548 16.4562 7.42832 16.6585 7.35696 16.8735C7.32678 16.9644 7.29585 17.0576 7.26013 17.1494C7.24461 17.1995 7.23189 17.2476 7.21928 17.2953C7.19514 17.3866 7.1714 17.4765 7.12913 17.5756C7.11938 17.5984 7.1052 17.6274 7.09171 17.6549C7.08505 17.6685 7.07855 17.6818 7.07285 17.6938C7.07275 17.694 7.0729 17.6944 7.07288 17.6946C7.07288 17.6947 7.07287 17.6947 7.07285 17.6948C7.07276 17.695 7.07256 17.6951 7.07236 17.6953C7.07217 17.6954 7.07197 17.6956 7.07188 17.6958C6.95068 17.9519 6.67063 18.0692 6.44501 17.958C6.2208 17.8475 6.13519 17.5531 6.25191 17.2974C6.25819 17.2841 6.26521 17.2686 6.27245 17.2525C6.2852 17.2243 6.29867 17.1945 6.31013 17.1723C6.35981 17.076 6.4139 17.0002 6.46892 16.9231C6.49709 16.8837 6.5255 16.8439 6.55369 16.8008C6.72562 16.5254 6.87661 16.2785 6.96476 16.0445C6.9869 15.9668 6.95411 15.8603 6.92438 15.7816L7.00686 15.579C5.79801 14.8457 4.84334 13.6772 4.3878 12.2314L4.18984 12.2662C4.18383 12.2627 4.17714 12.2588 4.16984 12.2544C4.11268 12.2205 4.01861 12.1646 3.92881 12.1718C3.68985 12.2072 3.44466 12.2972 3.14998 12.4054L3.13698 12.4102C3.08991 12.4287 3.04593 12.448 3.00236 12.4672C2.91661 12.5049 2.83243 12.5419 2.72942 12.5701C2.70615 12.5765 2.67575 12.5831 2.64666 12.5894C2.63469 12.592 2.62294 12.5945 2.612 12.597C2.61053 12.5973 2.60915 12.5979 2.60777 12.5984C2.6063 12.599 2.60483 12.5996 2.60327 12.5999C2.60124 12.6004 2.59842 12.6005 2.59647 12.6009C2.32719 12.6603 2.06573 12.5094 2.01036 12.2612C1.955 12.0131 2.12696 11.7612 2.39463 11.695C2.39663 11.6945 2.39935 11.6935 2.40143 11.693L2.40531 11.692C2.41675 11.6893 2.42914 11.6862 2.44181 11.683C2.47127 11.6757 2.50228 11.6679 2.52661 11.6632C2.63024 11.6431 2.72122 11.6395 2.81362 11.6357C2.86212 11.6338 2.911 11.6318 2.96231 11.6275L2.97262 11.6264C3.2855 11.5928 3.54532 11.5649 3.77646 11.4904C3.84197 11.4629 3.90494 11.3781 3.9533 11.3131C3.95963 11.3046 3.96571 11.2964 3.97151 11.2887L4.1617 11.2321C3.94859 9.72134 4.30921 8.23861 5.08842 7.03822L4.94286 6.90512C4.94184 6.89877 4.94079 6.89151 4.93963 6.88351C4.93022 6.81845 4.91375 6.70469 4.85164 6.63691C4.67304 6.46525 4.44787 6.32288 4.17626 6.15117C4.13204 6.12455 4.08909 6.10117 4.04652 6.07799C3.96495 6.03359 3.88477 5.98994 3.79975 5.92568C3.78006 5.9108 3.75569 5.89028 3.73246 5.8707C3.72321 5.86291 3.71414 5.85527 3.70562 5.8482C3.70457 5.84737 3.70348 5.84661 3.7024 5.84586C3.7012 5.84502 3.69999 5.84418 3.69883 5.84324C3.48094 5.66541 3.43088 5.35858 3.58723 5.15783C3.67518 5.04491 3.80958 4.98904 3.94919 4.99393C4.05777 4.99774 4.17021 5.03831 4.26553 5.11611C4.27392 5.12291 4.28315 5.13028 4.29268 5.13791C4.31834 5.15844 4.34626 5.18078 4.36645 5.19856C4.44712 5.26959 4.50695 5.34005 4.56792 5.41187C4.59911 5.4486 4.6306 5.48568 4.66533 5.52338L4.67329 5.53165C4.8937 5.76082 5.07682 5.9512 5.27764 6.08958C5.37022 6.14478 5.44415 6.13284 5.51504 6.12138C5.52588 6.11963 5.53665 6.11789 5.54741 6.1164C5.5735 6.13614 5.66125 6.20058 5.7114 6.2356C6.48437 5.39609 7.49964 4.77431 8.67883 4.50024C8.95288 4.43655 9.22724 4.39422 9.49978 4.3711L9.51045 4.17442C9.57092 4.1145 9.63874 4.0283 9.65795 3.93403C9.67757 3.68579 9.64613 3.41883 9.60828 3.09738L9.60749 3.09069C9.60032 3.0391 9.59152 2.99049 9.58281 2.94232C9.56592 2.84893 9.54933 2.75719 9.54539 2.64865C9.54455 2.62561 9.54513 2.59653 9.54571 2.56807C9.54597 2.55484 9.54624 2.54175 9.54636 2.52945C9.54631 2.5274 9.54609 2.52538 9.54588 2.52336C9.54563 2.52111 9.54539 2.51885 9.54539 2.51654ZM9.296 8.04448L9.43088 5.60583C9.2699 5.6258 9.10832 5.65368 8.94666 5.69125C8.06168 5.89694 7.29379 6.34352 6.69343 6.94783L8.64681 8.36533L8.65069 8.36334C8.71686 8.41282 8.79828 8.44181 8.8865 8.44181C9.10185 8.44181 9.27725 8.26761 9.28629 8.04945L9.296 8.04448ZM13.2901 6.94882C12.5579 6.21483 11.6024 5.73591 10.5691 5.60583L10.704 8.04051L10.706 8.0415C10.7094 8.1253 10.7383 8.20831 10.7933 8.27891C10.9276 8.45124 11.1703 8.48319 11.3425 8.3544L11.3493 8.35738L13.2901 6.94882ZM7.76862 9.49178L5.98505 7.85872C5.45572 8.74145 5.20495 9.80022 5.32131 10.8894L7.60753 10.2139L7.60947 10.206C7.68851 10.1839 7.76214 10.1365 7.81714 10.0659C7.9514 9.89358 7.92766 9.64497 7.76668 9.50171L7.76862 9.49178ZM14.5865 9.32291C14.4671 8.7905 14.2664 8.29941 14.0014 7.85971L12.2275 9.48482L12.2285 9.48979C12.1667 9.54481 12.121 9.61929 12.1014 9.70733C12.0535 9.92224 12.1799 10.1365 12.3857 10.1941L12.3876 10.204L14.6855 10.8815C14.7342 10.374 14.7046 9.84892 14.5865 9.32291ZM10.3644 9.61793H9.63369L9.17858 10.198L9.34161 10.9232L9.99953 11.247L10.6555 10.9242L10.8185 10.199L10.3644 9.61793ZM12.0684 11.6136C12.0382 11.6079 12.0072 11.605 11.9762 11.6066C11.9244 11.6093 11.8725 11.6228 11.8229 11.6473C11.6289 11.743 11.5445 11.9782 11.6288 12.1788L11.6259 12.1827L12.5439 14.4525C13.4287 13.8755 14.091 13.0132 14.4371 12.0178L12.0723 11.6086L12.0684 11.6136ZM8.38869 11.9354C8.34676 11.7473 8.18489 11.6191 8.00442 11.6165C7.97864 11.6162 7.95204 11.6185 7.92582 11.6235L7.92194 11.6185L5.57749 12.0258C5.93931 13.0505 6.6157 13.8858 7.46489 14.4436L8.37316 12.1966L8.36637 12.1877C8.39877 12.1107 8.40832 12.0234 8.38869 11.9354ZM10.1723 12.6417C10.1116 12.6118 10.0478 12.5986 9.98497 12.6009C9.84667 12.6061 9.71548 12.6851 9.64631 12.8175H9.64437L8.49155 14.9512C9.28936 15.2295 10.1704 15.2917 11.0543 15.0863C11.212 15.0496 11.3662 15.0056 11.5162 14.9542L10.3605 12.8165H10.3518C10.3131 12.7425 10.2517 12.6808 10.1723 12.6417Z" fill="#8A9BB5"/>
</svg>
