<svg width="25" height="24" viewBox="0 0 25 24" fill="none" xmlns="http://www.w3.org/2000/svg">
<path d="M12.1291 2C11.7922 2.00003 11.5189 2.30355 11.519 2.67796C11.519 2.6837 11.5201 2.68919 11.5203 2.6949C11.5198 2.74578 11.5173 2.80706 11.519 2.85136C11.527 3.0673 11.5741 3.23257 11.6024 3.43153C11.6537 3.85735 11.6967 4.21034 11.6702 4.53842C11.6444 4.66214 11.5533 4.77528 11.472 4.85393L11.4577 5.11207C11.0915 5.14241 10.7229 5.19797 10.3547 5.28156C8.7704 5.64128 7.40633 6.45737 6.36781 7.55923C6.30042 7.51326 6.18253 7.42868 6.14747 7.40278C6.03854 7.41749 5.92843 7.4511 5.78503 7.36758C5.51197 7.18377 5.26328 6.93006 4.96236 6.62444C4.82447 6.47824 4.72462 6.33903 4.5608 6.19811C4.5236 6.1661 4.46682 6.12282 4.42521 6.08989C4.29713 5.98778 4.14607 5.93453 4.00018 5.92953C3.81261 5.92311 3.63204 5.99644 3.51388 6.14465C3.30381 6.40813 3.37107 6.81084 3.66381 7.04425C3.66678 7.04661 3.66995 7.04845 3.67294 7.05077C3.71317 7.08337 3.76243 7.12516 3.7994 7.15246C3.97325 7.28081 4.13205 7.34652 4.30526 7.44841C4.67019 7.67378 4.97272 7.86064 5.21268 8.08595C5.30638 8.18584 5.32276 8.36184 5.33523 8.43797L5.5308 8.61267C4.48389 10.1882 3.99937 12.1343 4.28571 14.1171L4.03017 14.1915C3.96282 14.2784 3.86765 14.4153 3.76811 14.4561C3.45416 14.555 3.10083 14.5913 2.67426 14.636C2.47399 14.6527 2.30119 14.6428 2.08887 14.683C2.04214 14.6918 1.97703 14.7088 1.9259 14.7208C1.92412 14.7212 1.92246 14.7217 1.92069 14.7221C1.9179 14.7227 1.91424 14.7241 1.91156 14.7247C1.55192 14.8116 1.32089 15.1421 1.39527 15.4678C1.46966 15.7936 1.82095 15.9917 2.18274 15.9137C2.18535 15.9131 2.18914 15.913 2.19187 15.9124C2.19595 15.9115 2.19955 15.9095 2.2036 15.9085C2.25403 15.8974 2.31724 15.8851 2.36136 15.8733C2.5701 15.8174 2.72127 15.7353 2.90893 15.6634C3.31266 15.5186 3.64704 15.3976 3.9728 15.3505C4.10886 15.3398 4.25221 15.4345 4.32351 15.4744L4.58948 15.4287C5.20153 17.3263 6.48417 18.86 8.10833 19.8224L7.99751 20.0884C8.03745 20.1916 8.08151 20.3314 8.05176 20.4334C7.93332 20.7405 7.73047 21.0646 7.49947 21.426C7.38763 21.593 7.27316 21.7226 7.17223 21.9136C7.14808 21.9594 7.11732 22.0296 7.094 22.0779C6.93718 22.4134 7.05222 22.7999 7.35345 22.9449C7.65658 23.0908 8.03285 22.9369 8.19568 22.6007C8.19593 22.6002 8.19675 22.5999 8.19698 22.5994C8.19715 22.599 8.19682 22.5985 8.19698 22.5981C8.22018 22.5504 8.25303 22.4878 8.2726 22.443C8.35905 22.2449 8.38782 22.0752 8.44861 21.8836C8.61005 21.4781 8.69875 21.0526 8.92099 20.7875C8.98185 20.7149 9.08106 20.687 9.18393 20.6594L9.32213 20.4091C10.738 20.9526 12.3229 21.0984 13.9061 20.7389C14.2673 20.6569 14.616 20.5508 14.9531 20.4234C14.9919 20.4923 15.0641 20.6248 15.0834 20.6581C15.188 20.6921 15.3021 20.7097 15.395 20.8472C15.5613 21.1312 15.675 21.4673 15.8135 21.8732C15.8743 22.0648 15.9044 22.2345 15.9909 22.4325C16.0106 22.4777 16.0433 22.5412 16.0665 22.589C16.229 22.9263 16.6064 23.0807 16.91 22.9345C17.2112 22.7894 17.3264 22.403 17.1695 22.0675C17.1461 22.0192 17.1141 21.9489 17.0899 21.9032C16.989 21.7121 16.8745 21.5839 16.7627 21.4169C16.5317 21.0555 16.3401 20.7553 16.2216 20.4482C16.1721 20.2898 16.23 20.1913 16.2686 20.0884C16.2455 20.0619 16.196 19.9123 16.1669 19.842C17.8548 18.8453 19.0997 17.2544 19.6844 15.417C19.7634 15.4294 19.9006 15.4537 19.9452 15.4626C20.0369 15.4021 20.1213 15.3231 20.2867 15.3362C20.6125 15.3833 20.9469 15.5043 21.3506 15.6491C21.5383 15.721 21.6895 15.8044 21.8982 15.8603C21.9423 15.8721 22.0055 15.8831 22.056 15.8942C22.06 15.8952 22.0636 15.8972 22.0677 15.8981C22.0704 15.8987 22.0742 15.8988 22.0768 15.8994C22.4386 15.9773 22.79 15.7793 22.8643 15.4535C22.9386 15.1278 22.7076 14.7972 22.348 14.7104C22.2957 14.6985 22.2215 14.6783 22.1707 14.6686C21.9584 14.6284 21.7856 14.6383 21.5853 14.6217C21.1587 14.577 20.8054 14.5407 20.4914 14.4418C20.3634 14.3921 20.2724 14.2398 20.2281 14.1771L19.9817 14.1054C20.1094 13.1811 20.075 12.2192 19.8539 11.2567C19.6308 10.2852 19.2364 9.39677 18.7105 8.61397C18.7737 8.55651 18.8931 8.45081 18.9269 8.41971C18.9368 8.31023 18.9283 8.19545 19.0417 8.07422C19.2816 7.8489 19.5842 7.66206 19.9491 7.43668C20.1223 7.33478 20.2824 7.26909 20.4562 7.14073C20.4955 7.1117 20.5492 7.06573 20.5905 7.03251C20.8832 6.79903 20.9506 6.39635 20.7405 6.13292C20.5303 5.86949 20.1231 5.84468 19.8304 6.07816C19.7888 6.11116 19.7322 6.1542 19.6948 6.18637C19.531 6.3273 19.4299 6.4665 19.292 6.6127C18.9911 6.91834 18.7423 7.17333 18.4693 7.35715C18.351 7.42603 18.1777 7.4022 18.099 7.39757L17.867 7.56314C16.5436 6.1755 14.7419 5.28833 12.8019 5.11599C12.7964 5.03468 12.7893 4.88773 12.7875 4.8435C12.7081 4.7675 12.6122 4.70262 12.588 4.53842C12.5615 4.21034 12.6058 3.85735 12.6571 3.43153C12.6855 3.23257 12.7326 3.0673 12.7406 2.85136C12.7424 2.80227 12.7395 2.73103 12.7393 2.67796C12.7392 2.30355 12.4661 1.99997 12.1291 2ZM11.3651 6.73265L11.1839 9.93338L11.1709 9.9399C11.1587 10.2262 10.923 10.4549 10.6337 10.4549C10.5152 10.4549 10.4058 10.4168 10.3169 10.3519L10.3117 10.3545L7.68722 8.49403C8.49382 7.70088 9.52554 7.11474 10.7145 6.84477C10.9317 6.79546 11.1488 6.75886 11.3651 6.73265ZM12.8944 6.73265C14.2826 6.90338 15.5664 7.53196 16.5502 8.49533L13.9427 10.3441L13.9335 10.3402C13.7021 10.5092 13.376 10.4672 13.1956 10.2411C13.1217 10.1484 13.0829 10.0395 13.0783 9.92947L13.0757 9.92817L12.8944 6.73265ZM6.73547 9.68958L9.13178 11.833L9.12918 11.846C9.34547 12.034 9.37736 12.3603 9.19697 12.5865C9.12308 12.6792 9.02416 12.7413 8.91797 12.7704L8.91536 12.7808L5.8437 13.6673C5.68736 12.2378 6.02429 10.8482 6.73547 9.68958ZM17.5058 9.69088C17.8619 10.268 18.1315 10.9125 18.292 11.6113C18.4506 12.3017 18.4904 12.9909 18.425 13.6569L15.3377 12.7677L15.3351 12.7547C15.0586 12.6792 14.8887 12.3979 14.9531 12.1159C14.9794 12.0003 15.0408 11.9026 15.1239 11.8303L15.1226 11.8238L17.5058 9.69088ZM11.6376 11.9985H12.6193L13.2295 12.7612L13.0105 13.713L12.1291 14.1367L11.2452 13.7117L11.0261 12.7599L11.6376 11.9985ZM14.7849 14.6087C14.8266 14.6066 14.8681 14.6103 14.9087 14.6178L14.914 14.6113L18.0912 15.1484C17.6262 16.4548 16.7364 17.5866 15.5476 18.3439L14.3142 15.3648L14.3181 15.3596C14.2048 15.0964 14.3182 14.7877 14.5789 14.6621C14.6456 14.63 14.7154 14.6122 14.7849 14.6087ZM9.4486 14.6217C9.69106 14.6251 9.90855 14.7934 9.96489 15.0402C9.99126 15.1558 9.97842 15.2702 9.9349 15.3714L9.94403 15.3831L8.72371 18.3322C7.58277 17.6001 6.67402 16.5038 6.18789 15.1588L9.33778 14.6243L9.34299 14.6308C9.37823 14.6243 9.41396 14.6212 9.4486 14.6217ZM12.1096 15.9137C12.194 15.9106 12.2797 15.9279 12.3612 15.9672C12.468 16.0186 12.5505 16.0996 12.6024 16.1966H12.6141L14.1669 19.0023C13.9654 19.0699 13.7582 19.1276 13.5463 19.1757C12.3588 19.4454 11.175 19.3637 10.1031 18.9984L11.652 16.1979H11.6546C11.7475 16.0242 11.9238 15.9206 12.1096 15.9137Z" fill="white"/>
</svg>
