<svg width="16" height="16" viewBox="0 0 16 16" fill="none" xmlns="http://www.w3.org/2000/svg">
  <path d="M1.77321 0.330048L2.3829 0.354435L3.28525 0.647088L4.06566 1.06168L4.82168 1.6226L5.84596 1.67137L6.5776 1.84209L7.26045 2.08597C7.86202 2.41114 8.43107 2.76882 8.9676 3.15903L9.89433 3.89066L10.5406 4.47597L11.6868 5.8051L12.638 7.21959L13.711 9.70714L14.6377 11.6094L14.9426 12.0362L15.1169 12.1094L13.8933 11.9008L13.5403 11.1948L13.1501 10.2681L12.4429 8.80479L12.1746 8.07316L11.8332 7.41469C11.2251 6.35626 10.4894 5.42546 9.62607 4.62229C8.8229 3.86465 7.89616 3.23056 6.84586 2.72005L6.30933 2.50056L5.79719 2.35423L4.40709 2.25668L3.69984 1.72015L3.06576 1.37872L2.3829 1.08607L2.04147 0.988517H1.77321L1.51714 1.14704C1.44885 1.22508 1.42446 1.34702 1.44397 1.51285L1.73663 2.12255C2.14959 2.59567 2.52354 3.10781 2.85846 3.65898L3.17551 4.39061L3.73642 6.09775L4.22418 6.97571L4.63877 7.3903L4.73632 7.5854V7.95122L4.27295 9.34132L4.1754 9.95102L4.15102 10.7314L4.22418 11.4874L4.34612 12.0728L4.68755 12.9263L5.01678 13.3287L5.26066 13.4019L5.32163 13.3409L5.41918 12.3654L5.58989 11.585L5.73622 11.2436L6.27275 10.5241C6.33453 10.4997 6.35892 10.5119 6.34591 10.5607L6.90683 11.9264L7.54091 13.1214L8.44326 14.5115C8.69689 14.8757 8.98548 15.205 9.30902 15.4992L9.49193 15.6334L9.47974 15.6699L9.18709 15.4748C8.85379 15.1009 8.47984 14.7676 8.06525 14.4749L7.39459 13.8043L6.90683 13.1702L6.39469 12.0849L6.33372 12.0606L6.27275 12.1703L6.05326 13.5604C6.00286 13.7295 5.9175 13.8636 5.79719 13.9628C5.66062 14.0701 5.46552 14.1189 5.21188 14.1091C4.92086 14.0343 4.6973 13.8921 4.54122 13.6823L4.15102 13.1214L3.7852 12.1703L3.61448 11.1216V10.1461L3.71204 9.41449L3.88275 8.85357L4.02908 8.14632L4.1754 7.80489L4.10224 7.65857L3.80959 7.36591L3.29744 6.48796L2.83408 5.31734L2.61459 4.68326L2.51704 4.24428L2.37071 3.92724L1.27326 2.46398L0.980608 1.95183L0.883057 1.63479V1.17143C0.957846 0.896656 1.09198 0.681231 1.28545 0.52515C1.41552 0.427599 1.57811 0.362565 1.77321 0.330048Z" fill="currentColor"/>
  <path d="M4.99239 3.59801H5.28505L5.61428 3.87847L5.76061 4.14673V4.39061C5.71996 4.56132 5.64273 4.69546 5.52892 4.79301L5.44357 4.75642L5.24846 4.29306L4.83387 3.78092L4.7851 3.64678L4.99239 3.59801Z" fill="currentColor"/>
  <path d="M1.77321 0.330048L2.3829 0.354435L3.28525 0.647088L4.06566 1.06168L4.82168 1.6226L5.84596 1.67137L6.5776 1.84209L7.26045 2.08597C7.86202 2.41114 8.43107 2.76882 8.9676 3.15903L9.89433 3.89066L10.5406 4.47597L11.6868 5.8051L12.638 7.21959L13.711 9.70714L14.6377 11.6094L14.9426 12.0362L15.1169 12.1094L13.8933 11.9008L13.5403 11.1948L13.1501 10.2681L12.4429 8.80479L12.1746 8.07316L11.8332 7.41469C11.2251 6.35626 10.4894 5.42546 9.62607 4.62229C8.8229 3.86465 7.89616 3.23056 6.84586 2.72005L6.30933 2.50056L5.79719 2.35423L4.40709 2.25668L3.69984 1.72015L3.06576 1.37872L2.3829 1.08607L2.04147 0.988517H1.77321L1.51714 1.14704C1.44885 1.22508 1.42446 1.34702 1.44397 1.51285L1.73663 2.12255C2.14959 2.59567 2.52354 3.10781 2.85846 3.65898L3.17551 4.39061L3.73642 6.09775L4.22418 6.97571L4.63877 7.3903L4.73632 7.5854V7.95122L4.27295 9.34132L4.1754 9.95102L4.15102 10.7314L4.22418 11.4874L4.34612 12.0728L4.68755 12.9263L5.01678 13.3287L5.26066 13.4019L5.32163 13.3409L5.41918 12.3654L5.58989 11.585L5.73622 11.2436L6.27275 10.5241C6.33453 10.4997 6.35892 10.5119 6.34591 10.5607L6.90683 11.9264L7.54091 13.1214L8.44326 14.5115C8.69689 14.8757 8.98548 15.205 9.30902 15.4992L9.49193 15.6334L9.47974 15.6699L9.18709 15.4748C8.85379 15.1009 8.47984 14.7676 8.06525 14.4749L7.39459 13.8043L6.90683 13.1702L6.39469 12.0849L6.33372 12.0606L6.27275 12.1703L6.05326 13.5604C6.00286 13.7295 5.9175 13.8636 5.79719 13.9628C5.66062 14.0701 5.46552 14.1189 5.21188 14.1091C4.92086 14.0343 4.6973 13.8921 4.54122 13.6823L4.15102 13.1214L3.7852 12.1703L3.61448 11.1216V10.1461L3.71204 9.41449L3.88275 8.85357L4.02908 8.14632L4.1754 7.80489L4.10224 7.65857L3.80959 7.36591L3.29744 6.48796L2.83408 5.31734L2.61459 4.68326L2.51704 4.24428L2.37071 3.92724L1.27326 2.46398L0.980608 1.95183L0.883057 1.63479V1.17143C0.957846 0.896656 1.09198 0.681231 1.28545 0.52515C1.41552 0.427599 1.57811 0.362565 1.77321 0.330048Z" stroke="currentColor"/>
  <path d="M4.99239 3.59801H5.28505L5.61428 3.87847L5.76061 4.14673V4.39061C5.71996 4.56132 5.64273 4.69546 5.52892 4.79301L5.44357 4.75642L5.24846 4.29306L4.83387 3.78092L4.7851 3.64678L4.99239 3.59801Z" stroke="currentColor"/>
</svg>
