<svg width="24" height="25" viewBox="0 0 24 25" fill="none" xmlns="http://www.w3.org/2000/svg">
  <path d="M3.28614 11.467C3.28614 11.467 5.26451 8.54808 9.21467 8.24611V7.18712C4.83937 7.5385 1.05054 11.2442 1.05054 11.2442C1.05054 11.2442 3.19647 17.4477 9.21467 18.0157V16.8901C4.79823 16.3345 3.28614 11.467 3.28614 11.467ZM9.21467 14.6515V15.6823C5.87682 15.0872 4.95032 11.6175 4.95032 11.6175C4.95032 11.6175 6.55295 9.84215 9.21467 9.55424V10.6854C9.21265 10.6854 9.21124 10.6848 9.20957 10.6848C7.81256 10.5171 6.72122 11.8222 6.72122 11.8222C6.72122 11.8222 7.33291 14.0192 9.21467 14.6515ZM9.21467 5.23389V7.18712C9.34311 7.17727 9.47155 7.16892 9.60069 7.16452C14.5749 6.99688 17.816 11.2442 17.816 11.2442C17.816 11.2442 14.0935 15.7706 10.2154 15.7706C9.85994 15.7706 9.5272 15.7376 9.21467 15.6822V16.8901C9.48192 16.924 9.75902 16.944 10.0482 16.944C13.657 16.944 16.2669 15.1009 18.794 12.9195C19.213 13.2551 20.9283 14.0714 21.281 14.4288C18.8781 16.4405 13.2782 18.0621 10.1035 18.0621C9.79744 18.0621 9.50355 18.0436 9.21467 18.0157V19.7129H22.9318V5.23389H9.21467ZM9.21467 9.55424V8.24611C9.34179 8.23723 9.46988 8.23046 9.60069 8.22633C13.1777 8.11397 15.5244 11.3002 15.5244 11.3002C15.5244 11.3002 12.9897 14.8204 10.272 14.8204C9.88087 14.8204 9.53027 14.7576 9.21467 14.6515V10.6854C10.6072 10.8537 10.8874 11.4688 11.7246 12.8644L13.5865 11.2944C13.5865 11.2944 12.2273 9.51178 9.93608 9.51178C9.68702 9.51169 9.44869 9.52918 9.21467 9.55424Z" fill="currentColor"/>
</svg>
