<svg width="25" height="24" viewBox="0 0 25 24" xmlns="http://www.w3.org/2000/svg">
<path d="M6.65574 18.75V21.5902C6.65574 21.7525 6.78852 21.8852 6.95082 21.8852H8.72131C8.88361 21.8852 9.01639 21.7525 9.01639 21.5902V18.75C8.64385 18.8717 8.24918 18.9344 7.83607 18.9344C7.42295 18.9344 7.02828 18.868 6.65574 18.75ZM9.01639 11.4467V3.29508C9.01639 3.13279 8.88361 3 8.72131 3H6.95082C6.78852 3 6.65574 3.13279 6.65574 3.29508V11.4467C7.02828 11.325 7.42295 11.2623 7.83607 11.2623C8.24918 11.2623 8.64385 11.3287 9.01639 11.4467ZM6.65574 18.75C7.02828 18.8717 7.42295 18.9344 7.83607 18.9344C8.24918 18.9344 8.64385 18.868 9.01639 18.75C10.5582 18.252 11.6721 16.8061 11.6721 15.0984C11.6721 13.3906 10.5582 11.9447 9.01639 11.4467C8.64385 11.325 8.24918 11.2623 7.83607 11.2623C7.42295 11.2623 7.02828 11.3287 6.65574 11.4467C5.11393 11.9447 4 13.3906 4 15.0984C4 16.8061 5.11393 18.252 6.65574 18.75ZM6.65943 14.4824C6.67049 14.4602 6.68525 14.4381 6.69631 14.416V14.4123L6.74057 14.3459C6.74426 14.3385 6.74795 14.3348 6.75164 14.3275C6.76271 14.309 6.77746 14.2943 6.78852 14.2758C6.79221 14.2721 6.7959 14.2648 6.79959 14.2611C6.81803 14.2389 6.83279 14.2205 6.85123 14.202L6.8623 14.191L6.90656 14.1467L6.92131 14.132C6.93975 14.1135 6.9582 14.0988 6.98033 14.0803C7.00246 14.0619 7.0209 14.0471 7.04303 14.0324C7.05041 14.0287 7.0541 14.025 7.06148 14.0213C7.07992 14.0102 7.09467 13.9955 7.11311 13.9844C7.1168 13.9807 7.12418 13.977 7.12787 13.9734C7.15 13.9586 7.17213 13.9475 7.19795 13.9328C7.20164 13.9291 7.20902 13.9291 7.2127 13.9254C7.23115 13.9143 7.24959 13.907 7.27172 13.8959L7.29385 13.8848C7.31967 13.8738 7.3418 13.8627 7.36762 13.8553C7.39344 13.8443 7.41926 13.8369 7.44508 13.8295C7.45246 13.8258 7.45984 13.8258 7.46721 13.8221C7.48934 13.8148 7.50779 13.8111 7.52992 13.8074C7.5373 13.8074 7.54098 13.8037 7.54836 13.8037C7.57418 13.7963 7.60369 13.7926 7.62951 13.7889C7.63689 13.7889 7.64057 13.7889 7.64795 13.7852C7.67008 13.7816 7.69221 13.7816 7.71434 13.7779H7.73647C7.76598 13.7779 7.7918 13.7742 7.82131 13.7742C7.85082 13.7742 7.87664 13.7742 7.90615 13.7779H7.92828C7.95041 13.7779 7.97254 13.7816 7.99467 13.7852C8.00205 13.7852 8.00574 13.7852 8.01311 13.7889C8.03893 13.7926 8.06844 13.7963 8.09426 13.8037C8.10164 13.8037 8.10533 13.8074 8.1127 13.8074C8.13484 13.8111 8.15697 13.8184 8.17541 13.8221C8.18279 13.8258 8.19016 13.8258 8.19754 13.8295C8.22336 13.8369 8.24918 13.8443 8.275 13.8553C8.30082 13.8627 8.32295 13.8738 8.34877 13.8848L8.3709 13.8959C8.38934 13.9033 8.41148 13.9143 8.42992 13.9254C8.43361 13.9291 8.44098 13.9291 8.44467 13.9328C8.4668 13.9439 8.49262 13.9586 8.51475 13.9734C8.51844 13.977 8.52582 13.9807 8.52951 13.9844C8.54795 13.9955 8.56639 14.0066 8.58115 14.0213C8.58853 14.025 8.59221 14.0287 8.59959 14.0324C8.62172 14.0471 8.64385 14.0656 8.66229 14.0803C8.68074 14.0951 8.70287 14.1135 8.72131 14.132L8.73606 14.1467L8.78033 14.191L8.79139 14.202C8.80984 14.2205 8.82828 14.2426 8.84303 14.2611C8.84672 14.2648 8.85041 14.2721 8.8541 14.2758C8.86885 14.2906 8.87992 14.309 8.89098 14.3275C8.89467 14.3348 8.89836 14.3385 8.90205 14.3459L8.94631 14.4123C8.94631 14.4123 8.94631 14.416 8.95 14.416C9.07298 14.6224 9.13797 14.8581 9.13811 15.0984C9.13811 15.3197 9.08279 15.5299 8.98689 15.7143C8.97582 15.7365 8.96107 15.7586 8.95 15.7807C8.95 15.7807 8.95 15.7844 8.94631 15.7844L8.90205 15.8508C8.89836 15.8582 8.89467 15.8619 8.89098 15.8693C8.87992 15.8877 8.86516 15.9025 8.8541 15.9209C8.85041 15.9246 8.84672 15.932 8.84303 15.9357C8.82459 15.9578 8.80984 15.9762 8.79139 15.9947L8.78033 16.0057L8.73606 16.05L8.72131 16.0648C8.70287 16.0832 8.68443 16.0979 8.66229 16.1164C8.64016 16.1348 8.62172 16.1496 8.59959 16.1643C8.59221 16.168 8.58853 16.1717 8.58115 16.1754C8.56271 16.1865 8.54795 16.2012 8.52951 16.2123C8.52582 16.216 8.51844 16.2197 8.51475 16.2234C8.49262 16.2381 8.47049 16.2492 8.44467 16.2639C8.44098 16.2676 8.43361 16.2676 8.42992 16.2713C8.41148 16.2824 8.39303 16.2898 8.3709 16.3008L8.34877 16.3119C8.32295 16.323 8.30082 16.334 8.275 16.3414C8.24918 16.3525 8.22336 16.3598 8.19754 16.3672C8.19016 16.3709 8.18279 16.3709 8.17541 16.3746C8.15328 16.382 8.13484 16.3857 8.1127 16.3893C8.10533 16.3893 8.10164 16.393 8.09426 16.393C8.06844 16.4004 8.03893 16.4041 8.01311 16.4078C8.00574 16.4078 8.00205 16.4078 7.99467 16.4115C7.97254 16.4152 7.95041 16.4152 7.92828 16.4189H7.90615C7.87664 16.4189 7.85082 16.4225 7.82131 16.4225C7.7918 16.4225 7.76598 16.4225 7.73647 16.4189H7.71434C7.69221 16.4189 7.67008 16.4152 7.64795 16.4115C7.64057 16.4115 7.63689 16.4115 7.62951 16.4078C7.60369 16.4041 7.57418 16.4004 7.54836 16.393C7.54098 16.393 7.5373 16.3893 7.52992 16.3893C7.50779 16.3857 7.48566 16.3783 7.46721 16.3746C7.45984 16.3709 7.45246 16.3709 7.44508 16.3672C7.41926 16.3598 7.39344 16.3525 7.36762 16.3414C7.3418 16.334 7.31967 16.323 7.29385 16.3119L7.27172 16.3008C7.25328 16.2934 7.23115 16.2824 7.2127 16.2713C7.20902 16.2676 7.20164 16.2676 7.19795 16.2639C7.17582 16.2529 7.15 16.2381 7.12787 16.2234C7.12418 16.2197 7.1168 16.216 7.11311 16.2123C7.09467 16.2012 7.07623 16.1902 7.06148 16.1754C7.0541 16.1717 7.05041 16.168 7.04303 16.1643C7.0209 16.1496 6.99877 16.1311 6.98033 16.1164C6.96188 16.1016 6.93975 16.0832 6.92131 16.0648L6.90656 16.05L6.8623 16.0057L6.85123 15.9947C6.83279 15.9762 6.81434 15.9541 6.79959 15.9357C6.7959 15.932 6.79221 15.9246 6.78852 15.9209C6.77377 15.9061 6.76271 15.8877 6.75164 15.8693C6.74795 15.8619 6.74426 15.8582 6.74057 15.8508L6.69631 15.7844V15.7807C6.68156 15.7586 6.67049 15.7365 6.65943 15.7143C6.56352 15.5299 6.5082 15.3197 6.5082 15.0984C6.5082 14.877 6.56352 14.6668 6.65943 14.4824ZM16.9836 13.4385V21.5902C16.9836 21.7525 17.1164 21.8852 17.2787 21.8852H19.0492C19.2115 21.8852 19.3443 21.7525 19.3443 21.5902V13.4385C18.9717 13.5602 18.577 13.6229 18.1639 13.6229C17.7508 13.6229 17.3561 13.5566 16.9836 13.4385ZM19.3443 6.13525V3.29508C19.3443 3.13279 19.2115 3 19.0492 3H17.2787C17.1164 3 16.9836 3.13279 16.9836 3.29508V6.13525C17.3561 6.01352 17.7508 5.95082 18.1639 5.95082C18.577 5.95082 18.9717 6.01721 19.3443 6.13525ZM16.9836 13.4385C17.3561 13.5602 17.7508 13.6229 18.1639 13.6229C18.577 13.6229 18.9717 13.5566 19.3443 13.4385C20.8861 12.9406 22 11.4947 22 9.78688C22 8.0791 20.8861 6.6332 19.3443 6.13525C18.9717 6.01352 18.577 5.95082 18.1639 5.95082C17.7508 5.95082 17.3561 6.01721 16.9836 6.13525C15.4418 6.6332 14.3279 8.0791 14.3279 9.78688C14.3279 11.4947 15.4418 12.9406 16.9836 13.4385ZM16.9873 9.1709C16.9984 9.14877 17.0131 9.12664 17.0242 9.10451V9.10082L17.0684 9.03443C17.0721 9.02705 17.0758 9.02336 17.0795 9.01598C17.0906 8.99754 17.1053 8.98279 17.1164 8.96434C17.1201 8.96066 17.1238 8.95328 17.1275 8.94959C17.1459 8.92746 17.1607 8.90902 17.1791 8.89057L17.1902 8.87951L17.2344 8.83525L17.2492 8.82049C17.2676 8.80205 17.2861 8.78729 17.3082 8.76885C17.3303 8.75041 17.3488 8.73566 17.3709 8.7209C17.3783 8.71721 17.382 8.71352 17.3893 8.70983C17.4078 8.69877 17.4225 8.68402 17.441 8.67295C17.4447 8.66926 17.452 8.66557 17.4557 8.66188C17.4779 8.64713 17.5 8.63607 17.5258 8.62131C17.5295 8.61762 17.5369 8.61762 17.5406 8.61393C17.559 8.60287 17.5775 8.59549 17.5996 8.58442L17.6217 8.57336C17.6475 8.5623 17.6697 8.55123 17.6955 8.54385C17.7213 8.53279 17.7471 8.52541 17.773 8.51803C17.7803 8.51434 17.7877 8.51434 17.7951 8.51066C17.8172 8.50328 17.8357 8.49959 17.8578 8.4959C17.8652 8.4959 17.8689 8.49221 17.8762 8.49221C17.902 8.48484 17.9316 8.48115 17.9574 8.47746C17.9648 8.47746 17.9684 8.47746 17.9758 8.47377C17.998 8.47008 18.0201 8.47008 18.0422 8.46639H18.0643C18.0939 8.46639 18.1197 8.46271 18.1492 8.46271C18.1787 8.46271 18.2045 8.46271 18.234 8.46639H18.2561C18.2783 8.46639 18.3004 8.47008 18.3225 8.47377C18.3299 8.47377 18.3336 8.47377 18.341 8.47746C18.3668 8.48115 18.3963 8.48484 18.4221 8.49221C18.4295 8.49221 18.4332 8.4959 18.4406 8.4959C18.4627 8.49959 18.4848 8.50697 18.5033 8.51066C18.5107 8.51434 18.518 8.51434 18.5254 8.51803C18.5512 8.52541 18.577 8.53279 18.6029 8.54385C18.6287 8.55123 18.6508 8.5623 18.6766 8.57336L18.6988 8.58442C18.7172 8.5918 18.7393 8.60287 18.7578 8.61393C18.7615 8.61762 18.7689 8.61762 18.7725 8.62131C18.7947 8.63238 18.8205 8.64713 18.8426 8.66188C18.8463 8.66557 18.8537 8.66926 18.8574 8.67295C18.8758 8.68402 18.8943 8.69508 18.909 8.70983C18.9164 8.71352 18.9201 8.71721 18.9275 8.7209C18.9496 8.73566 18.9717 8.7541 18.9902 8.76885C19.0086 8.78361 19.0307 8.80205 19.0492 8.82049L19.0639 8.83525L19.1082 8.87951L19.1193 8.89057C19.1377 8.90902 19.1561 8.93115 19.1709 8.94959C19.1746 8.95328 19.1783 8.96066 19.182 8.96434C19.1967 8.9791 19.2078 8.99754 19.2189 9.01598C19.2225 9.02336 19.2262 9.02705 19.2299 9.03443L19.2742 9.10082V9.10451C19.3972 9.31089 19.4622 9.54664 19.4623 9.78688C19.4623 10.0082 19.407 10.2184 19.3111 10.4029C19.3 10.425 19.2852 10.4471 19.2742 10.4693V10.473L19.2299 10.5393C19.2262 10.5467 19.2225 10.5504 19.2189 10.5578C19.2078 10.5762 19.193 10.591 19.182 10.6094C19.1783 10.6131 19.1746 10.6205 19.1709 10.6242C19.1525 10.6463 19.1377 10.6648 19.1193 10.6832L19.1082 10.6943L19.0639 10.7385L19.0492 10.7533C19.0307 10.7717 19.0123 10.7865 18.9902 10.8049C18.968 10.8234 18.9496 10.8381 18.9275 10.8529C18.9201 10.8566 18.9164 10.8602 18.909 10.8639C18.8906 10.875 18.8758 10.8898 18.8574 10.9008C18.8537 10.9045 18.8463 10.9082 18.8426 10.9119C18.8205 10.9266 18.7984 10.9377 18.7725 10.9525C18.7689 10.9561 18.7615 10.9561 18.7578 10.9598C18.7393 10.9709 18.7209 10.9783 18.6988 10.9893L18.6766 11.0004C18.6508 11.0115 18.6287 11.0225 18.6029 11.0299C18.577 11.041 18.5512 11.0484 18.5254 11.0557C18.518 11.0594 18.5107 11.0594 18.5033 11.0631C18.4811 11.0705 18.4627 11.0742 18.4406 11.0779C18.4332 11.0779 18.4295 11.0816 18.4221 11.0816C18.3963 11.0889 18.3668 11.0926 18.341 11.0963C18.3336 11.0963 18.3299 11.0963 18.3225 11.1C18.3004 11.1037 18.2783 11.1037 18.2561 11.1074H18.234C18.2045 11.1074 18.1787 11.1111 18.1492 11.1111C18.1197 11.1111 18.0939 11.1111 18.0643 11.1074H18.0422C18.0201 11.1074 17.998 11.1037 17.9758 11.1C17.9684 11.1 17.9648 11.1 17.9574 11.0963C17.9316 11.0926 17.902 11.0889 17.8762 11.0816C17.8689 11.0816 17.8652 11.0779 17.8578 11.0779C17.8357 11.0742 17.8135 11.0668 17.7951 11.0631C17.7877 11.0594 17.7803 11.0594 17.773 11.0557C17.7471 11.0484 17.7213 11.041 17.6955 11.0299C17.6697 11.0225 17.6475 11.0115 17.6217 11.0004L17.5996 10.9893C17.5811 10.982 17.559 10.9709 17.5406 10.9598C17.5369 10.9561 17.5295 10.9561 17.5258 10.9525C17.5037 10.9414 17.4779 10.9266 17.4557 10.9119C17.452 10.9082 17.4447 10.9045 17.441 10.9008C17.4225 10.8898 17.4041 10.8787 17.3893 10.8639C17.382 10.8602 17.3783 10.8566 17.3709 10.8529C17.3488 10.8381 17.3266 10.8197 17.3082 10.8049C17.2898 10.7902 17.2676 10.7717 17.2492 10.7533L17.2344 10.7385L17.1902 10.6943L17.1791 10.6832C17.1607 10.6648 17.1422 10.6426 17.1275 10.6242C17.1238 10.6205 17.1201 10.6131 17.1164 10.6094C17.1016 10.5947 17.0906 10.5762 17.0795 10.5578C17.0758 10.5504 17.0721 10.5467 17.0684 10.5393L17.0242 10.473V10.4693C17.0094 10.4471 16.9984 10.425 16.9873 10.4029C16.8914 10.2184 16.8361 10.0082 16.8361 9.78688C16.8361 9.56557 16.8914 9.35533 16.9873 9.1709Z" />
</svg>
