<svg width="12" height="14" viewBox="0 0 12 14" fill="none" xmlns="http://www.w3.org/2000/svg">
  <path d="M1.64482 13.6667C1.1919 13.6667 0.803342 13.5014 0.479145 13.1709C0.159715 12.8354 0 12.4333 0 11.9646C0 11.5009 0.159715 11.1038 0.479145 10.7732C0.803342 10.4427 1.1919 10.2774 1.64482 10.2774C2.08345 10.2774 2.46724 10.4427 2.7962 10.7732C3.12517 11.1038 3.28965 11.5009 3.28965 11.9646C3.28965 12.2755 3.21337 12.5616 3.06081 12.8231C2.90824 13.0796 2.708 13.2844 2.46009 13.4373C2.21217 13.5902 1.94042 13.6667 1.64482 13.6667Z" fill="currentColor"/>
  <path d="M7.05122 8.85847L7.22286 5.92797L4.84859 7.55602L3.93321 5.89837L6.47911 4.59592L3.93321 3.29348L4.84859 1.63582L7.22286 3.26388L7.05122 0.333374H8.88198L8.71035 3.26388L11.0846 1.63582L12 3.29348L9.4541 4.59592L12 5.89837L11.0846 7.55602L8.71035 5.92797L8.88198 8.85847H7.05122Z" fill="currentColor"/>
</svg>
