<svg width="25" height="24" viewBox="0 0 25 24" xmlns="http://www.w3.org/2000/svg">
<path d="M24.06 3.35143L22.4486 4.61143C20.2514 1.80286 16.8343 0 12.9972 0C6.37144 0 1.00858 5.35714 1.00001 11.9857C0.991439 18.62 6.36573 24 12.9972 24C18.1772 24 22.5914 20.7143 24.2714 16.1114C24.3143 15.9914 24.2514 15.8571 24.1314 15.8171L22.5114 15.26C22.455 15.2406 22.3931 15.2441 22.3392 15.2698C22.2853 15.2954 22.2435 15.3411 22.2229 15.3971C22.1714 15.54 22.1143 15.6829 22.0543 15.8229C21.56 16.9943 20.8514 18.0457 19.9486 18.9486C19.053 19.8458 17.9927 20.5618 16.8257 21.0571C15.6172 21.5686 14.3286 21.8286 13.0029 21.8286C11.6743 21.8286 10.3886 21.5686 9.18001 21.0571C8.01194 20.5639 6.95121 19.8477 6.05715 18.9486C5.15915 18.0531 4.44396 16.9915 3.95144 15.8229C3.44001 14.6114 3.18001 13.3257 3.18001 11.9971C3.18001 10.6686 3.44001 9.38286 3.95144 8.17143C4.44572 7 5.1543 5.94857 6.05715 5.04571C6.96001 4.14286 8.01144 3.43429 9.18001 2.93714C10.3886 2.42571 11.6772 2.16571 13.0029 2.16571C14.3314 2.16571 15.6172 2.42571 16.8257 2.93714C17.9938 3.43041 19.0545 4.14662 19.9486 5.04571C20.2314 5.32857 20.4972 5.62857 20.7429 5.94286L19.0229 7.28571C18.9888 7.31204 18.9629 7.34744 18.9481 7.38784C18.9333 7.42823 18.9302 7.47199 18.9392 7.51407C18.9481 7.55616 18.9688 7.59486 18.9987 7.62573C19.0287 7.6566 19.0668 7.67838 19.1086 7.68857L24.1257 8.91714C24.2686 8.95143 24.4086 8.84286 24.4086 8.69714L24.4314 3.52857C24.4286 3.34 24.2086 3.23429 24.06 3.35143Z" />
<path fill-rule="evenodd" clip-rule="evenodd" d="M17.5807 16.4428H8.20572V11.3536H17.5807V16.4428ZM12.1221 15.8946V14.2419C11.8647 14.0571 11.6725 13.7954 11.5733 13.4945C11.4741 13.1935 11.473 12.8688 11.5701 12.5672C11.6671 12.2656 11.8574 12.0025 12.1135 11.8159C12.3696 11.6293 12.6783 11.5287 12.9952 11.5287C13.3121 11.5287 13.6208 11.6293 13.8769 11.8159C14.133 12.0025 14.3232 12.2656 14.4203 12.5672C14.5174 12.8688 14.5162 13.1935 14.417 13.4945C14.3179 13.7954 14.1257 14.0571 13.8683 14.2419V15.8946C13.8683 16.0318 13.7561 16.1441 13.6189 16.1441H12.3715C12.2343 16.1441 12.1221 16.0318 12.1221 15.8946Z" />
<path fill-rule="evenodd" clip-rule="evenodd" d="M18.2504 9.54256H17.4619V6.94641C17.4619 5.76281 16.1527 4.46154 14.9691 4.46154L10.8173 4.46154C9.63374 4.46154 8.32347 5.76281 8.32347 6.94641V9.54256H7.53608C7.23976 9.54256 7.00037 9.78196 7.00037 10.0783V17.6607C7.00037 17.957 7.23976 18.1964 7.53608 18.1964H18.2504C18.5467 18.1964 18.7861 17.957 18.7861 17.6607V10.0783C18.7861 9.78196 18.5467 9.54256 18.2504 9.54256ZM10.8173 6.00891C10.3 6.00891 9.87983 6.42911 9.87983 6.94641V9.54256H15.9066V6.94641C15.9066 6.42911 15.4864 6.00891 14.9691 6.00891H10.8173ZM8.20572 16.4428H17.5807V11.3536H8.20572V16.4428Z" />
</svg>
