<svg width="24" height="25" viewBox="0 0 24 25" fill="none" xmlns="http://www.w3.org/2000/svg">
    <path d="M11.324 19.1277L20.1881 10.2613C20.2279 10.2214 20.2467 10.1675 20.242 10.1136L19.6443 3.04953C19.6279 2.86672 19.4849 2.72375 19.3021 2.70735L12.2381 2.11203C12.1842 2.10735 12.1279 2.1261 12.0904 2.16594L3.22634 11.03C3.19145 11.0652 3.17188 11.1128 3.17188 11.1624C3.17188 11.212 3.19145 11.2596 3.22634 11.2948L11.0592 19.1277C11.1318 19.2027 11.2513 19.2027 11.324 19.1277ZM12.7912 3.85344L18.0553 4.29875L18.5006 9.56282L11.1904 16.8706L5.48103 11.1636L12.7912 3.85344ZM14.2012 8.21821C14.3057 8.32267 14.4297 8.40553 14.5662 8.46206C14.7027 8.51859 14.849 8.54768 14.9967 8.54766C15.1445 8.54765 15.2908 8.51854 15.4273 8.46199C15.5638 8.40545 15.6878 8.32257 15.7922 8.21809C15.8967 8.11361 15.9796 7.98958 16.0361 7.85308C16.0926 7.71658 16.1217 7.57028 16.1217 7.42254C16.1217 7.27479 16.0926 7.1285 16.036 6.99201C15.9795 6.85551 15.8966 6.7315 15.7921 6.62703C15.6876 6.52257 15.5636 6.43971 15.4271 6.38318C15.2906 6.32665 15.1443 6.29756 14.9966 6.29757C14.8488 6.29759 14.7025 6.3267 14.566 6.38324C14.4296 6.43979 14.3055 6.52267 14.2011 6.62715C14.0966 6.73163 14.0137 6.85566 13.9572 6.99216C13.9007 7.12866 13.8716 7.27496 13.8716 7.4227C13.8716 7.57045 13.9007 7.71674 13.9573 7.85323C14.0138 7.98973 14.0967 8.11374 14.2012 8.21821ZM20.8513 13.2566L19.9232 12.3308C19.888 12.2959 19.8404 12.2763 19.7908 12.2763C19.7412 12.2763 19.6936 12.2959 19.6584 12.3308L11.174 20.7988L5.60525 15.2441C5.57001 15.2092 5.52242 15.1896 5.47283 15.1896C5.42324 15.1896 5.37565 15.2092 5.34041 15.2441L4.41228 16.1698C4.37739 16.2051 4.35781 16.2527 4.35781 16.3023C4.35781 16.3519 4.37739 16.3995 4.41228 16.4347L10.1123 22.1253L11.0404 23.0511C11.1131 23.1238 11.2326 23.1238 11.3053 23.0511L20.8513 13.5214C20.924 13.4488 20.924 13.3292 20.8513 13.2566Z"/>
</svg>
