<svg width="25" height="20" viewBox="0 0 25 20" fill="currentColor" xmlns="http://www.w3.org/2000/svg">
    <path d="M23.5 10C23.5 9.50908 23.0971 9.11111 22.6 9.11111H6.4C5.90294 9.11111 5.5 9.50908 5.5 10C5.5 10.4909 5.90294 10.8889 6.4 10.8889H22.6C23.0971 10.8889 23.5 10.4909 23.5 10Z"/>
    <path d="M5.79059 10.7009L12.8063 17.7097C13.1937 18.0968 13.822 18.0968 14.2094 17.7097C14.5969 17.3226 14.5969 16.695 14.2094 16.3079L7.89529 10L14.2094 3.69207C14.5969 3.30499 14.5969 2.67736 14.2094 2.2903C13.822 1.90324 13.1937 1.90322 12.8063 2.2903L5.79059 9.29912C5.40313 9.6862 5.40315 10.3138 5.79059 10.7009Z"/>
    <rect x="1.5" y="2" width="2" height="16" rx="1" />
</svg>
