<svg width="24" height="20" viewBox="0 0 24 20" xmlns="http://www.w3.org/2000/svg">
<path d="M17.7999 8.10003C18.2999 7.50003 17.7999 6.50006 16.9999 6.50006H12.9999V8.50006H14.9999L13.1999 10.9C12.6999 11.5 13.1999 12.5 14 12.5H17.9999V10.5H15.9999L17.7999 8.10003Z" />
<path d="M23.7999 2.10008C24.2999 1.50008 23.7999 0.500105 22.9999 0.500105H18.9999V2.5001H20.9999L19.1999 4.90009C18.6999 5.50008 19.1999 6.50006 19.9999 6.50006H23.9999V4.50006H21.9999L23.7999 2.10008Z" />
<path d="M12.8999 15.5C9.69991 15.4 6.99993 12.8 6.99993 9.5C6.99993 7.90002 7.59992 6.3 8.79992 5.20004C9.49989 4.60004 8.99993 3.40005 7.99991 3.50003C3.59997 3.50003 0 7.10001 0 11.5C0 15.9 3.59997 19.5 7.99995 19.5C10.0999 19.5 12.0999 18.7 13.5999 17.2C14.1999 16.6 13.7999 15.5 12.8999 15.5ZM7.99995 17.5C4.69998 17.5 2 14.8 2.09998 11.4C2.09998 8.90005 3.59997 6.70003 5.89997 5.90007C5.39996 7.00007 5.09996 8.20007 4.99998 9.50004C4.99998 12.9 7.09996 15.9 10.2999 17C9.59992 17.2999 8.79992 17.5 7.99995 17.5Z" />
</svg>
