<svg width="994" height="213" fill="none" xmlns="http://www.w3.org/2000/svg" viewBox="0 0 994 213"><path d="M238.37 157.84c-4.89-9.53-9.85-20.67-14.9-33.48-5.05-12.82-9.77-26.75-14.26-41.81h22.59c.96 3.68 2.08 7.77 3.36 12.09 1.28 4.33 2.64 8.73 4 13.14 1.36 4.41 2.8 8.73 4.17 12.98 1.36 4.25 2.72 8.01 4.09 11.45 1.28-3.44 2.56-7.29 4-11.45 1.44-4.17 2.88-8.49 4.25-12.98 1.36-4.41 2.72-8.81 4-13.14 1.28-4.33 2.4-8.41 3.36-12.09h22.19c-4.49 15.06-9.29 29-14.26 41.81-5.05 12.82-10.01 23.95-14.82 33.48h-17.78.01Z" fill="#000"/><path fill-rule="evenodd" clip-rule="evenodd" d="m118.27 130.45-18.58-32.2 34.76-60.95 36.85.16-53.03 92.99Zm-24.99-52.7 18.26-32.44H42.73c-16.66 0-27.07 17.94-18.9 32.44h69.45ZM78.94 93.77l-36.85.16L95.12 187l18.58-32.28-34.76-60.95Z" fill="#F27405"/><path d="M359.45 137.45c-1.05.38-2.18.73-3.41 1.05-2.01.53-4.31.98-6.9 1.37-2.59.38-5.51.57-8.77.57-5.18 0-9.59-.84-13.23-2.52-3.64-1.68-6.59-3.95-8.84-6.83s-3.88-6.3-4.89-10.28c-1.01-3.98-1.51-6-1.51-10.61 0-5.75.77-10.64 2.3-14.67 1.53-4.03 3.57-7.31 6.11-9.85 2.54-2.54 5.46-4.39 8.77-5.54 3.31-1.15 6.69-1.73 10.14-1.73 5.18 0 9.8.58 13.88 1.73.57.16 1.12.34 1.67.51l4.95-19.09c-2.51-.77-5.41-1.46-8.71-2.05-3.45-.62-7.29-.93-11.5-.93-7.29 0-14.04 1.15-20.27 3.45-6.23 2.3-11.6 5.68-16.11 10.14-4.51 4.46-8.05 9.92-10.64 16.39-2.59 6.47-3.88 13.83-3.88 22.07 0 16.59 4.24 27.12 12.73 36.13 8.48 9.01 20.82 13.52 37.03 13.52 7.57 0 14.24-.77 19.99-2.3 3.9-1.04 7.19-2.17 9.89-3.38l-8.78-17.15h-.02ZM404.3 139.34c-.64.08-.96.08-1.84.08-1.04 0-2-.24-3.04-.56-.32-.08-.56-.16-.8-.32-1.6-.72-2.8-1.6-3.6-2.64-.8-1.04-1.36-2.4-1.68-4-.32-1.6-.48-3.36-.48-5.29V40.26l-21.95 10.89v79.78c0 4.17.4 7.85 1.28 11.13.8 3.28 2.4 6.09 4.73 8.41 2.32 2.32 5.45 4.09 9.45 5.37 3.2 1.04 7.29 1.68 12.09 1.92l3.04.16h.4c4 0 6.57-.24 9.77-1.28.72-.24 1.44-.48 2.08-.8l-9.45-16.5ZM478.79 155.28c-3.6 1.04-8.33 2-14.02 2.96-5.69.88-11.77 1.36-18.02 1.36s-11.69-.88-15.94-2.56c-4.25-1.68-7.61-4.09-10.09-7.21-2.48-3.12-4.25-6.81-5.29-11.05-1.04-4.33-1.6-9.05-1.6-14.18V82.55h21.31v39.33c0 6.89.88 11.85 2.72 14.9 1.84 3.04 5.21 4.57 10.17 4.57 1.52 0 3.12-.08 4.89-.24 1.68-.16 3.2-.32 4.57-.48V82.56h21.31v72.73l-.01-.01ZM614 120.76c0-6.65 1.04-12.5 3.04-17.54 2.08-5.05 4.73-9.21 8.09-12.5 3.36-3.36 7.21-5.85 11.53-7.61 4.33-1.68 8.81-2.56 13.38-2.56 10.65 0 19.14 3.28 25.31 9.77 6.17 6.57 9.29 16.18 9.29 28.84 0 1.2-.08 2.56-.16 4.09-.08 1.44-.16 2.8-.32 3.92h-48.38c.48 4.41 2.56 7.85 6.17 10.41 3.6 2.56 8.49 3.84 14.58 3.84 3.92 0 7.77-.32 11.53-1.04s6.81-1.6 9.21-2.64l2.88 17.3c-1.12.56-2.64 1.12-4.57 1.68-1.92.56-4 1.04-6.41 1.52-2.32.4-4.81.8-7.53 1.04-2.64.32-5.37.4-8.01.4-6.81 0-12.66-1.04-17.7-3.04-5.05-2-9.13-4.73-12.42-8.25-3.28-3.44-5.69-7.61-7.29-12.42-1.44-4.57-2.24-9.69-2.24-15.22l.02.01Zm50.14-8.17c-.08-1.84-.4-3.6-.96-5.29-.56-1.68-1.36-3.2-2.4-4.57-1.12-1.36-2.48-2.4-4.17-3.28-1.68-.88-3.76-1.28-6.25-1.28s-4.41.4-6.17 1.2c-1.68.8-3.12 1.92-4.33 3.2-1.12 1.36-2 2.88-2.64 4.65-.64 1.76-1.04 3.52-1.36 5.37h28.28ZM742.16 101.45c-1.92-.48-4.17-.96-6.73-1.52-2.56-.56-5.37-.8-8.33-.8-1.36 0-2.96.08-4.81.32-1.85.24-3.28.48-4.25.8v57.51h-21.31V86.48c3.84-1.36 8.33-2.56 13.54-3.76 5.21-1.2 10.97-1.76 17.38-1.76 1.12 0 2.56.08 4.17.24 1.6.16 3.2.32 4.89.56 1.6.24 3.2.56 4.89.88 1.6.32 3.04.72 4.17 1.2l-3.6 17.62-.01-.01ZM615.2 152.16l-9.13-15.06c-2.08.8-4.33 1.36-6.89 1.84-2.48.48-4.97.64-7.29.64-4.89 0-8.17-1.36-9.77-4.17-1.6-2.72-2.4-6.41-2.4-11.05V99.93h26.35V81.67h-26.35V55.08l-21.95 11.77v57.83c0 5.05.48 9.61 1.36 13.7.96 4.17 2.56 7.61 4.97 10.57 2.32 2.88 5.53 5.13 9.45 6.81 3.92 1.6 8.89 2.4 14.9 2.4 4.73 0 8.73-.4 11.93-1.2 1.28-.32 2.56-.64 3.76-1.04 3.84-.96 9.53-2.64 11.05-3.76h.01ZM547.44 129.01c-.72-2.4-1.92-4.57-3.68-6.49-1.76-1.92-4.17-3.76-7.21-5.45-3.04-1.68-6.89-3.36-11.61-5.13-2.32-.88-4.17-1.68-5.69-2.4-1.44-.72-2.64-1.36-3.52-2-.88-.64-1.44-1.28-1.68-1.92-.32-.64-.4-1.44-.4-2.32 0-3.68 3.36-5.61 10.01-5.61 3.6 0 6.89.32 9.77 1.04 2.88.64 5.61 1.44 8.09 2.32l3.68-16.58c-2.48-.96-5.85-1.84-10.01-2.64-4.17-.8-8.57-1.2-13.14-1.2-9.13 0-16.34 2.08-21.63 6.17-5.29 4.09-7.85 9.69-7.85 16.74 0 3.6.56 6.73 1.6 9.29 1.04 2.56 2.56 4.81 4.41 6.65 1.92 1.84 4.25 3.44 6.97 4.81 2.72 1.36 5.77 2.64 9.05 3.84 4.33 1.6 7.45 3.04 9.61 4.41 2.08 1.28 3.12 2.8 3.12 4.49 0 2.16-.8 3.68-2.4 4.41-1.6.8-4.41 1.12-8.33 1.12-3.68 0-7.53-.4-11.29-1.2-3.84-.8-7.53-1.92-11.13-3.36-1.28-.56-2.8-1.2-3.6-1.68v18.98c1.68.8 4.81 1.68 9.21 2.88 4.41 1.12 10.01 1.68 16.66 1.68 10.17 0 18.1-1.92 23.71-5.69 5.61-3.84 8.41-9.45 8.41-16.82-.08-3.2-.4-6.01-1.12-8.33l-.01-.01ZM957.33 78.18H804.65c-7.544 0-13.66 6.116-13.66 13.66v54.5c0 7.544 6.116 13.66 13.66 13.66h152.68c7.544 0 13.66-6.116 13.66-13.66v-54.5c0-7.544-6.116-13.66-13.66-13.66Z" fill="#000"/><path d="M827.52 135.53c0 1.35-.45 2.45-1.36 3.3-.91.85-2 1.27-3.27 1.27s-2.41-.43-3.3-1.27c-.89-.85-1.33-1.95-1.33-3.3 0-1.35.44-2.46 1.33-3.33.89-.87 1.99-1.3 3.3-1.3 1.31 0 2.36.43 3.27 1.3.91.87 1.36 1.98 1.36 3.33ZM846.74 98.82c5.83 0 10.29 1.06 13.4 3.18 3.11 2.12 4.66 5.44 4.66 9.96 0 2.35-.41 4.37-1.24 6.05-.83 1.68-2.04 3.05-3.62 4.11-1.58 1.06-3.51 1.84-5.79 2.34-2.28.5-4.88.75-7.81.75h-3.65v14.12h-7.29V99.79c1.7-.39 3.58-.65 5.64-.78 2.06-.13 3.97-.2 5.7-.2v.01Zm.52 6.31c-1.85 0-3.38.06-4.57.17v13.66h3.53c3.51 0 6.21-.49 8.1-1.48 1.89-.98 2.84-2.85 2.84-5.59 0-1.31-.25-2.41-.75-3.3a5.4 5.4 0 0 0-2.08-2.08c-.89-.5-1.94-.86-3.15-1.07a23.01 23.01 0 0 0-3.91-.32l-.01.01ZM882.51 98.82c5.79 0 10.22 1.06 13.29 3.18 3.07 2.12 4.6 5.36 4.6 9.73 0 5.44-2.68 9.13-8.05 11.06.73.89 1.56 1.97 2.49 3.24.93 1.27 1.87 2.65 2.84 4.14.96 1.49 1.89 3.01 2.78 4.57.89 1.56 1.68 3.1 2.37 4.6h-8.16c-.73-1.39-1.53-2.79-2.37-4.2-.85-1.41-1.71-2.78-2.58-4.11-.87-1.33-1.73-2.58-2.58-3.76a85.49 85.49 0 0 0-2.37-3.15c-.54.04-1 .06-1.39.06h-4.63v15.17h-7.29V99.81c1.78-.39 3.67-.65 5.67-.78 2.01-.13 3.8-.2 5.38-.2v-.01Zm.52 6.31c-1.54 0-2.97.06-4.28.17v12.97h3.18c1.77 0 3.34-.09 4.69-.29 1.35-.19 2.48-.54 3.39-1.04.91-.5 1.59-1.18 2.06-2.03.46-.85.69-1.93.69-3.24 0-1.23-.23-2.28-.69-3.13-.46-.85-1.13-1.52-2-2.03-.87-.51-1.9-.86-3.1-1.07-1.2-.21-2.51-.32-3.94-.32v.01ZM945.26 119.26c0 3.44-.51 6.46-1.53 9.09-1.02 2.62-2.41 4.82-4.17 6.57a17.32 17.32 0 0 1-6.17 3.97c-2.35.89-4.86 1.33-7.53 1.33s-5.18-.44-7.55-1.33c-2.37-.89-4.44-2.21-6.19-3.97-1.76-1.76-3.15-3.95-4.2-6.57-1.04-2.62-1.56-5.65-1.56-9.09 0-3.44.52-6.46 1.56-9.06 1.04-2.6 2.46-4.8 4.25-6.57 1.8-1.77 3.87-3.11 6.22-3.99 2.35-.89 4.84-1.33 7.47-1.33s5.11.44 7.47 1.33c2.35.89 4.41 2.22 6.17 3.99 1.76 1.78 3.15 3.97 4.2 6.57 1.04 2.6 1.56 5.63 1.56 9.06Zm-31.32 0c0 2.2.27 4.2.81 5.99.54 1.8 1.32 3.32 2.34 4.57 1.02 1.25 2.27 2.23 3.73 2.92 1.47.69 3.13 1.04 4.98 1.04 1.85 0 3.45-.35 4.92-1.04 1.47-.7 2.71-1.67 3.73-2.92s1.8-2.78 2.34-4.57c.54-1.79.81-3.79.81-5.99s-.27-4.2-.81-5.99c-.54-1.8-1.32-3.32-2.34-4.57a10.636 10.636 0 0 0-3.73-2.92c-1.47-.69-3.11-1.04-4.92-1.04s-3.51.35-4.98 1.04c-1.47.7-2.71 1.68-3.73 2.95-1.02 1.27-1.8 2.8-2.34 4.57-.54 1.78-.81 3.76-.81 5.96Z" fill="#fff"/></svg>