<svg width="225" height="50" viewBox="0 0 225 50" fill="none" xmlns="http://www.w3.org/2000/svg">
<path d="M153.658 40.4358C153.446 40.1911 153.167 40.0001 152.829 39.8593C152.486 39.7185 152.069 39.6514 151.58 39.6514C151.09 39.6514 150.687 39.6849 150.344 39.752C150.002 39.819 149.75 39.8928 149.586 39.9665L149.717 40.7877C149.841 40.7408 150.039 40.6771 150.307 40.6C150.576 40.523 150.985 40.4861 151.533 40.4861C151.919 40.4861 152.227 40.5464 152.462 40.667C152.698 40.7877 152.882 40.9452 153.01 41.143C153.141 41.3407 153.224 41.5621 153.261 41.8066C153.302 42.0515 153.318 42.3028 153.318 42.5643V43.0268C153.278 43.0068 153.211 42.9865 153.111 42.9632C153.01 42.9398 152.889 42.9161 152.751 42.8927C152.613 42.8692 152.466 42.8491 152.319 42.8357C152.167 42.8224 152.026 42.8156 151.892 42.8156C151.439 42.8156 151.022 42.8592 150.636 42.9464C150.25 43.0335 149.921 43.171 149.643 43.3586C149.364 43.5463 149.146 43.7844 148.992 44.0726C148.837 44.361 148.76 44.7061 148.76 45.1083C148.76 45.5106 148.831 45.8893 148.968 46.1809C149.109 46.4761 149.301 46.714 149.545 46.9017C149.791 47.0894 150.08 47.2268 150.411 47.314C150.744 47.4011 151.106 47.4446 151.502 47.4446C151.811 47.4446 152.11 47.4314 152.406 47.4079C152.698 47.3843 152.966 47.3508 153.204 47.314C153.442 47.277 153.658 47.2402 153.839 47.2067C154.02 47.1732 154.161 47.143 154.258 47.1129V42.4133C154.258 42.0212 154.211 41.6558 154.114 41.3173C154.016 40.9821 153.862 40.6905 153.651 40.4458L153.658 40.4358ZM153.325 46.4659C153.134 46.5028 152.899 46.5363 152.624 46.5598C152.349 46.5832 152.03 46.5967 151.664 46.5967C151.365 46.5967 151.1 46.5698 150.865 46.5162C150.629 46.4625 150.429 46.3788 150.257 46.2647C150.089 46.1508 149.958 45.9966 149.868 45.8022C149.777 45.6111 149.73 45.3732 149.73 45.095C149.73 44.7765 149.797 44.5252 149.931 44.3307C150.066 44.1396 150.24 43.9888 150.452 43.8782C150.663 43.7675 150.895 43.6971 151.143 43.6636C151.391 43.6301 151.633 43.6135 151.865 43.6135C152.271 43.6135 152.587 43.6402 152.818 43.6939C153.05 43.7475 153.217 43.7978 153.325 43.8447V46.4693V46.4659Z" fill="#465E75"/>
<path d="M206.861 38.5452C206.411 38.0691 205.871 37.7005 205.243 37.4356C204.615 37.1708 203.924 37.04 203.169 37.04C202.413 37.04 201.742 37.1708 201.115 37.4356C200.487 37.7005 199.943 38.0691 199.487 38.5452C199.03 39.0212 198.674 39.5942 198.415 40.2679C198.157 40.9418 198.029 41.3776 198.029 42.1987C198.029 43.02 198.153 43.7675 198.406 44.448C198.658 45.1283 199.007 45.7082 199.456 46.1909C199.906 46.6736 200.447 47.0457 201.074 47.3105C201.702 47.5752 202.4 47.706 203.169 47.706C203.938 47.706 204.652 47.5752 205.284 47.3105C205.911 47.0457 206.452 46.6736 206.901 46.1909C207.351 45.7082 207.693 45.1283 207.932 44.448C208.17 43.7675 208.288 43.0166 208.288 42.1987C208.288 41.3808 208.161 40.9418 207.912 40.2679C207.66 39.5942 207.311 39.0212 206.861 38.5452ZM204.726 44.3676C204.364 44.9037 203.844 45.1686 203.169 45.1686C202.494 45.1686 201.97 44.9005 201.601 44.3676C201.232 43.8311 201.044 43.1105 201.044 42.1987C201.044 41.2871 201.228 40.8814 201.601 40.3585C201.97 39.8357 202.494 39.5741 203.169 39.5741C203.844 39.5741 204.364 39.8357 204.726 40.3585C205.089 40.8814 205.274 41.2871 205.274 42.1987C205.274 43.1105 205.093 43.8345 204.726 44.3676Z" fill="#465E75"/>
<path d="M207.918 37.3456V34.7244L203.191 32.1064L198.465 34.7244V37.3456L203.191 34.7244L207.918 37.3456Z" fill="#465E75"/>
<path d="M222.812 45.2694C222.472 45.3296 222.147 45.3599 221.828 45.3599C221.166 45.3599 220.728 45.1755 220.509 44.8035C220.292 44.4347 220.18 43.9387 220.18 43.3185V40.0235H223.731V37.5666H220.18V34.0002L217.222 35.5889V37.5666H212.725V36.6817C212.725 36.4034 212.755 36.1454 212.815 35.9073C212.876 35.6694 212.973 35.4649 213.114 35.294C213.252 35.1229 213.444 34.9856 213.688 34.8884C213.933 34.7878 214.235 34.7409 214.592 34.7409C214.813 34.7409 215.051 34.7643 215.306 34.8046C215.531 34.8381 215.833 34.8951 215.977 34.9687L216.471 32.6191C215.977 32.371 215.121 32.2906 215.121 32.2906C214.856 32.2603 214.581 32.2437 214.292 32.2437C212.799 32.2437 211.671 32.6392 210.909 33.4336C210.147 34.2246 209.768 35.2972 209.768 36.6448V47.6224H212.725V40.0269H217.222V43.3621C217.222 44.0358 217.287 44.6493 217.411 45.2056C217.535 45.762 217.757 46.2347 218.076 46.6236C218.395 47.0125 218.817 47.3174 219.345 47.5353C219.875 47.7532 220.543 47.8637 221.348 47.8637C221.983 47.8637 222.52 47.8101 222.956 47.7062C223.393 47.599 223.789 47.475 224.148 47.3308L223.731 45.0313C223.453 45.1386 223.148 45.2191 222.809 45.2794L222.812 45.2694Z" fill="#465E75"/>
<path d="M196.772 45.324C196.638 45.324 196.503 45.2937 196.36 45.247C196.322 45.2334 196.282 45.2201 196.245 45.2067C196.034 45.1128 195.873 44.9955 195.758 44.8513C195.644 44.7073 195.57 44.5262 195.53 44.315C195.49 44.1038 195.469 43.8659 195.469 43.6011V32L192.512 33.4647V44.1977C192.512 44.7542 192.569 45.2502 192.68 45.6927C192.791 46.1351 193.003 46.5106 193.315 46.8224C193.627 47.1339 194.05 47.3754 194.583 47.5464C195.019 47.6871 195.561 47.7709 196.211 47.8078L196.624 47.8245C196.624 47.8245 196.641 47.8245 196.651 47.8245C196.661 47.8245 196.668 47.8245 196.678 47.8245C197.212 47.8212 197.557 47.7944 197.997 47.657C198.098 47.6267 198.192 47.59 198.28 47.5497L197.014 45.3206C196.927 45.3306 196.883 45.3306 196.765 45.3274L196.772 45.324Z" fill="#465E75"/>
<path d="M146.918 40.6374C146.727 40.3357 146.456 40.1011 146.103 39.9302C145.751 39.7625 145.291 39.6787 144.724 39.6787C144.378 39.6787 144.063 39.7122 143.777 39.7794C143.492 39.8464 143.246 39.9268 143.035 40.0239C142.823 40.1212 142.649 40.215 142.508 40.3055C142.367 40.3961 142.273 40.4631 142.226 40.5C141.803 39.9537 141.119 39.6787 140.175 39.6787C139.463 39.6787 138.883 39.7256 138.437 39.8229C137.99 39.92 137.624 40.0038 137.346 40.081V47.271H138.282V40.7279C138.37 40.691 138.567 40.6474 138.88 40.5971C139.192 40.5502 139.574 40.5269 140.028 40.5269C140.43 40.5269 140.756 40.5871 141.001 40.7078C141.246 40.8285 141.437 41.006 141.572 41.2407C141.705 41.4754 141.797 41.7738 141.836 42.1356C141.88 42.4944 141.9 42.92 141.9 43.4095V47.271H142.837V43.0341C142.837 42.6888 142.817 42.3602 142.773 42.0486C142.729 41.7369 142.666 41.4553 142.579 41.2038C142.626 41.1671 142.706 41.1067 142.817 41.0295C142.927 40.9525 143.069 40.8754 143.243 40.7983C143.418 40.7212 143.619 40.6575 143.857 40.6039C144.093 40.5502 144.355 40.5233 144.643 40.5233C145.026 40.5233 145.341 40.5838 145.579 40.7044C145.821 40.8251 146.006 41.0028 146.137 41.2373C146.268 41.472 146.351 41.7704 146.395 42.1324C146.438 42.491 146.459 42.9168 146.459 43.4061V47.2676H147.395V43.1044C147.395 42.6049 147.362 42.1424 147.295 41.72C147.228 41.2977 147.097 40.9357 146.906 40.6306L146.918 40.6374Z" fill="#465E75"/>
<path d="M161.227 40.2722C161.063 40.1483 160.801 40.0141 160.442 39.8766C160.083 39.7358 159.656 39.6688 159.166 39.6688C158.626 39.6688 158.149 39.766 157.729 39.9571C157.31 40.1483 156.957 40.4197 156.668 40.7649C156.381 41.1102 156.162 41.5225 156.011 41.9985C155.86 42.4744 155.786 42.9941 155.786 43.5637C155.786 44.1704 155.876 44.7101 156.055 45.1929C156.232 45.6722 156.481 46.0811 156.803 46.4163C157.125 46.7515 157.511 47.0096 157.958 47.1873C158.404 47.3649 158.905 47.452 159.452 47.452C160.116 47.452 160.664 47.4085 161.096 47.3214C161.53 47.2342 161.885 47.1437 162.164 47.0465V36.0957L161.227 36.27V40.2755V40.2722ZM161.227 46.3962C161.083 46.4432 160.868 46.4901 160.586 46.5336C160.304 46.5772 159.929 46.5974 159.468 46.5974C158.659 46.5974 158.012 46.3359 157.522 45.813C157.031 45.2901 156.786 44.5392 156.786 43.5571C156.786 43.1449 156.83 42.7526 156.918 42.384C157.005 42.0153 157.142 41.6934 157.337 41.4186C157.529 41.1437 157.78 40.9259 158.096 40.7616C158.408 40.5973 158.797 40.5169 159.257 40.5169C159.479 40.5169 159.69 40.537 159.892 40.5805C160.092 40.6241 160.281 40.6778 160.455 40.7449C160.63 40.8119 160.781 40.8856 160.912 40.9628C161.043 41.0398 161.15 41.1102 161.238 41.1772V46.3928L161.227 46.3962Z" fill="#465E75"/>
<path d="M167.028 39.6518C166.615 39.6518 166.212 39.7323 165.822 39.8899C165.433 40.0473 165.087 40.292 164.782 40.6172C164.479 40.9423 164.235 41.3514 164.047 41.834C163.859 42.3199 163.765 42.8897 163.765 43.5401C163.765 44.1065 163.832 44.6294 163.966 45.1021C164.1 45.5781 164.315 45.987 164.614 46.3356C164.913 46.6809 165.292 46.9491 165.755 47.1435C166.218 47.3378 166.775 47.4317 167.43 47.4317C167.93 47.4317 168.367 47.3781 168.736 47.2742C169.106 47.1703 169.361 47.0763 169.494 46.9993L169.32 46.1916C169.186 46.2586 168.968 46.3424 168.669 46.4361C168.37 46.5334 167.967 46.5803 167.457 46.5803C166.534 46.5803 165.859 46.3356 165.436 45.8462C165.014 45.3568 164.785 44.6563 164.759 43.7413H169.998C170.008 43.6741 170.015 43.6005 170.018 43.5267C170.025 43.4497 170.025 43.3725 170.025 43.2954C170.025 42.0552 169.753 41.14 169.209 40.5435C168.665 39.9468 167.937 39.6484 167.024 39.6484L167.028 39.6518ZM164.792 42.9501C164.812 42.625 164.876 42.3099 164.986 42.015C165.097 41.7166 165.252 41.4551 165.45 41.2305C165.648 41.006 165.88 40.825 166.141 40.6909C166.406 40.5568 166.705 40.4898 167.044 40.4898C167.678 40.4898 168.169 40.7044 168.514 41.1368C168.86 41.5692 169.045 42.1758 169.062 42.9535H164.789L164.792 42.9501Z" fill="#465E75"/>
<path d="M180.45 40.7609C180.161 40.4157 179.809 40.1476 179.389 39.9532C178.969 39.7621 178.493 39.6648 177.952 39.6648C177.462 39.6648 177.036 39.7354 176.677 39.8726C176.314 40.0134 176.052 40.1442 175.892 40.2683V36.0884L174.955 36.2627V47.0425C175.233 47.1398 175.589 47.2303 176.022 47.3175C176.455 47.4046 177.003 47.4481 177.667 47.4481C178.214 47.4481 178.714 47.361 179.161 47.1833C179.607 47.0056 179.993 46.7475 180.315 46.4124C180.638 46.0772 180.889 45.6683 181.064 45.1889C181.242 44.7096 181.33 44.1665 181.33 43.5598C181.33 42.9934 181.255 42.4705 181.105 41.9945C180.956 41.5185 180.735 41.1095 180.446 40.7609H180.45ZM179.597 45.8124C179.107 46.3353 178.456 46.5967 177.651 46.5967C177.187 46.5967 176.815 46.5766 176.532 46.5331C176.247 46.4894 176.036 46.4459 175.892 46.3957V41.1801C175.979 41.1129 176.086 41.0393 176.217 40.9655C176.348 40.8917 176.499 40.8179 176.673 40.7476C176.848 40.6805 177.033 40.6235 177.237 40.5834C177.442 40.5431 177.651 40.5196 177.872 40.5196C178.335 40.5196 178.721 40.6001 179.033 40.7643C179.346 40.9286 179.597 41.1465 179.792 41.4213C179.983 41.6961 180.124 42.018 180.211 42.3867C180.299 42.7553 180.342 43.1476 180.342 43.5598C180.342 44.5385 180.097 45.2928 179.607 45.8157L179.597 45.8124Z" fill="#465E75"/>
<path d="M186.784 41.6023C186.653 42.1486 186.515 42.6849 186.375 43.2079C186.233 43.7308 186.079 44.2569 185.914 44.7832C185.75 45.3095 185.558 45.8726 185.344 46.4659C185.048 45.8895 184.777 45.3062 184.525 44.7096C184.276 44.1129 184.048 43.533 183.84 42.9665C183.632 42.4001 183.447 41.8503 183.286 41.3173C183.125 40.7844 182.988 40.2882 182.883 39.8257H181.886C182.04 40.4492 182.222 41.086 182.433 41.7364C182.645 42.3832 182.88 43.0336 183.135 43.6805C183.39 44.3275 183.665 44.9709 183.961 45.6045C184.256 46.2381 184.559 46.848 184.874 47.4346C184.743 47.7698 184.609 48.0481 184.467 48.2692C184.327 48.4906 184.173 48.6715 183.998 48.8089C183.824 48.9497 183.629 49.047 183.413 49.1039C183.199 49.1609 182.954 49.191 182.682 49.191C182.487 49.191 182.303 49.1643 182.125 49.1107C181.947 49.057 181.836 49.0167 181.799 48.9866L181.611 49.7642C181.658 49.7944 181.782 49.8347 181.98 49.8949C182.178 49.9553 182.397 49.9822 182.639 49.9822C183.064 49.9822 183.434 49.9352 183.746 49.838C184.062 49.7409 184.336 49.5933 184.572 49.3921C184.81 49.191 185.025 48.9329 185.216 48.6213C185.408 48.3095 185.595 47.9374 185.78 47.505C186.244 46.4123 186.67 45.209 187.059 43.8917C187.448 42.5744 187.801 41.2168 188.116 39.8257H187.177C187.039 40.4659 186.905 41.0559 186.774 41.6056L186.784 41.6023Z" fill="#465E75"/>
<path fill-rule="evenodd" clip-rule="evenodd" d="M19.8822 17.4566L16.7748 12.0723L22.5875 1.88086L28.7486 1.90703L19.8822 17.4566ZM15.7032 8.64392L18.7569 3.2197H7.25281C4.4677 3.2197 2.72666 6.21969 4.09167 8.64392H15.7032ZM13.3065 11.323L7.14537 11.3491L16.0117 26.9111L19.1192 21.5144L13.3065 11.323Z" fill="#F27405"/>
<path fill-rule="evenodd" clip-rule="evenodd" d="M66.3711 18.9429C66.2636 18.9567 66.2099 18.9567 66.0625 18.9567C65.889 18.9567 65.7278 18.9167 65.5543 18.863C65.5006 18.8493 65.4606 18.8369 65.4207 18.8093C65.1535 18.6881 64.9524 18.5421 64.8174 18.3672C64.6824 18.1922 64.5901 17.965 64.5364 17.6977C64.4827 17.4305 64.4565 17.1358 64.4565 16.8135V2.37549L60.7871 4.19642V17.5366C60.7871 18.2336 60.8546 18.8493 61.002 19.3988C61.1356 19.9484 61.4042 20.4167 61.7926 20.8052C62.181 21.1936 62.7031 21.4884 63.3725 21.7019C63.9083 21.8754 64.5915 21.9829 65.3945 22.0228L65.9028 22.049H65.9703C66.6397 22.049 67.0681 22.009 67.6039 21.8341C67.7251 21.7941 67.8449 21.7542 67.9523 21.7005L66.3725 18.9415L66.3711 18.9429ZM58.3022 18.801C58.5075 18.7473 58.6962 18.6895 58.8725 18.6261L58.8739 18.6289L60.3422 21.4966C59.889 21.7005 59.3394 21.8892 58.6879 22.0627C57.7265 22.3189 56.6122 22.447 55.3463 22.447C52.637 22.447 50.5736 21.6936 49.1549 20.1867C47.7362 18.6798 47.0268 16.9181 47.0268 14.1454C47.0268 12.768 47.2431 11.5366 47.6756 10.4553C48.1094 9.37269 48.7017 8.45947 49.4552 7.7143C50.2086 6.96912 51.1053 6.40301 52.148 6.01871C53.1893 5.63441 54.3202 5.44158 55.5378 5.44158C56.2416 5.44158 56.8835 5.49254 57.4606 5.59722C58.013 5.6964 58.4965 5.8121 58.9166 5.9402L58.0887 9.13302L58.0141 9.1098C57.9466 9.0887 57.8797 9.06779 57.8091 9.04762C57.1287 8.85616 56.3546 8.75975 55.4896 8.75975C54.9124 8.75975 54.3463 8.85479 53.794 9.04762C53.2403 9.24046 52.7527 9.54762 52.3271 9.97324C51.9014 10.3989 51.5612 10.9471 51.305 11.6206C51.0488 12.2928 50.9207 13.111 50.9207 14.0724C50.9207 14.841 51.0047 15.1798 51.1728 15.8451C51.3408 16.5104 51.6122 17.0834 51.9896 17.5641C52.367 18.0448 52.8601 18.4264 53.4689 18.706C54.0777 18.9856 54.816 19.1261 55.681 19.1261C56.2265 19.1261 56.7155 19.0944 57.148 19.0297C57.5805 18.9649 57.9662 18.8892 58.3022 18.801ZM36.1343 16.4388C36.9786 18.5807 37.8092 20.4429 38.626 22.0366H41.5957C42.4001 20.4429 43.2293 18.582 44.0737 16.4388C44.9042 14.2955 45.7073 11.965 46.4579 9.44708H42.7486C42.5888 10.0628 42.4015 10.746 42.1866 11.4691C41.9972 12.1107 41.7958 12.7632 41.5941 13.4169L41.5939 13.4173L41.5938 13.4177L41.5172 13.6661C41.2899 14.4154 41.0489 15.1385 40.8078 15.8355C40.7399 16.0315 40.6741 16.2234 40.6099 16.4108C40.4463 16.8883 40.2927 17.3366 40.1384 17.7501C39.9111 17.1743 39.6825 16.5449 39.4552 15.8355C39.3861 15.621 39.3158 15.4053 39.2452 15.1883C39.0821 14.6876 38.9168 14.1802 38.7582 13.6661C38.531 12.9292 38.3037 12.1922 38.0888 11.4691C37.8753 10.746 37.688 10.0628 37.5268 9.44708H33.75C34.5007 11.965 35.2899 14.2955 36.1343 16.4388ZM76.4813 22.1041C77.433 21.9429 78.2223 21.7817 78.8256 21.6082H78.8242V9.44708H75.2622V19.1578C75.035 19.184 74.7802 19.2115 74.4992 19.2377C74.2044 19.2638 73.9372 19.2776 73.6824 19.2776C72.8518 19.2776 72.2898 19.0228 71.9813 18.5145C71.6727 18.0049 71.5253 17.1743 71.5253 16.0228V9.44708H67.9634V16.4787C67.9634 17.3355 68.057 18.1261 68.2306 18.8493C68.4055 19.56 68.7003 20.1757 69.1149 20.6977C69.5295 21.2198 70.0928 21.622 70.8022 21.903C71.5116 22.184 72.422 22.3313 73.4675 22.3313C74.5129 22.3313 75.5308 22.2514 76.4813 22.1041ZM101.433 15.8355C101.433 14.7239 101.606 13.746 101.941 12.903C102.29 12.0586 102.732 11.3631 103.294 10.8135C103.856 10.2515 104.499 9.83551 105.222 9.54074C105.945 9.25975 106.696 9.11237 107.459 9.11237C109.24 9.11237 110.66 9.66196 111.692 10.746C112.724 11.8438 113.246 13.4512 113.246 15.5669C113.246 15.7313 113.236 15.9132 113.226 16.1134V16.1135V16.1136V16.1137L113.219 16.2501L113.218 16.2739L113.218 16.2744C113.205 16.5064 113.192 16.7247 113.166 16.9057H105.076C105.156 17.6426 105.505 18.2184 106.108 18.6468C106.711 19.0751 107.528 19.29 108.546 19.29C109.201 19.29 109.845 19.2363 110.474 19.1165C111.104 18.9953 111.612 18.8493 112.014 18.6743L112.496 21.5669C112.309 21.6605 112.054 21.7542 111.733 21.8479C111.412 21.9415 111.064 22.0214 110.662 22.1027C110.273 22.1702 109.859 22.2363 109.403 22.2762C108.96 22.33 108.506 22.3437 108.064 22.3437C106.926 22.3437 105.948 22.1702 105.104 21.8355C104.259 21.5008 103.578 21.0448 103.028 20.4567C102.478 19.8809 102.078 19.184 101.809 18.3809C101.568 17.6178 101.434 16.7597 101.434 15.8369L101.433 15.8355ZM109.817 14.4691C109.803 14.1606 109.75 13.8658 109.656 13.5848C109.562 13.3038 109.429 13.049 109.254 12.8217C109.067 12.5945 108.839 12.4195 108.557 12.2721C108.276 12.1248 107.927 12.0573 107.513 12.0573C107.098 12.0573 106.776 12.1248 106.481 12.2584C106.2 12.392 105.959 12.5793 105.758 12.7942C105.571 13.0214 105.423 13.2763 105.316 13.571C105.208 13.8658 105.142 14.1606 105.089 14.4677H109.816L109.817 14.4691ZM121.841 12.3764C122.226 12.4605 122.567 12.5349 122.861 12.6082H122.863L123.466 9.66195C123.277 9.58206 123.036 9.51456 122.769 9.46085L122.643 9.4367C122.407 9.39131 122.179 9.34741 121.952 9.31346C121.671 9.27352 121.403 9.24597 121.135 9.2198C120.867 9.19363 120.626 9.17986 120.438 9.17986C119.367 9.17986 118.403 9.27352 117.532 9.47462C116.662 9.67572 115.912 9.87682 115.269 10.1041V22.0228H118.831V12.4071C118.991 12.3534 119.232 12.3135 119.54 12.2735C119.847 12.2336 120.116 12.2198 120.343 12.2198C120.839 12.2198 121.308 12.2597 121.736 12.3534L121.841 12.3764ZM101.634 21.0861L100.108 18.5682C99.7594 18.7019 99.3847 18.7955 98.9564 18.8768C98.5418 18.9567 98.1258 18.9842 97.7374 18.9842C96.9206 18.9842 96.371 18.757 96.1038 18.2873C95.8365 17.8313 95.7016 17.2156 95.7016 16.4388V12.3534H100.108V9.29969H95.7016V4.85342L92.0322 6.82173V16.4925C92.0322 17.3368 92.112 18.0999 92.2594 18.7831C92.4206 19.4801 92.6878 20.0558 93.09 20.5503C93.4784 21.0324 94.0142 21.4071 94.6699 21.6881C95.3255 21.9553 96.1561 22.0903 97.1616 22.0903C97.9522 22.0903 98.6217 22.0228 99.1575 21.8892C99.3724 21.8355 99.5858 21.7817 99.7869 21.7156C100.43 21.5545 101.381 21.2735 101.635 21.0861H101.634ZM89.6878 16.1303C89.9826 16.4526 90.1823 16.8135 90.3035 17.2157H90.3008C90.4206 17.6041 90.4743 18.0724 90.4881 18.6082C90.4881 19.841 90.0198 20.7776 89.0818 21.4209C88.1437 22.0503 86.8187 22.3713 85.1176 22.3713C84.006 22.3713 83.0694 22.2776 82.3325 22.0903C81.5956 21.8892 81.0735 21.7418 80.7925 21.6082V18.4347C80.9126 18.5057 81.1263 18.5985 81.3232 18.6841C81.3478 18.6947 81.372 18.7053 81.3958 18.7157C81.9991 18.9567 82.6148 19.144 83.2581 19.2776C83.8876 19.4112 84.5308 19.4787 85.1465 19.4787C85.8022 19.4787 86.2718 19.425 86.5391 19.2914C86.8077 19.1702 86.9413 18.9168 86.9413 18.5545C86.9413 18.2721 86.7677 18.0187 86.4192 17.8038C86.057 17.5752 85.5349 17.3341 84.8118 17.0669C84.2622 16.8658 83.754 16.6509 83.298 16.4236C82.8421 16.1964 82.4537 15.9292 82.1327 15.6206C81.8242 15.3121 81.5694 14.9374 81.3958 14.5091C81.2223 14.0807 81.1286 13.5586 81.1286 12.9553C81.1286 11.7777 81.557 10.8396 82.4413 10.1565C83.3242 9.47326 84.5308 9.12478 86.057 9.12478C86.8214 9.12478 87.557 9.19227 88.2539 9.32588C88.9495 9.45949 89.5129 9.60687 89.9275 9.76802L89.3118 12.5407C88.8972 12.3934 88.4413 12.2598 87.9592 12.1523C87.4771 12.0325 86.9289 11.9788 86.3256 11.9788C85.214 11.9788 84.652 12.3011 84.652 12.9168C84.652 13.0642 84.6658 13.1978 84.7195 13.3052C84.7595 13.4113 84.8531 13.5187 85.0005 13.6261C85.1479 13.7336 85.349 13.8396 85.59 13.9608C85.8435 14.0821 86.152 14.2157 86.5404 14.363C87.3311 14.6578 87.9743 14.9388 88.4826 15.2198C88.9908 15.5008 89.3931 15.8093 89.6878 16.1303Z" fill="black"/>
<path d="M220.846 8.92383C221.897 8.92383 222.734 9.28484 223.357 10.0069C223.981 10.7125 224.292 11.6724 224.292 12.8867V22.314H221.142V13.379C221.142 11.9842 220.666 11.2868 219.714 11.2868C219.206 11.2868 218.762 11.4509 218.385 11.7791C218.024 12.0909 217.647 12.5832 217.253 13.256V22.314H214.102V13.379C214.102 11.9842 213.626 11.2868 212.675 11.2868C212.149 11.2868 211.698 11.4509 211.321 11.7791C210.96 12.0909 210.582 12.5832 210.188 13.256V22.314H207.038V9.29304H209.77L210.016 10.9914C211.001 9.61303 212.256 8.92383 213.782 8.92383C214.537 8.92383 215.185 9.12074 215.727 9.51457C216.285 9.89199 216.687 10.4253 216.933 11.1145C217.458 10.4089 218.032 9.86738 218.656 9.48996C219.296 9.11254 220.026 8.92383 220.846 8.92383Z" fill="black"/>
<path d="M203.775 8.94824C204.251 8.94824 204.686 9.00568 205.08 9.12054L204.538 12.1727C204.144 12.0743 203.759 12.025 203.381 12.025C202.61 12.025 202.003 12.304 201.56 12.8619C201.117 13.4034 200.764 14.2403 200.501 15.3726V22.3138H197.351V9.29284H200.083L200.378 11.8527C200.69 10.9174 201.141 10.2036 201.732 9.71129C202.323 9.20259 203.004 8.94824 203.775 8.94824Z" fill="black"/>
<path d="M188.293 8.92383C190.213 8.92383 191.706 9.53919 192.773 10.7699C193.856 11.9842 194.397 13.658 194.397 15.7912C194.397 17.1532 194.151 18.3593 193.659 19.4095C193.167 20.4433 192.461 21.2474 191.542 21.8217C190.623 22.3961 189.532 22.6832 188.268 22.6832C186.349 22.6832 184.847 22.0761 183.764 20.8618C182.681 19.6311 182.14 17.9409 182.14 15.7912C182.14 14.4292 182.386 13.2313 182.878 12.1975C183.37 11.1637 184.076 10.3597 184.995 9.78533C185.93 9.211 187.03 8.92383 188.293 8.92383ZM188.293 11.3114C186.406 11.3114 185.462 12.8047 185.462 15.7912C185.462 17.3337 185.692 18.4742 186.152 19.2126C186.628 19.9346 187.333 20.2957 188.268 20.2957C189.204 20.2957 189.901 19.9264 190.361 19.188C190.837 18.4496 191.075 17.3173 191.075 15.7912C191.075 14.2651 190.837 13.1411 190.361 12.4191C189.901 11.6806 189.212 11.3114 188.293 11.3114Z" fill="black"/>
<path d="M179.951 6.11757C179.327 6.11757 178.876 6.26526 178.597 6.56063C178.335 6.83959 178.203 7.29086 178.203 7.91442V9.29282H181.329L180.985 11.5573H178.203V22.3138H175.053V11.5573H172.936V9.29282H175.053V7.86519C175.053 6.63447 175.447 5.64169 176.234 4.88686C177.038 4.11561 178.171 3.72998 179.631 3.72998C180.78 3.72998 181.904 3.98433 183.003 4.49303L182.092 6.60986C181.387 6.28167 180.673 6.11757 179.951 6.11757Z" fill="black"/>
<path d="M172.911 21.6982C172.452 22.0264 171.935 22.2725 171.361 22.4366C170.803 22.6007 170.228 22.6828 169.638 22.6828C168.358 22.6663 167.381 22.3053 166.708 21.5997C166.052 20.8777 165.724 19.8193 165.724 18.4245V11.5571H163.681V9.29255H165.724V6.41267L168.875 6.04346V9.29255H171.902L171.582 11.5571H168.875V18.3506C168.875 18.9906 168.981 19.4501 169.195 19.729C169.424 20.008 169.777 20.1475 170.253 20.1475C170.729 20.1475 171.246 19.9916 171.804 19.6798L172.911 21.6982Z" fill="black"/>
<path d="M161.64 18.868C161.64 19.3767 161.714 19.7541 161.862 20.0003C162.026 20.23 162.28 20.4105 162.625 20.5418L161.96 22.634C161.222 22.5684 160.615 22.3879 160.139 22.0925C159.679 21.7971 159.327 21.3459 159.08 20.7387C158.637 21.3951 158.079 21.8874 157.407 22.2156C156.75 22.5274 156.012 22.6832 155.191 22.6832C153.895 22.6832 152.869 22.314 152.115 21.5756C151.36 20.8372 150.982 19.869 150.982 18.6711C150.982 17.2599 151.491 16.1851 152.508 15.4466C153.542 14.6918 155.011 14.3144 156.914 14.3144H158.539V13.5759C158.539 12.7391 158.342 12.1565 157.948 11.8283C157.571 11.4837 156.955 11.3114 156.102 11.3114C155.15 11.3114 154.002 11.5412 152.656 12.0006L151.918 9.85917C153.542 9.23561 155.118 8.92383 156.644 8.92383C159.975 8.92383 161.64 10.4171 161.64 13.4036V18.868ZM156.028 20.3941C157.095 20.3941 157.932 19.8608 158.539 18.7942V16.1604H157.234C155.2 16.1604 154.182 16.9153 154.182 18.425C154.182 19.0485 154.338 19.5326 154.65 19.8772C154.962 20.2218 155.421 20.3941 156.028 20.3941Z" fill="black"/>
<path d="M147.954 22.683C146.953 22.683 146.165 22.3959 145.591 21.8215C145.033 21.2308 144.754 20.4021 144.754 19.3355V4.07458L147.905 3.72998V19.237C147.905 19.8442 148.151 20.1477 148.643 20.1477C148.889 20.1477 149.135 20.1067 149.382 20.0247L150.046 22.24C149.39 22.5353 148.692 22.683 147.954 22.683Z" fill="black"/>
<path d="M135.695 5.30518C137.877 5.30518 139.567 5.75644 140.765 6.65896C141.979 7.56149 142.587 8.91528 142.587 10.7203C142.587 12.6074 141.979 14.0269 140.765 14.9786C139.551 15.914 137.934 16.3816 135.916 16.3816H133.922V22.3137H130.673V5.30518H135.695ZM135.67 13.9448C136.835 13.9448 137.713 13.7069 138.304 13.231C138.894 12.7387 139.19 11.9018 139.19 10.7203C139.19 8.70196 138.016 7.69277 135.67 7.69277H133.922V13.9448H135.67Z" fill="black"/>
</svg>
