<svg width="336" height="108" viewBox="0 0 336 108" fill="none" xmlns="http://www.w3.org/2000/svg">
<g clip-path="url(#clip0_65_10337)">
<mask id="mask0_65_10337" style="mask-type:luminance" maskUnits="userSpaceOnUse" x="0" y="0" width="336" height="108">
<path d="M336 0H0V108H336V0Z" fill="white"/>
</mask>
<g mask="url(#mask0_65_10337)">
<mask id="mask1_65_10337" style="mask-type:luminance" maskUnits="userSpaceOnUse" x="0" y="0" width="336" height="108">
<path d="M0 0H336V108H0V0Z" fill="white"/>
</mask>
<g mask="url(#mask1_65_10337)">
<g opacity="0.99187">
<mask id="mask2_65_10337" style="mask-type:luminance" maskUnits="userSpaceOnUse" x="28" y="0" width="281" height="108">
<path d="M308.257 0V108H28.0607V0H308.257Z" fill="url(#paint0_radial_65_10337)"/>
</mask>
<g mask="url(#mask2_65_10337)">
<path d="M308.257 0V108H28.0607V0H308.257Z" fill="url(#paint1_radial_65_10337)"/>
</g>
</g>
<g opacity="0.245677">
<mask id="mask3_65_10337" style="mask-type:luminance" maskUnits="userSpaceOnUse" x="127" y="6" width="82" height="82">
<path d="M208.479 46.9879C208.479 69.5038 190.356 87.7561 168 87.7561C145.644 87.7561 127.521 69.5038 127.521 46.9879C127.521 24.4724 145.644 6.21973 168 6.21973C190.356 6.21973 208.479 24.4724 208.479 46.9879Z" fill="url(#paint2_linear_65_10337)"/>
</mask>
<g mask="url(#mask3_65_10337)">
<path d="M208.479 46.9879C208.479 69.5038 190.356 87.7561 168 87.7561C145.644 87.7561 127.521 69.5038 127.521 46.9879C127.521 24.4724 145.644 6.21973 168 6.21973C190.356 6.21973 208.479 24.4724 208.479 46.9879Z" fill="url(#paint3_linear_65_10337)"/>
</g>
</g>
<g opacity="0.381465">
<mask id="mask4_65_10337" style="mask-type:luminance" maskUnits="userSpaceOnUse" x="91" y="4" width="154" height="155">
<path d="M244.672 81.6777C244.672 124.325 210.345 158.897 168 158.897C125.655 158.897 91.3284 124.325 91.3284 81.6777C91.3284 39.0306 125.655 4.45801 168 4.45801C210.345 4.45801 244.672 39.0306 244.672 81.6777Z" fill="url(#paint4_linear_65_10337)"/>
</mask>
<g mask="url(#mask4_65_10337)">
<path d="M244.672 81.6777C244.672 124.325 210.345 158.897 168 158.897C125.655 158.897 91.3284 124.325 91.3284 81.6777C91.3284 39.0306 125.655 4.45801 168 4.45801C210.345 4.45801 244.672 39.0306 244.672 81.6777Z" fill="url(#paint5_linear_65_10337)"/>
</g>
</g>
<mask id="mask5_65_10337" style="mask-type:luminance" maskUnits="userSpaceOnUse" x="0" y="0" width="336" height="108">
<path d="M0 0H336V108H0V0Z" fill="white"/>
</mask>
<g mask="url(#mask5_65_10337)">
<mask id="mask6_65_10337" style="mask-type:alpha" maskUnits="userSpaceOnUse" x="14" y="55" width="137" height="53">
<mask id="mask7_65_10337" style="mask-type:luminance" maskUnits="userSpaceOnUse" x="0" y="0" width="336" height="108">
<path d="M0 0H336V108H0V0Z" fill="white"/>
</mask>
<g mask="url(#mask7_65_10337)">
<path d="M111.802 62.9146C99.4428 64.4417 89.1155 72.5838 84.4193 83.7179C72.7516 84.1024 62.5557 90.3491 56.6457 99.6302C53.5913 97.9112 50.0737 96.927 46.3262 96.927C39.6995 96.927 33.7852 99.9928 29.9001 104.791C29.098 104.698 28.2841 104.645 27.4573 104.645C23.257 104.645 19.3415 105.877 16.0483 108H148.647C149.751 104.608 150.348 100.986 150.348 97.2229C150.348 92.4983 149.406 87.9954 147.702 83.8932C148.41 81.7634 148.8 79.4861 148.8 77.1155C148.8 65.3302 139.314 55.7761 127.612 55.7761C121.326 55.7761 115.682 58.5359 111.802 62.9146Z" fill="white"/>
<path d="M65.895 81.6819C74.3877 81.6819 81.2831 88.6265 81.2831 97.1799C81.2831 105.733 74.3877 112.678 65.895 112.678C57.4024 112.678 50.507 105.733 50.507 97.1799C50.507 88.6265 57.4024 81.6819 65.895 81.6819Z" fill="white"/>
<path d="M35.5649 95.3428C43.2566 95.3428 49.5017 101.632 49.5017 109.379C49.5017 117.126 43.2566 123.416 35.5649 123.416C27.8731 123.416 21.6281 117.126 21.6281 109.379C21.6281 101.632 27.8731 95.3428 35.5649 95.3428Z" fill="white"/>
<path d="M88.4583 65.9641C100.591 65.9641 110.441 75.885 110.441 88.1041C110.441 100.323 100.591 110.244 88.4583 110.244C76.3259 110.244 66.4753 100.323 66.4753 88.1041C66.4753 75.885 76.3259 65.9641 88.4583 65.9641Z" fill="white"/>
<path d="M131.002 68.9041C132.147 68.9041 133.076 69.8397 133.076 70.992C133.076 72.1444 132.147 73.08 131.002 73.08C129.858 73.08 128.929 72.1444 128.929 70.992C128.929 69.8397 129.858 68.9041 131.002 68.9041Z" fill="white"/>
<path d="M31.5682 93.5645C41.1153 93.5645 48.8669 101.371 48.8669 110.987C48.8669 120.602 41.1153 128.409 31.5682 128.409C22.0211 128.409 14.2695 120.602 14.2695 110.987C14.2695 101.371 22.0211 93.5645 31.5682 93.5645Z" fill="white"/>
<path d="M65.895 75.0398C78.0274 75.0398 87.8779 84.9607 87.8779 97.1798C87.8779 109.399 78.0274 119.32 65.895 119.32C53.7626 119.32 43.912 109.399 43.912 97.1798C43.912 84.9607 53.7626 75.0398 65.895 75.0398Z" fill="white"/>
</g>
</mask>
<g mask="url(#mask6_65_10337)">
<mask id="mask8_65_10337" style="mask-type:luminance" maskUnits="userSpaceOnUse" x="0" y="0" width="336" height="108">
<path d="M336 0V108H0V0H336Z" fill="url(#paint6_radial_65_10337)"/>
</mask>
<g mask="url(#mask8_65_10337)">
<path d="M336 0V108H0V0H336Z" fill="url(#paint7_radial_65_10337)"/>
</g>
</g>
<mask id="mask9_65_10337" style="mask-type:alpha" maskUnits="userSpaceOnUse" x="185" y="55" width="137" height="53">
<mask id="mask10_65_10337" style="mask-type:luminance" maskUnits="userSpaceOnUse" x="0" y="0" width="336" height="108">
<path d="M336 0H0V108H336V0Z" fill="white"/>
</mask>
<g mask="url(#mask10_65_10337)">
<path d="M224.198 62.9146C236.557 64.4417 246.885 72.5838 251.581 83.7179C263.248 84.1024 273.444 90.3491 279.354 99.6302C282.409 97.9112 285.926 96.927 289.674 96.927C296.3 96.927 302.215 99.9928 306.1 104.791C306.902 104.698 307.716 104.645 308.543 104.645C312.743 104.645 316.659 105.877 319.952 108H187.353C186.249 104.608 185.652 100.986 185.652 97.2229C185.652 92.4983 186.594 87.9954 188.298 83.8932C187.59 81.7634 187.2 79.4861 187.2 77.1155C187.2 65.3302 196.686 55.7761 208.388 55.7761C214.674 55.7761 220.318 58.5359 224.198 62.9146Z" fill="white"/>
<path d="M270.105 81.6819C261.612 81.6819 254.717 88.6265 254.717 97.1799C254.717 105.733 261.612 112.678 270.105 112.678C278.598 112.678 285.493 105.733 285.493 97.1799C285.493 88.6265 278.598 81.6819 270.105 81.6819Z" fill="white"/>
<path d="M300.435 95.3428C292.743 95.3428 286.498 101.632 286.498 109.379C286.498 117.126 292.743 123.416 300.435 123.416C308.127 123.416 314.372 117.126 314.372 109.379C314.372 101.632 308.127 95.3428 300.435 95.3428Z" fill="white"/>
<path d="M247.542 65.9641C235.409 65.9641 225.559 75.885 225.559 88.1041C225.559 100.323 235.409 110.244 247.542 110.244C259.674 110.244 269.525 100.323 269.525 88.1041C269.525 75.885 259.674 65.9641 247.542 65.9641Z" fill="white"/>
<path d="M204.998 68.9041C203.853 68.9041 202.924 69.8397 202.924 70.992C202.924 72.1444 203.853 73.08 204.998 73.08C206.142 73.08 207.071 72.1444 207.071 70.992C207.071 69.8397 206.142 68.9041 204.998 68.9041Z" fill="white"/>
<path d="M304.432 93.5645C294.885 93.5645 287.133 101.371 287.133 110.987C287.133 120.602 294.885 128.409 304.432 128.409C313.979 128.409 321.73 120.602 321.73 110.987C321.73 101.371 313.979 93.5645 304.432 93.5645Z" fill="white"/>
<path d="M270.105 75.0398C257.973 75.0398 248.122 84.9607 248.122 97.1798C248.122 109.399 257.973 119.32 270.105 119.32C282.237 119.32 292.088 109.399 292.088 97.1798C292.088 84.9607 282.237 75.0398 270.105 75.0398Z" fill="white"/>
</g>
</mask>
<g mask="url(#mask9_65_10337)">
<mask id="mask11_65_10337" style="mask-type:luminance" maskUnits="userSpaceOnUse" x="0" y="0" width="336" height="108">
<path d="M336 0V108H0V0H336Z" fill="url(#paint8_radial_65_10337)"/>
</mask>
<g mask="url(#mask11_65_10337)">
<path d="M336 0V108H0V0H336Z" fill="url(#paint9_radial_65_10337)"/>
</g>
</g>
</g>
<mask id="mask12_65_10337" style="mask-type:luminance" maskUnits="userSpaceOnUse" x="0" y="0" width="336" height="108">
<path d="M0 0H336V108H0V0Z" fill="white"/>
</mask>
<g mask="url(#mask12_65_10337)">
<mask id="mask13_65_10337" style="mask-type:alpha" maskUnits="userSpaceOnUse" x="0" y="33" width="336" height="109">
<path d="M336 33.48V141.48H0V33.48H336Z" fill="#7F7F7F"/>
</mask>
<g mask="url(#mask13_65_10337)">
<path d="M207.384 30.6792L207.386 31.5972C207.444 73.1804 240.461 107.399 281.745 107.989C282.253 107.996 282.76 108 283.268 108H336V248.479H0V108H52.732C53.2399 108 53.7475 107.996 54.2543 107.989C95.532 107.399 128.56 73.2172 128.677 31.6408L128.68 30.6806L168.159 53.6371L207.384 30.6792Z" fill="white"/>
</g>
<mask id="mask14_65_10337" style="mask-type:luminance" maskUnits="userSpaceOnUse" x="0" y="0" width="336" height="108">
<path d="M0 0H336V108H0V0Z" fill="white"/>
</mask>
<g mask="url(#mask14_65_10337)">
<path d="M116.077 69.9221C121.895 69.9221 126.62 74.6803 126.62 80.5407C126.62 86.4012 121.895 91.1594 116.077 91.1594C110.258 91.1594 105.533 86.4012 105.533 80.5407C105.533 74.6803 110.258 69.9221 116.077 69.9221Z" fill="white"/>
<path d="M128.845 49.8293C133.016 49.8293 136.403 53.2405 136.403 57.4417C136.403 61.643 133.016 65.0541 128.845 65.0541C124.673 65.0541 121.286 61.643 121.286 57.4417C121.286 53.2405 124.673 49.8293 128.845 49.8293Z" fill="white"/>
<path d="M66.7929 102.401C69.4598 102.401 71.6251 104.582 71.6251 107.268C71.6251 109.954 69.4598 112.135 66.7929 112.135C64.1261 112.135 61.9608 109.954 61.9608 107.268C61.9608 104.582 64.1261 102.401 66.7929 102.401Z" fill="white"/>
<path d="M114.389 71.9424C120.208 71.9424 124.933 76.7012 124.933 82.5624C124.933 88.4236 120.208 93.1824 114.389 93.1824C108.569 93.1824 103.844 88.4236 103.844 82.5624C103.844 76.7012 108.569 71.9424 114.389 71.9424Z" fill="white"/>
<path d="M123.368 62.1777C127.438 62.1777 130.743 65.5064 130.743 69.6062C130.743 73.7059 127.438 77.0346 123.368 77.0346C119.297 77.0346 115.992 73.7059 115.992 69.6062C115.992 65.5064 119.297 62.1777 123.368 62.1777Z" fill="white"/>
<path d="M60.2832 107.354C60.598 107.354 60.8536 107.612 60.8536 107.929C60.8536 108.246 60.598 108.503 60.2832 108.503C59.9685 108.503 59.7129 108.246 59.7129 107.929C59.7129 107.612 59.9685 107.354 60.2832 107.354Z" fill="white"/>
<path d="M89.7918 93.3174C93.8655 93.3174 97.1731 96.6486 97.1731 100.751C97.1731 104.854 93.8655 108.185 89.7918 108.185C85.7181 108.185 82.4105 104.854 82.4105 100.751C82.4105 96.6486 85.7181 93.3174 89.7918 93.3174Z" fill="white"/>
</g>
<mask id="mask15_65_10337" style="mask-type:luminance" maskUnits="userSpaceOnUse" x="0" y="0" width="336" height="108">
<path d="M336 0H0V108H336V0Z" fill="white"/>
</mask>
<g mask="url(#mask15_65_10337)">
<path d="M219.923 69.9221C214.105 69.9221 209.38 74.6803 209.38 80.5407C209.38 86.4012 214.105 91.1594 219.923 91.1594C225.742 91.1594 230.467 86.4012 230.467 80.5407C230.467 74.6803 225.742 69.9221 219.923 69.9221Z" fill="white"/>
<path d="M207.155 49.8293C202.984 49.8293 199.597 53.2405 199.597 57.4417C199.597 61.643 202.984 65.0541 207.155 65.0541C211.327 65.0541 214.714 61.643 214.714 57.4417C214.714 53.2405 211.327 49.8293 207.155 49.8293Z" fill="white"/>
<path d="M269.207 102.401C266.54 102.401 264.375 104.582 264.375 107.268C264.375 109.954 266.54 112.135 269.207 112.135C271.874 112.135 274.039 109.954 274.039 107.268C274.039 104.582 271.874 102.401 269.207 102.401Z" fill="white"/>
<path d="M221.611 71.9424C215.792 71.9424 211.067 76.7012 211.067 82.5624C211.067 88.4236 215.792 93.1824 221.611 93.1824C227.431 93.1824 232.156 88.4236 232.156 82.5624C232.156 76.7012 227.431 71.9424 221.611 71.9424Z" fill="white"/>
<path d="M212.632 62.1777C208.562 62.1777 205.257 65.5064 205.257 69.6062C205.257 73.7059 208.562 77.0346 212.632 77.0346C216.703 77.0346 220.008 73.7059 220.008 69.6062C220.008 65.5064 216.703 62.1777 212.632 62.1777Z" fill="white"/>
<path d="M275.717 107.354C275.402 107.354 275.146 107.612 275.146 107.929C275.146 108.246 275.402 108.503 275.717 108.503C276.032 108.503 276.287 108.246 276.287 107.929C276.287 107.612 276.032 107.354 275.717 107.354Z" fill="white"/>
<path d="M246.208 93.3174C242.134 93.3174 238.827 96.6486 238.827 100.751C238.827 104.854 242.134 108.185 246.208 108.185C250.282 108.185 253.589 104.854 253.589 100.751C253.589 96.6486 250.282 93.3174 246.208 93.3174Z" fill="white"/>
</g>
</g>
<mask id="mask16_65_10337" style="mask-type:alpha" maskUnits="userSpaceOnUse" x="0" y="33" width="336" height="75">
<mask id="mask17_65_10337" style="mask-type:luminance" maskUnits="userSpaceOnUse" x="0" y="0" width="336" height="108">
<path d="M0 0H336V108H0V0Z" fill="white"/>
</mask>
<g mask="url(#mask17_65_10337)">
<mask id="mask18_65_10337" style="mask-type:alpha" maskUnits="userSpaceOnUse" x="0" y="33" width="336" height="109">
<path d="M336 33.48V141.48H0V33.48H336Z" fill="#7F7F7F"/>
</mask>
<g mask="url(#mask18_65_10337)">
<path d="M207.384 30.6792L207.386 31.5972C207.444 73.1804 240.461 107.399 281.745 107.989C282.253 107.996 282.76 108 283.268 108H336V248.479H0V108H52.732C53.2399 108 53.7475 107.996 54.2543 107.989C95.532 107.399 128.56 73.2172 128.677 31.6408L128.68 30.6806L168.159 53.6371L207.384 30.6792Z" fill="white"/>
</g>
<mask id="mask19_65_10337" style="mask-type:luminance" maskUnits="userSpaceOnUse" x="0" y="0" width="336" height="108">
<path d="M0 0H336V108H0V0Z" fill="white"/>
</mask>
<g mask="url(#mask19_65_10337)">
<path d="M116.077 69.9221C121.895 69.9221 126.62 74.6803 126.62 80.5407C126.62 86.4012 121.895 91.1594 116.077 91.1594C110.258 91.1594 105.533 86.4012 105.533 80.5407C105.533 74.6803 110.258 69.9221 116.077 69.9221Z" fill="white"/>
<path d="M128.845 49.8293C133.016 49.8293 136.403 53.2405 136.403 57.4417C136.403 61.643 133.016 65.0541 128.845 65.0541C124.673 65.0541 121.286 61.643 121.286 57.4417C121.286 53.2405 124.673 49.8293 128.845 49.8293Z" fill="white"/>
<path d="M66.7929 102.401C69.4598 102.401 71.6251 104.582 71.6251 107.268C71.6251 109.954 69.4598 112.135 66.7929 112.135C64.1261 112.135 61.9608 109.954 61.9608 107.268C61.9608 104.582 64.1261 102.401 66.7929 102.401Z" fill="white"/>
<path d="M114.389 71.9424C120.208 71.9424 124.933 76.7012 124.933 82.5624C124.933 88.4236 120.208 93.1824 114.389 93.1824C108.569 93.1824 103.844 88.4236 103.844 82.5624C103.844 76.7012 108.569 71.9424 114.389 71.9424Z" fill="white"/>
<path d="M123.368 62.1777C127.438 62.1777 130.743 65.5064 130.743 69.6062C130.743 73.7059 127.438 77.0346 123.368 77.0346C119.297 77.0346 115.992 73.7059 115.992 69.6062C115.992 65.5064 119.297 62.1777 123.368 62.1777Z" fill="white"/>
<path d="M60.2832 107.354C60.598 107.354 60.8536 107.612 60.8536 107.929C60.8536 108.246 60.598 108.503 60.2832 108.503C59.9685 108.503 59.7129 108.246 59.7129 107.929C59.7129 107.612 59.9685 107.354 60.2832 107.354Z" fill="white"/>
<path d="M89.7918 93.3174C93.8655 93.3174 97.1731 96.6486 97.1731 100.751C97.1731 104.854 93.8655 108.185 89.7918 108.185C85.7181 108.185 82.4105 104.854 82.4105 100.751C82.4105 96.6486 85.7181 93.3174 89.7918 93.3174Z" fill="white"/>
</g>
<mask id="mask20_65_10337" style="mask-type:luminance" maskUnits="userSpaceOnUse" x="0" y="0" width="336" height="108">
<path d="M336 0H0V108H336V0Z" fill="white"/>
</mask>
<g mask="url(#mask20_65_10337)">
<path d="M219.923 69.9221C214.105 69.9221 209.38 74.6803 209.38 80.5407C209.38 86.4012 214.105 91.1594 219.923 91.1594C225.742 91.1594 230.467 86.4012 230.467 80.5407C230.467 74.6803 225.742 69.9221 219.923 69.9221Z" fill="white"/>
<path d="M207.155 49.8293C202.984 49.8293 199.597 53.2405 199.597 57.4417C199.597 61.643 202.984 65.0541 207.155 65.0541C211.327 65.0541 214.714 61.643 214.714 57.4417C214.714 53.2405 211.327 49.8293 207.155 49.8293Z" fill="white"/>
<path d="M269.207 102.401C266.54 102.401 264.375 104.582 264.375 107.268C264.375 109.954 266.54 112.135 269.207 112.135C271.874 112.135 274.039 109.954 274.039 107.268C274.039 104.582 271.874 102.401 269.207 102.401Z" fill="white"/>
<path d="M221.611 71.9424C215.792 71.9424 211.067 76.7012 211.067 82.5624C211.067 88.4236 215.792 93.1824 221.611 93.1824C227.431 93.1824 232.156 88.4236 232.156 82.5624C232.156 76.7012 227.431 71.9424 221.611 71.9424Z" fill="white"/>
<path d="M212.632 62.1777C208.562 62.1777 205.257 65.5064 205.257 69.6062C205.257 73.7059 208.562 77.0346 212.632 77.0346C216.703 77.0346 220.008 73.7059 220.008 69.6062C220.008 65.5064 216.703 62.1777 212.632 62.1777Z" fill="white"/>
<path d="M275.717 107.354C275.402 107.354 275.146 107.612 275.146 107.929C275.146 108.246 275.402 108.503 275.717 108.503C276.032 108.503 276.287 108.246 276.287 107.929C276.287 107.612 276.032 107.354 275.717 107.354Z" fill="white"/>
<path d="M246.208 93.3174C242.134 93.3174 238.827 96.6486 238.827 100.751C238.827 104.854 242.134 108.185 246.208 108.185C250.282 108.185 253.589 104.854 253.589 100.751C253.589 96.6486 250.282 93.3174 246.208 93.3174Z" fill="white"/>
</g>
</g>
</mask>
<g mask="url(#mask16_65_10337)">
<mask id="mask21_65_10337" style="mask-type:luminance" maskUnits="userSpaceOnUse" x="0" y="0" width="336" height="108">
<path d="M336 0V108H0V0H336Z" fill="url(#paint10_linear_65_10337)"/>
</mask>
<g mask="url(#mask21_65_10337)">
<path d="M336 0V108H0V0H336Z" fill="url(#paint11_linear_65_10337)"/>
</g>
</g>
<mask id="mask22_65_10337" style="mask-type:luminance" maskUnits="userSpaceOnUse" x="0" y="0" width="336" height="109">
<path d="M0 0.211426H336V108.211H0V0.211426Z" fill="white"/>
</mask>
<g mask="url(#mask22_65_10337)">
<mask id="mask23_65_10337" style="mask-type:luminance" maskUnits="userSpaceOnUse" x="143" y="77" width="49" height="29">
<path d="M169.355 77.1924L143.157 90.322L165.454 105.661L191.86 92.6849L169.355 77.1924Z" fill="url(#paint12_linear_65_10337)"/>
</mask>
<g mask="url(#mask23_65_10337)">
<path d="M169.355 77.1924L143.157 90.322L165.454 105.661L191.86 92.6849L169.355 77.1924Z" fill="url(#paint13_linear_65_10337)"/>
</g>
<path d="M128.413 29.4614L128.011 75.0464L164.47 100.066L164.582 53.9864L128.413 29.4614Z" fill="url(#paint14_linear_65_10337)"/>
<path d="M206.426 33.3538L164.247 54.0314L164.202 100.201L206.694 79.0964L206.426 33.3538Z" fill="url(#paint15_linear_65_10337)"/>
<path d="M170.48 8.40137L128.323 29.529L164.202 54.2114L206.694 33.3314L170.48 8.40137Z" fill="url(#paint16_linear_65_10337)"/>
<path d="M190.09 57.2153L187.698 64.0975L176.762 69.4161C175.58 67.6868 177.077 63.8263 179.473 62.4335L190.09 57.2153Z" fill="white"/>
<path d="M179.802 70.5851L185.151 67.6978L190.489 75.1707L187.746 82.0024L179.802 70.5851Z" fill="white"/>
<path d="M193.643 54.1002L199.215 51.5808L191.314 70.9287L188.139 67.1563L193.643 54.1002Z" fill="white"/>
</g>
<mask id="mask24_65_10337" style="mask-type:luminance" maskUnits="userSpaceOnUse" x="0" y="0" width="336" height="108">
<path d="M0 0H336V108H0V0Z" fill="white"/>
</mask>
<g mask="url(#mask24_65_10337)">
<g opacity="0.4">
<path d="M247.828 58.7828C247.828 58.9837 247.989 59.1464 248.188 59.1464C248.388 59.1464 248.55 58.9837 248.55 58.7828C248.55 58.5819 248.388 58.4192 248.188 58.4192C247.989 58.4192 247.828 58.5819 247.828 58.7828Z" fill="white"/>
</g>
<path d="M53.6842 103.707C53.6842 103.908 53.8458 104.071 54.0452 104.071C54.2447 104.071 54.4066 103.908 54.4066 103.707C54.4066 103.506 54.2447 103.344 54.0452 103.344C53.8458 103.344 53.6842 103.506 53.6842 103.707Z" fill="#00BDFF"/>
<g opacity="0.4">
<path d="M89.5933 72.4032C89.5933 72.604 89.7545 72.7668 89.9539 72.7668C90.1534 72.7668 90.3153 72.604 90.3153 72.4032C90.3153 72.2023 90.1534 72.0396 89.9539 72.0396C89.7545 72.0396 89.5933 72.2023 89.5933 72.4032Z" fill="#00BDFF"/>
</g>
<g opacity="0.75">
<path d="M73.6543 86.9246C73.6543 87.1255 73.8159 87.2882 74.0153 87.2882C74.2148 87.2882 74.3767 87.1255 74.3767 86.9246C74.3767 86.7238 74.2148 86.561 74.0153 86.561C73.8159 86.561 73.6543 86.7238 73.6543 86.9246Z" fill="white"/>
</g>
<g opacity="0.4">
<path d="M43.176 78.3724C43.176 78.5733 43.3372 78.736 43.5367 78.736C43.7361 78.736 43.8981 78.5733 43.8981 78.3724C43.8981 78.1715 43.7361 78.0088 43.5367 78.0088C43.3372 78.0088 43.176 78.1715 43.176 78.3724Z" fill="white"/>
</g>
<g opacity="0.75">
<path d="M310.776 90.2542C310.776 90.4551 310.938 90.6178 311.137 90.6178C311.336 90.6178 311.498 90.4551 311.498 90.2542C311.498 90.0533 311.336 89.8906 311.137 89.8906C310.938 89.8906 310.776 90.0533 310.776 90.2542Z" fill="white"/>
</g>
<g opacity="0.75">
<path d="M245.368 64.2432C245.368 64.6878 245.726 65.0482 246.168 65.0482C246.609 65.0482 246.967 64.6878 246.967 64.2432C246.967 63.7986 246.609 63.4382 246.168 63.4382C245.726 63.4382 245.368 63.7986 245.368 64.2432Z" fill="#00BDFF"/>
</g>
<g opacity="0.4">
<path d="M93.6128 63.2647C93.6128 63.7093 93.9706 64.0696 94.412 64.0696C94.8535 64.0696 95.2113 63.7093 95.2113 63.2647C95.2113 62.8201 94.8535 62.4597 94.412 62.4597C93.9706 62.4597 93.6128 62.8201 93.6128 63.2647Z" fill="white"/>
</g>
<path d="M271.628 83.4444C271.628 83.889 271.986 84.2493 272.427 84.2493C272.869 84.2493 273.227 83.889 273.227 83.4444C273.227 82.9998 272.869 82.6394 272.427 82.6394C271.986 82.6394 271.628 82.9998 271.628 83.4444Z" fill="#00BDFF"/>
<g opacity="0.4">
<path d="M283.744 84.9905C283.744 85.4351 284.102 85.7955 284.543 85.7955C284.985 85.7955 285.342 85.4351 285.342 84.9905C285.342 84.5459 284.985 84.1855 284.543 84.1855C284.102 84.1855 283.744 84.5459 283.744 84.9905Z" fill="#00BDFF"/>
</g>
<mask id="mask25_65_10337" style="mask-type:luminance" maskUnits="userSpaceOnUse" x="0" y="0" width="336" height="108">
<path d="M0 0H336V108H0V0Z" fill="white"/>
</mask>
<g mask="url(#mask25_65_10337)">
<g opacity="0.5">
<path d="M122.247 27.54C122.247 32.2545 121.842 36.8737 121.066 41.3645" stroke="white" stroke-width="0.500973" stroke-linecap="round" stroke-linejoin="round"/>
</g>
</g>
</g>
<mask id="mask26_65_10337" style="mask-type:luminance" maskUnits="userSpaceOnUse" x="0" y="0" width="336" height="109">
<path d="M0 0.571289H336V108.571H0V0.571289Z" fill="white"/>
</mask>
<g mask="url(#mask26_65_10337)">
<g opacity="0.666205">
<mask id="mask27_65_10337" style="mask-type:luminance" maskUnits="userSpaceOnUse" x="100" y="46" width="60" height="61">
<path d="M100.585 46.5698H159.826V106.234H100.585V46.5698Z" fill="url(#paint17_radial_65_10337)"/>
</mask>
<g mask="url(#mask27_65_10337)">
<path d="M100.585 46.5698H159.826V106.234H100.585V46.5698Z" fill="url(#paint18_radial_65_10337)"/>
</g>
</g>
<g opacity="0.905962">
<mask id="mask28_65_10337" style="mask-type:luminance" maskUnits="userSpaceOnUse" x="186" y="11" width="42" height="41">
<path d="M186.965 11.166H227.509V51.9998H186.965V11.166Z" fill="url(#paint19_radial_65_10337)"/>
</mask>
<g mask="url(#mask28_65_10337)">
<path d="M186.965 11.166H227.509V51.9998H186.965V11.166Z" fill="url(#paint20_radial_65_10337)"/>
</g>
</g>
<path d="M213.244 31.6598C210.771 33.0221 208.737 35.0705 207.384 37.5614C206.032 35.0705 203.998 33.0221 201.524 31.6598C203.998 30.2974 206.032 28.249 207.384 25.7581C208.737 28.249 210.771 30.2974 213.244 31.6598Z" fill="white"/>
<path d="M157.141 62.805C154.274 64.3843 151.916 66.7587 150.348 69.6465C148.78 66.7587 146.422 64.3843 143.555 62.805C146.422 61.2256 148.78 58.8513 150.348 55.9634C151.916 58.8513 154.274 61.2256 157.141 62.805Z" fill="white"/>
<path d="M143.125 71.7087C141.531 72.5868 140.22 73.907 139.348 75.5128C138.476 73.907 137.165 72.5868 135.571 71.7087C137.165 70.8305 138.476 69.5103 139.348 67.9045C140.22 69.5103 141.531 70.8305 143.125 71.7087Z" fill="#FF7521"/>
<path d="M237.708 44.3792C236.744 44.9105 235.951 45.7091 235.423 46.6808C234.896 45.7091 234.102 44.9105 233.138 44.3792C234.102 43.8479 234.896 43.0493 235.423 42.0776C235.951 43.0493 236.744 43.8479 237.708 44.3792Z" fill="#326CE5"/>
<path d="M208.978 93.1844C208.305 93.555 207.752 94.112 207.384 94.7895C207.016 94.112 206.463 93.555 205.791 93.1844C206.463 92.8138 207.016 92.2569 207.384 91.5793C207.752 92.2569 208.305 92.8138 208.978 93.1844Z" fill="#FF7521"/>
<path d="M96.9281 43.1605C95.0418 44.1996 93.4905 45.7617 92.4587 47.6615C91.4272 45.7617 89.8762 44.1996 87.9899 43.1605C89.8762 42.1213 91.4272 40.5592 92.4587 38.6594C93.4905 40.5592 95.0418 42.1213 96.9281 43.1605Z" fill="#326CE5"/>
</g>
</g>
</g>
</g>
<defs>
<radialGradient id="paint0_radial_65_10337" cx="0" cy="0" r="1" gradientUnits="userSpaceOnUse" gradientTransform="translate(168.159 108) scale(109.022 109.801)">
<stop stop-color="white"/>
<stop offset="0.41" stop-color="white" stop-opacity="0.5"/>
<stop offset="1" stop-color="white" stop-opacity="0"/>
</radialGradient>
<radialGradient id="paint1_radial_65_10337" cx="0" cy="0" r="1" gradientUnits="userSpaceOnUse" gradientTransform="translate(168.159 108) scale(109.022 109.801)">
<stop stop-color="#2057F2"/>
<stop offset="0.25" stop-color="#2057F2"/>
<stop offset="1" stop-color="#2057F2"/>
</radialGradient>
<linearGradient id="paint2_linear_65_10337" x1="168" y1="6.30793" x2="168" y2="48.0679" gradientUnits="userSpaceOnUse">
<stop stop-color="white"/>
<stop offset="0.16" stop-color="white" stop-opacity="0.5"/>
<stop offset="1" stop-color="white" stop-opacity="0"/>
</linearGradient>
<linearGradient id="paint3_linear_65_10337" x1="168" y1="6.30793" x2="168" y2="48.0679" gradientUnits="userSpaceOnUse">
<stop stop-color="#84FDFF"/>
<stop offset="0.25" stop-color="#84FDFF"/>
<stop offset="1" stop-color="#84FDFF"/>
</linearGradient>
<linearGradient id="paint4_linear_65_10337" x1="168.357" y1="1.66225" x2="168.72" y2="53.1422" gradientUnits="userSpaceOnUse">
<stop stop-color="white"/>
<stop offset="0.28" stop-color="white" stop-opacity="0.5"/>
<stop offset="1" stop-color="white" stop-opacity="0"/>
</linearGradient>
<linearGradient id="paint5_linear_65_10337" x1="168.357" y1="1.66225" x2="168.72" y2="53.1422" gradientUnits="userSpaceOnUse">
<stop stop-color="#84FDFF"/>
<stop offset="0.25" stop-color="#84FDFF"/>
<stop offset="1" stop-color="#84FDFF"/>
</linearGradient>
<radialGradient id="paint6_radial_65_10337" cx="0" cy="0" r="1" gradientUnits="userSpaceOnUse" gradientTransform="translate(168.715 0.359998) scale(175.149 176.4)">
<stop stop-color="white"/>
<stop offset="0.47" stop-color="white" stop-opacity="0.5"/>
<stop offset="1" stop-color="white" stop-opacity="0"/>
</radialGradient>
<radialGradient id="paint7_radial_65_10337" cx="0" cy="0" r="1" gradientUnits="userSpaceOnUse" gradientTransform="translate(168.715 0.359998) scale(175.149 176.4)">
<stop stop-color="#00BDFF"/>
<stop offset="0.25" stop-color="#00BDFF"/>
<stop offset="1" stop-color="#00BDFF"/>
</radialGradient>
<radialGradient id="paint8_radial_65_10337" cx="0" cy="0" r="1" gradientUnits="userSpaceOnUse" gradientTransform="translate(168.715 0.359998) scale(175.149 176.4)">
<stop stop-color="white"/>
<stop offset="0.47" stop-color="white" stop-opacity="0.5"/>
<stop offset="1" stop-color="white" stop-opacity="0"/>
</radialGradient>
<radialGradient id="paint9_radial_65_10337" cx="0" cy="0" r="1" gradientUnits="userSpaceOnUse" gradientTransform="translate(168.715 0.359998) scale(175.149 176.4)">
<stop stop-color="#00BDFF"/>
<stop offset="0.25" stop-color="#00BDFF"/>
<stop offset="1" stop-color="#00BDFF"/>
</radialGradient>
<linearGradient id="paint10_linear_65_10337" x1="168" y1="28.08" x2="168" y2="95.76" gradientUnits="userSpaceOnUse">
<stop stop-color="white"/>
<stop offset="0.47" stop-color="white" stop-opacity="0.5"/>
<stop offset="1" stop-color="white" stop-opacity="0"/>
</linearGradient>
<linearGradient id="paint11_linear_65_10337" x1="168" y1="28.08" x2="168" y2="95.76" gradientUnits="userSpaceOnUse">
<stop stop-color="#326CE5"/>
<stop offset="0.25" stop-color="#326CE5"/>
<stop offset="1" stop-color="#326CE5"/>
</linearGradient>
<linearGradient id="paint12_linear_65_10337" x1="136.716" y1="92.9645" x2="201.136" y2="89.9869" gradientUnits="userSpaceOnUse">
<stop stop-color="white" stop-opacity="0"/>
<stop offset="0.45" stop-color="white" stop-opacity="0.5"/>
<stop offset="1" stop-color="white"/>
</linearGradient>
<linearGradient id="paint13_linear_65_10337" x1="136.716" y1="92.9645" x2="201.136" y2="89.9869" gradientUnits="userSpaceOnUse">
<stop stop-color="#326CE5"/>
<stop offset="0.25" stop-color="#326CE5"/>
<stop offset="1" stop-color="#326CE5"/>
</linearGradient>
<linearGradient id="paint14_linear_65_10337" x1="170.323" y1="53.6714" x2="128.164" y2="78.9658" gradientUnits="userSpaceOnUse">
<stop stop-color="#F87326"/>
<stop offset="0.59" stop-color="#FBB993"/>
<stop offset="1" stop-color="white"/>
</linearGradient>
<linearGradient id="paint15_linear_65_10337" x1="160.315" y1="51.5114" x2="288.911" y2="124.881" gradientUnits="userSpaceOnUse">
<stop stop-color="#F87326"/>
<stop offset="0.25" stop-color="#FBB993"/>
<stop offset="1" stop-color="white"/>
</linearGradient>
<linearGradient id="paint16_linear_65_10337" x1="128.681" y1="33.7814" x2="206.429" y2="29.3448" gradientUnits="userSpaceOnUse">
<stop stop-color="#F87326"/>
<stop offset="0.63" stop-color="#854E49"/>
<stop offset="1" stop-color="#11296C"/>
</linearGradient>
<radialGradient id="paint17_radial_65_10337" cx="0" cy="0" r="1" gradientUnits="userSpaceOnUse" gradientTransform="translate(130.205 76.4019) scale(27.5234 27.72)">
<stop stop-color="white"/>
<stop offset="0.36" stop-color="white" stop-opacity="0.5"/>
<stop offset="1" stop-color="white" stop-opacity="0"/>
</radialGradient>
<radialGradient id="paint18_radial_65_10337" cx="0" cy="0" r="1" gradientUnits="userSpaceOnUse" gradientTransform="translate(130.205 76.4019) scale(27.5234 27.72)">
<stop stop-color="white"/>
<stop offset="0.25" stop-color="#F2F2F2"/>
<stop offset="1" stop-color="#E5E5E5"/>
</radialGradient>
<radialGradient id="paint19_radial_65_10337" cx="0" cy="0" r="1" gradientUnits="userSpaceOnUse" gradientTransform="translate(207.237 31.5829) scale(18.8368 18.9714)">
<stop stop-color="white"/>
<stop offset="0.36" stop-color="white" stop-opacity="0.5"/>
<stop offset="1" stop-color="white" stop-opacity="0"/>
</radialGradient>
<radialGradient id="paint20_radial_65_10337" cx="0" cy="0" r="1" gradientUnits="userSpaceOnUse" gradientTransform="translate(207.237 31.5829) scale(18.8368 18.9714)">
<stop stop-color="white"/>
<stop offset="0.25" stop-color="#F2F2F2"/>
<stop offset="1" stop-color="#E5E5E5"/>
</radialGradient>
<clipPath id="clip0_65_10337">
<rect width="336" height="108" fill="white"/>
</clipPath>
</defs>
</svg>
