<svg width="25" height="24" viewBox="0 0 25 24" xmlns="http://www.w3.org/2000/svg">
<g clip-path="url(#clip0)">
<path d="M18.4393 11.823C17.3707 9.00433 14.6477 7 11.458 7C8.26833 7 5.54533 9.002 4.47667 11.8207C2.477 12.3457 1 14.1657 1 16.3333C1 18.9117 3.08833 21 5.66433 21H17.2423C19.8183 21 21.9067 18.9117 21.9067 16.3333C21.9067 14.1703 20.4343 12.3503 18.4393 11.823ZM19.2863 18.3797C19.0186 18.649 18.7 18.8625 18.3492 19.0079C17.9983 19.1533 17.6221 19.2277 17.2423 19.2267H5.66433C4.892 19.2267 4.16633 18.9257 3.62033 18.3797C3.35096 18.1114 3.13742 17.7925 2.99204 17.4413C2.84666 17.09 2.77232 16.7135 2.77333 16.3333C2.77333 15.68 2.98567 15.0663 3.38467 14.553C3.7754 14.0557 4.3164 13.6981 4.927 13.5333L5.81133 13.3023L6.13567 12.4483C6.33633 11.9163 6.61633 11.4193 6.96867 10.969C7.3165 10.5227 7.72853 10.1303 8.19133 9.80467C9.15033 9.13033 10.2797 8.77333 11.458 8.77333C12.6363 8.77333 13.7657 9.13033 14.7247 9.80467C15.189 10.1313 15.5997 10.5233 15.9473 10.969C16.2997 11.4193 16.5797 11.9187 16.7803 12.4483L17.1023 13.3L17.9843 13.5333C19.2513 13.8717 20.1333 15.022 20.1333 16.3333C20.1333 17.1057 19.8323 17.8337 19.2863 18.3797Z" />
<path d="M17.723 2C19.7735 2 21.524 3.2885 22.211 5.1005C23.4935 5.4395 24.44 6.6095 24.44 8C24.44 9.6575 23.0975 11 21.4415 11H18.5C18.398 10.7 18 10 17.8086 9.86H21.4415C21.6857 9.86064 21.9275 9.81285 22.1531 9.71938C22.3786 9.62592 22.5834 9.48864 22.7555 9.3155C23.1065 8.9645 23.3 8.4965 23.3 8C23.3 7.157 22.733 6.4175 21.9185 6.2L21.3515 6.05L21.1445 5.5025C21.0155 5.162 20.8355 4.841 20.609 4.5515C20.3855 4.265 20.1215 4.013 19.823 3.803C19.2065 3.3695 18.4805 3.14 17.723 3.14C16.9655 3.14 16.2395 3.3695 15.623 3.803C15.3255 4.01232 15.0606 4.26456 14.837 4.5515C14.6105 4.841 14.4305 5.1605 14.3015 5.5025L14.093 6.0515L13.5245 6.2C13.2568 6.27222 12.893 6.55088 12.6888 6.72076C12.256 6.60797 12 6.60797 11.3418 6.60797C11.3787 6.49256 11.4429 6.42702 11.5 6.34108C11.9014 5.73748 12.5156 5.28788 13.235 5.099C13.922 3.287 15.6725 2 17.723 2Z" />
</g>
<defs>
<clipPath id="clip0">
<rect width="24" height="24" transform="translate(0.998047)"/>
</clipPath>
</defs>
</svg>
