<svg width="24" height="24" viewBox="0 0 24 24" xmlns="http://www.w3.org/2000/svg">
<path d="M11.9576 1.59409C6.24321 1.59409 1.59458 6.24272 1.59458 11.9571C1.59458 14.0688 2.23073 16.0338 3.3196 17.6736L1.53837 21.2245C1.19278 21.9133 1.47103 22.7515 2.15979 23.0966C2.36065 23.1974 2.5739 23.2453 2.784 23.2453C3.29498 23.2453 3.78765 22.9635 4.03197 22.4753L5.32017 19.9077C7.11935 21.4123 9.43429 22.3198 11.9581 22.3198C14.3519 22.3198 16.5569 21.502 18.3134 20.1337L19.488 22.4753C19.7324 22.9635 20.225 23.2453 20.736 23.2453C20.946 23.2453 21.1593 23.1974 21.3602 23.0966C22.049 22.7515 22.3272 21.9128 21.9816 21.2245L20.3661 18.0044C21.5945 16.3013 22.3211 14.2132 22.3211 11.9572C22.3206 6.24272 17.6721 1.59409 11.9576 1.59409ZM11.9576 19.5301C7.78174 19.5301 4.38467 16.133 4.38467 11.9571C4.38467 7.78125 7.78174 4.38411 11.9576 4.38411C16.1335 4.38411 19.5306 7.78118 19.5306 11.9571C19.5306 16.133 16.1335 19.5301 11.9576 19.5301Z" />
<path d="M12.435 6.82263C12.0127 6.82263 11.6701 7.15898 11.6701 7.57346V11.6199L8.58219 13.9857C8.30836 14.3014 8.34774 14.7756 8.66982 15.0436C8.81363 15.1637 8.98957 15.2226 9.16475 15.2226C9.38127 15.2226 9.5966 15.1329 9.74765 14.9579L12.9223 12.492C13.0906 12.3542 13.2 12.1496 13.2 11.9175V7.57339C13.2 7.15898 12.8577 6.82263 12.435 6.82263Z" />
<path d="M6.86092 1.1772C5.29132 -0.3924 2.7468 -0.3924 1.1772 1.1772C-0.3924 2.7468 -0.3924 5.29132 1.1772 6.86092L6.86092 1.1772Z" />
<path d="M22.8228 1.1772C21.2532 -0.3924 18.7087 -0.3924 17.1391 1.1772L22.8228 6.86092C24.3924 5.29132 24.3924 2.74636 22.8228 1.1772Z" />
</svg>
